<svg xmlns="http://www.w3.org/2000/svg" width="1821" height="1260" fill="none" viewBox="0 0 1821 1260">
  <path fill="#E07800" d="M1818.07 1242.93c-3.91-3.9-10.23-3.91-14.14 0-3.91 3.9-3.91 10.23 0 14.14a9.99 9.99 0 0 0 14.14 0c3.91-3.9 3.9-10.24 0-14.14"/>
  <path fill="#E07800" d="M1780.07 1205.93c-3.91-3.91-10.24-3.91-14.14 0-3.91 3.9-3.91 10.23 0 14.14 3.9 3.91 10.23 3.91 14.14 0s3.91-10.24 0-14.14"/>
  <path fill="#E07800" d="M1742.07 1168.93a9.99 9.99 0 0 0-14.14 0c-3.91 3.9-3.91 10.24 0 14.14s10.23 3.91 14.14 0c3.91-3.9 3.91-10.24 0-14.14"/>
  <path fill="#E07800" d="M1566.07 990.931a9.996 9.996 0 0 0-14.14-.003c-3.91 3.906-3.91 10.242 0 14.142s10.23 3.91 14.14 0c3.91-3.9 3.91-10.236 0-14.139"/>
  <path fill="#E07800" d="M1048.6 473.002c-3.91-3.908-10.24-3.905-14.14-.002-3.91 3.906-3.91 10.237 0 14.145 3.9 3.901 10.23 3.904 14.14-.002a9.99 9.99 0 0 0 0-14.141"/>
  <path fill="#E07800" d="M1085.6 510.002c-3.91-3.908-10.24-3.908-14.14-.002-3.91 3.906-3.91 10.237 0 14.145 3.9 3.901 10.23 3.903 14.14-.003a9.99 9.99 0 0 0 0-14.14"/>
  <path fill="#E07800" d="M960.068 382.931c-3.905-3.909-10.233-3.906-14.138-.003-3.907 3.906-3.907 10.237 0 14.146 3.905 3.901 10.233 3.903 14.138-.003a9.99 9.99 0 0 0 0-14.14"/>
  <path fill="#E07800" d="M826.298 367.315a9.993 9.993 0 0 0-14.138-.003c-3.907 3.906-3.907 10.237 0 14.145 3.905 3.901 10.233 3.904 14.138-.002 3.909-3.906 3.909-10.237 0-14.14"/>
  <path fill="#E07800" d="M670.068 366.931a9.99 9.99 0 0 0-14.138-.002c-3.907 3.906-3.907 10.237 0 14.145 3.905 3.901 10.233 3.903 14.138-.003 3.909-3.905 3.909-10.236 0-14.14"/>
  <path fill="#E07800" d="M562.068 343.931a9.99 9.99 0 0 0-14.138-.002c-3.907 3.906-3.907 10.237 0 14.145 3.905 3.901 10.233 3.903 14.138-.003 3.909-3.905 3.909-10.236 0-14.14"/>
  <path fill="#E07800" d="M529.068 310.931a9.994 9.994 0 0 0-14.138-.003c-3.907 3.906-3.907 10.237 0 14.146a10 10 0 0 0 14.138-.003 9.99 9.99 0 0 0 0-14.14"/>
  <path fill="#E07800" d="M458.068 237.931a9.99 9.99 0 0 0-14.138-.002c-3.907 3.906-3.907 10.237 0 14.145 3.905 3.901 10.233 3.903 14.138-.003 3.909-3.905 3.909-10.236 0-14.14"/>
  <path fill="#E07800" d="M407.068 188.931a9.99 9.99 0 0 0-14.138-.002c-3.907 3.906-3.907 10.237 0 14.145 3.905 3.901 10.233 3.903 14.138-.003 3.909-3.905 3.909-10.236 0-14.14"/>
  <path fill="#E07800" d="M343.637 124.772a9.99 9.99 0 0 0-14.137-.003c-3.907 3.906-3.907 10.237 0 14.145 3.905 3.901 10.232 3.903 14.137-.002 3.91-3.906 3.91-10.237 0-14.14"/>
  <path fill="#E07800" d="M286.928 81.928c-3.903 3.91-3.905 10.234 0 14.143 3.904 3.905 10.235 3.905 14.143 0a10.004 10.004 0 0 0 0-14.145c-3.906-3.903-10.239-3.9-14.143.002"/>
  <path fill="#E07800" d="M1500.07 541.928c-3.91-3.904-10.24-3.904-14.14 0a9.994 9.994 0 0 0 0 14.144c3.9 3.904 10.23 3.904 14.14 0a9.994 9.994 0 0 0 0-14.144"/>
  <path fill="#E07800" d="M1368.07 673.926c-3.9-3.901-10.24-3.901-14.14 0-3.91 3.907-3.91 10.242 0 14.146 3.9 3.904 10.24 3.904 14.14 0 3.91-3.904 3.91-10.239 0-14.146"/>
  <path fill="#E07800" d="M1405.07 636.928c-3.9-3.904-10.24-3.904-14.14 0-3.91 3.906-3.91 10.241 0 14.144 3.9 3.904 10.24 3.904 14.14 0 3.91-3.903 3.91-10.238 0-14.144"/>
  <path fill="#E07800" d="M1275.07 766.928a10 10 0 0 0-14.14 0c-3.91 3.905-3.91 10.238 0 14.146a10.005 10.005 0 0 0 14.14 0c3.91-3.908 3.91-10.241 0-14.146"/>
  <path fill="#E07800" d="M1238.07 803.93c-3.9-3.907-10.24-3.907-14.14 0-3.91 3.901-3.91 10.236 0 14.142 3.9 3.904 10.24 3.904 14.14 0 3.91-3.906 3.91-10.241 0-14.142"/>
  <path fill="#E07800" d="M1201.07 841.928c-3.91-3.904-10.24-3.904-14.14 0-3.91 3.902-3.91 10.238 0 14.146 3.9 3.901 10.23 3.901 14.14 0 3.91-3.908 3.91-10.244 0-14.146"/>
  <path fill="#E07800" d="M1285.07 1010.93c-3.91-3.91-10.24-3.91-14.14 0-3.91 3.9-3.91 10.24 0 14.14 3.9 3.91 10.23 3.91 14.14 0 3.91-3.9 3.91-10.24 0-14.14"/>
  <path fill="#E07800" d="M1231.07 1074.93c-3.9-3.91-10.24-3.91-14.14 0-3.91 3.9-3.91 10.24 0 14.14 3.9 3.91 10.24 3.91 14.14 0 3.91-3.9 3.91-10.24 0-14.14"/>
  <path fill="#E07800" d="M1261.07 1045.93c-3.91-3.91-10.24-3.91-14.14 0-3.91 3.9-3.91 10.24 0 14.14 3.9 3.91 10.23 3.91 14.14 0 3.91-3.9 3.91-10.24 0-14.14"/>
  <path fill="#E07800" d="M1071.07 1081.93c-3.9-3.91-10.24-3.91-14.14 0-3.91 3.9-3.91 10.24 0 14.14 3.9 3.91 10.24 3.91 14.14 0 3.91-3.9 3.91-10.24 0-14.14"/>
  <path fill="#E07800" d="M1124.07 1081.86c-3.91-3.9-10.24-3.9-14.14 0-3.91 3.9-3.91 10.24 0 14.14 3.9 3.91 10.23 3.91 14.14 0 3.91-3.9 3.91-10.24 0-14.14"/>
  <path fill="#E07800" d="M1176.07 1081.93c-3.9-3.91-10.24-3.91-14.14 0-3.91 3.9-3.91 10.24 0 14.14 3.9 3.91 10.24 3.91 14.14 0 3.91-3.9 3.91-10.24 0-14.14"/>
  <path fill="#E07800" d="M1685.07 130.928c-3.91-3.904-10.24-3.904-14.14 0-3.91 3.907-3.91 10.237 0 14.142 3.9 3.907 10.23 3.907 14.14 0 3.91-3.905 3.91-10.235 0-14.142"/>
  <path fill="#E07800" d="M1648.07 168.93c-3.9-3.907-10.24-3.907-14.14 0a9.986 9.986 0 0 0 0 14.138c3.9 3.909 10.24 3.909 14.14 0a9.986 9.986 0 0 0 0-14.138"/>
  <path fill="#E07800" d="M1611.07 205.93c-3.9-3.907-10.24-3.907-14.14 0a9.99 9.99 0 0 0 0 14.14c3.9 3.907 10.24 3.907 14.14 0a9.99 9.99 0 0 0 0-14.14"/>
  <path fill="#E07800" d="M1581.07 242.928a10 10 0 0 0-14.14 0 9.99 9.99 0 0 0 0 14.142 9.994 9.994 0 0 0 14.14 0 9.99 9.99 0 0 0 0-14.142"/>
  <path fill="#E07800" d="M1617.07 297.926c-3.91-3.901-10.24-3.901-14.14 0a9.994 9.994 0 0 0 0 14.144c3.9 3.907 10.23 3.907 14.14 0a9.994 9.994 0 0 0 0-14.144"/>
  <path fill="#E07800" d="M1592.07 335.928c-3.91-3.904-10.23-3.904-14.15 0-3.89 3.907-3.89 10.239 0 14.14 3.92 3.909 10.24 3.909 14.15 0 3.91-3.901 3.91-10.233 0-14.14"/>
  <path fill="#E07800" d="M1554.07 372.926c-3.9-3.901-10.24-3.901-14.14 0-3.91 3.907-3.91 10.24 0 14.144 3.9 3.907 10.24 3.907 14.14 0 3.91-3.904 3.91-10.237 0-14.144"/>
  <path fill="#E07800" d="M1524.07 410.93c-3.9-3.907-10.24-3.907-14.14 0-3.91 3.904-3.91 10.236 0 14.142 3.9 3.904 10.24 3.904 14.14 0 3.91-3.906 3.91-10.238 0-14.142"/>
  <path fill="#E07800" d="M1566.07 467.93a9.994 9.994 0 0 0-14.14 0c-3.91 3.903-3.91 10.232 0 14.14a9.994 9.994 0 0 0 14.14 0c3.91-3.908 3.91-10.237 0-14.14"/>
  <path fill="#E07800" d="M1537.07 504.926c-3.91-3.901-10.24-3.901-14.14 0-3.91 3.905-3.91 10.239 0 14.143 3.9 3.908 10.23 3.908 14.14 0 3.91-3.904 3.91-10.238 0-14.143"/>
  <path fill="#E07800" d="M1022 1089c0 5.52-4.48 10-10 10s-10-4.48-10-10 4.48-10 10-10 10 4.48 10 10"/>
  <path fill="#E07800" d="M1715 112c-5.52 0-10-4.476-10-9.998 0-5.523 4.48-10.002 10-10.002s10 4.479 10 10.002c0 5.522-4.48 9.998-10 9.998"/>
  <path fill="#E07800" d="M10 613c5.523 0 10-4.477 10-10s-4.477-10-10-10-10 4.477-10 10 4.477 10 10 10"/>
  <path fill="#E07800" d="M76 613c5.523 0 10-4.477 10-10s-4.477-10-10-10-10 4.477-10 10 4.477 10 10 10"/>
  <path fill="#E07800" d="M179 613c5.523 0 10-4.477 10-10s-4.477-10-10-10-10 4.477-10 10 4.477 10 10 10"/>
  <path fill="#E07800" d="M313.5 613.143c5.523 0 10-4.477 10-10s-4.477-10-10-10-10 4.477-10 10 4.477 10 10 10"/>
  <path fill="#E07800" d="M444.5 649.143c5.523 0 10-4.477 10-10s-4.477-10-10-10-10 4.477-10 10 4.477 10 10 10"/>
  <path fill="#E07800" d="M444.5 744.143c5.523 0 10-4.477 10-10s-4.477-10-10-10-10 4.477-10 10 4.477 10 10 10"/>
  <path fill="#E07800" d="M1312.07 729.928a10 10 0 0 0-14.14 0c-3.91 3.905-3.91 10.238 0 14.146a10.005 10.005 0 0 0 14.14 0c3.91-3.908 3.91-10.241 0-14.146"/>
  <path fill="#E07800" d="M1489.07 721.928a10 10 0 0 0-14.14 0 9.994 9.994 0 0 0 0 14.144 10 10 0 0 0 14.14 0 9.994 9.994 0 0 0 0-14.144"/>
  <path fill="#E07800" d="M1529 690.999a9.994 9.994 0 0 0-10-9.999c-5.52.003-10 4.476-10 10.001 0 5.523 4.48 9.999 10 9.999s10-4.476 10-10.001"/>
  <path fill="#E07800" d="M1200.07 325.929c-3.9-3.905-10.23-3.905-14.14 0s-3.91 10.238 0 14.14c3.91 3.908 10.24 3.908 14.14 0 3.91-3.902 3.91-10.236 0-14.14"/>
  <path fill="#E07800" d="M1164.07 287.93c-3.9-3.907-10.24-3.907-14.14 0a9.99 9.99 0 0 0 0 14.14c3.9 3.907 10.24 3.907 14.14 0a9.99 9.99 0 0 0 0-14.14"/>
  <path fill="#E07800" d="M1086.07 208.93c-3.91-3.907-10.24-3.907-14.14 0-3.91 3.9-3.91 10.235 0 14.138 3.9 3.909 10.23 3.909 14.14 0 3.91-3.903 3.91-10.238 0-14.138"/>
  <path fill="#E07800" d="M1054.07 174.928c-3.9-3.904-10.24-3.904-14.14 0-3.91 3.907-3.91 10.237 0 14.142 3.9 3.907 10.24 3.907 14.14 0 3.91-3.905 3.91-10.235 0-14.142"/>
  <path fill="#E07800" d="M1452.07 758.93c-3.91-3.907-10.24-3.907-14.14 0a9.986 9.986 0 0 0 0 14.138c3.9 3.909 10.23 3.909 14.14 0a9.986 9.986 0 0 0 0-14.138"/>
  <path fill="#E07800" d="M1295.07 916.928c-3.91-3.904-10.24-3.904-14.14 0a9.99 9.99 0 0 0 0 14.14c3.9 3.909 10.23 3.909 14.14 0a9.99 9.99 0 0 0 0-14.14"/>
  <path fill="#E07800" d="M1180.07 976.928a10 10 0 0 0-14.14 0 9.99 9.99 0 0 0 0 14.142 9.994 9.994 0 0 0 14.14 0 9.99 9.99 0 0 0 0-14.142"/>
  <path fill="#E07800" d="M1066.07 861.928c-3.9-3.904-10.24-3.904-14.14 0a9.994 9.994 0 0 0 0 14.144c3.9 3.904 10.24 3.904 14.14 0a9.994 9.994 0 0 0 0-14.144"/>
  <path fill="#E07800" d="M974.452 771.5c-3.904-3.902-10.236-3.902-14.137 0-3.911 3.904-3.911 10.234 0 14.141 3.901 3.91 10.233 3.91 14.137 0 3.906-3.907 3.906-10.237 0-14.141"/>
  <path fill="#E07800" d="M944.074 739.928c-3.904-3.904-10.24-3.904-14.142 0-3.909 3.904-3.909 10.239 0 14.14 3.902 3.909 10.238 3.909 14.142 0 3.901-3.901 3.901-10.236 0-14.14"/>
  <path fill="#E07800" d="M899.07 694.928c-3.9-3.904-10.237-3.904-14.14 0-3.907 3.904-3.907 10.236 0 14.14 3.903 3.909 10.24 3.909 14.14 0 3.907-3.904 3.907-10.236 0-14.14"/>
  <path fill="#E07800" d="M862.072 656.93c-3.906-3.907-10.238-3.907-14.136 0-3.915 3.904-3.915 10.233 0 14.142 3.898 3.904 10.23 3.904 14.136 0 3.904-3.909 3.904-10.238 0-14.142"/>
  <path fill="#E07800" d="M826.072 621.93c-3.904-3.907-10.236-3.907-14.14 0-3.909 3.904-3.909 10.233 0 14.14 3.904 3.907 10.236 3.907 14.14 0s3.904-10.236 0-14.14"/>
  <path fill="#E07800" d="M1422.07 546.93a9.994 9.994 0 0 0-14.14 0c-3.91 3.901-3.91 10.236 0 14.14a9.994 9.994 0 0 0 14.14 0c3.91-3.904 3.91-10.239 0-14.14"/>
  <path fill="#E07800" d="M1348.07 472.93a10 10 0 0 0-14.14-.003c-3.91 3.905-3.91 10.238 0 14.145a9.997 9.997 0 0 0 14.14-.003 9.99 9.99 0 0 0 0-14.139"/>
  <path fill="#E07800" d="M1309.07 430.93c-3.91-3.906-10.24-3.906-14.14-.003a9.99 9.99 0 0 0 0 14.143c3.9 3.906 10.23 3.906 14.14.003 3.91-3.91 3.91-10.239 0-14.143"/>
  <path fill="#E07800" d="M1274.07 394.93c-3.91-3.907-10.24-3.907-14.14 0-3.91 3.902-3.91 10.238 0 14.14 3.9 3.907 10.23 3.907 14.14 0 3.91-3.902 3.91-10.238 0-14.14"/>
  <path fill="#E07800" d="M1124.07 920.928c-3.91-3.904-10.24-3.904-14.14 0-3.91 3.904-3.91 10.239 0 14.14 3.9 3.909 10.23 3.909 14.14 0 3.91-3.901 3.91-10.236 0-14.14"/>
  <path fill="#E07800" d="M1384.07 507.931a9.997 9.997 0 0 0-14.14-.003c-3.91 3.904-3.91 10.237 0 14.144a9.997 9.997 0 0 0 14.14-.003c3.91-3.904 3.91-10.237 0-14.138"/>
  <path fill="#E07800" d="M791 591c0 5.524-4.476 10-9.998 10-5.523 0-10.002-4.476-10.002-10s4.479-10 10.002-10c5.522 0 9.998 4.476 9.998 10"/>
  <path fill="#E07800" d="M839 172c0 5.524-4.476 10-9.998 10-5.523 0-10.002-4.476-10.002-10s4.479-10 10.002-10c5.522 0 9.998 4.476 9.998 10"/>
  <path fill="#E07800" d="M1666.07 577.926c-3.91-3.901-10.24-3.901-14.14 0a9.996 9.996 0 0 0 0 14.146c3.9 3.904 10.23 3.904 14.14 0a9.996 9.996 0 0 0 0-14.146"/>
  <path fill="#E07800" d="M1722 535c0 5.524-4.48 10-10 10s-10-4.476-10-10 4.48-10 10-10 10 4.476 10 10"/>
  <path fill="#E07800" d="M1466.14 576.855c-7.81-7.807-20.48-7.807-28.29 0-7.8 7.812-7.8 20.474 0 28.286 7.81 7.811 20.48 7.811 28.29.004 7.82-7.816 7.81-20.478 0-28.29"/>
  <path fill="#E07800" d="M1238.07 356.928a10 10 0 0 0-14.14 0 9.994 9.994 0 0 0 0 14.144 10 10 0 0 0 14.14 0 9.994 9.994 0 0 0 0-14.144"/>
  <path fill="#E07800" d="M1191.32 406.444a10.01 10.01 0 0 0-16.64 0c-2.24 3.291-2.24 7.817 0 11.108a10.005 10.005 0 0 0 16.64 0c2.24-3.291 2.24-7.817 0-11.108"/>
  <path fill="#E07800" d="M1088.07 729.926c-3.9-3.901-10.24-3.901-14.14 0-3.91 3.904-3.91 10.237 0 14.144 3.9 3.907 10.24 3.907 14.14 0 3.91-3.907 3.91-10.24 0-14.144"/>
  <path fill="#E07800" d="M1144.07 674.926c-3.91-3.901-10.24-3.901-14.14 0-3.91 3.904-3.91 10.237 0 14.144 3.9 3.907 10.23 3.907 14.14 0s3.91-10.24 0-14.144"/>
  <path fill="#E07800" d="M1168.07 500.928c-3.9-3.904-10.23-3.904-14.14 0s-3.91 10.238 0 14.14c3.91 3.909 10.24 3.909 14.14 0 3.91-3.902 3.91-10.235 0-14.14"/>
  <path fill="#E07800" d="M1205.07 538.928c-3.9-3.904-10.23-3.904-14.14 0-3.91 3.902-3.91 10.238 0 14.14 3.91 3.909 10.24 3.909 14.14 0 3.91-3.902 3.91-10.238 0-14.14"/>
  <path fill="#E07800" d="M1294.07 300.93a9.994 9.994 0 0 0-14.14 0c-3.91 3.904-3.91 10.236 0 14.142a10 10 0 0 0 14.14 0c3.91-3.906 3.91-10.238 0-14.142"/>
  <path fill="#E07800" d="M1341.07 253.928c-3.91-3.904-10.24-3.904-14.14 0-3.91 3.907-3.91 10.236 0 14.14 3.9 3.909 10.23 3.909 14.14 0 3.91-3.904 3.91-10.233 0-14.14"/>
  <path fill="#E07800" d="M1390 215c0 5.524-4.48 10-10 10s-10-4.476-10-10 4.48-10 10-10 10 4.476 10 10"/>
  <path fill="#E07800" d="M1437 169c0 5.524-4.48 10-10 10s-10-4.476-10-10 4.48-10 10-10 10 4.476 10 10"/>
  <path fill="#E07800" d="M1476 131c0 5.524-4.48 10-10 10s-10-4.476-10-10 4.48-10 10-10 10 4.476 10 10"/>
  <path fill="#E07800" d="M1514 94c0 5.524-4.48 10-10 10s-10-4.476-10-10 4.48-10 10-10 10 4.476 10 10"/>
  <path fill="#E07800" d="M1555 54c0 5.524-4.48 10-10 10s-10-4.476-10-10 4.48-10 10-10 10 4.476 10 10"/>
  <path fill="#E07800" d="M1598 10c0 5.524-4.48 10-10 10s-10-4.476-10-10 4.48-10 10-10 10 4.476 10 10"/>
  <path fill="#E07800" d="M1200.07 617.926c-3.91-3.901-10.24-3.901-14.14 0a9.994 9.994 0 0 0 0 14.144c3.9 3.907 10.23 3.907 14.14 0a9.994 9.994 0 0 0 0-14.144"/>
  <path stroke="#E07800" stroke-linecap="round" stroke-linejoin="round" stroke-width="12.123" d="m1810.62 1250.33-698.84-701.044-44.14-44.278-115.459-115.82a51.3 51.3 0 0 0-36.335-15.098H599.532a51.3 51.3 0 0 1-36.336-15.099L293.893 88.841"/>
  <path stroke="#E07800" stroke-linecap="round" stroke-linejoin="round" stroke-width="12.123" d="m1301.79 740.484-9.94 9.975-126.64 127.04c-6.69 6.711-6.69 17.589 0 24.3l107.8 108.151c6.69 6.71 6.69 17.59 0 24.3l-46.56 46.71a25.66 25.66 0 0 1-18.17 7.54h-199.6"/>
  <path stroke="#E07800" stroke-linecap="round" stroke-linejoin="round" stroke-width="12.123" d="M1711.94 104.338 1575.3 241.407c-6.69 6.711-6.69 17.59 0 24.301l31 31.1c6.69 6.71 6.69 17.59 0 24.3l-87.75 88.022c-6.69 6.71-6.69 17.59 0 24.3l32.56 32.656c6.69 6.71 6.69 17.59 0 24.301l-239.1 239.852-10.47 10.496"/>
  <path stroke="#E07800" stroke-linecap="round" stroke-linejoin="round" stroke-width="12.123" d="m453.47 508.812-2.22 6.181q-6.75 18.65-6.75 38.65v183"/>
  <path stroke="#E07800" stroke-linecap="round" stroke-linejoin="round" stroke-width="12.123" d="M10 602.143h308q40 0 68.6-28.5L591.35 374"/>
  <path stroke="#E07800" stroke-linecap="round" stroke-linejoin="round" stroke-width="12.123" d="M829.242 172.235h195.288c6.82 0 13.35 2.715 18.17 7.549l43.67 43.812 437.79 439.156c6.68 6.711 6.68 17.59-.01 24.3l-311.54 312.509c-6.69 6.709-17.54 6.709-24.23 0L780.859 590.756"/>
  <path stroke="#E07800" stroke-linecap="round" stroke-linejoin="round" stroke-width="12.123" d="M1451.71 590.083h194.45c6.81 0 13.35-2.715 18.17-7.549l44.88-45.021"/>
  <path stroke="#E07800" stroke-linecap="round" stroke-linejoin="round" stroke-width="12.123" d="m1004 815 177.62-177.986 20.13-20.172 20.16-20.201c6.74-6.752 6.74-17.7 0-24.452l-87.98-88.164c-6.74-6.751-6.74-17.698 0-24.45L1587.5 10.5"/>
</svg>
