<svg xmlns="http://www.w3.org/2000/svg" viewBox="0 0 130 64" role="img" aria-label="yesid.dev">
  <style>
    .wordmark { fill: var(--theme--foreground, #F5F5F0); }
    .dot { fill: var(--theme--primary, #E07800); }
  </style>
  <path class="wordmark" d="M6.58 54.50 8.05 49.64 8.85 49.86Q10.15 50.19 11.16 50.04Q12.16 49.89 12.77 49.22Q13.38 48.56 13.51 47.36L13.70 46.07L4.67 21.98H11.52L15.55 34.45Q16.30 36.81 16.76 39.17Q17.22 41.53 17.80 44.10H16.31Q16.89 41.53 17.47 39.15Q18.04 36.78 18.82 34.45L23.04 21.98H29.81L19.61 48.83Q18.88 50.77 17.73 52.19Q16.59 53.61 14.90 54.38Q13.20 55.15 10.78 55.15Q9.51 55.15 8.39 54.97Q7.26 54.78 6.58 54.50Z M41.98 46.47Q38.31 46.47 35.64 44.96Q32.98 43.46 31.55 40.69Q30.12 37.91 30.12 34.11Q30.12 30.41 31.54 27.61Q32.96 24.81 35.56 23.25Q38.15 21.68 41.66 21.68Q44.01 21.68 46.06 22.43Q48.10 23.18 49.64 24.69Q51.19 26.20 52.06 28.49Q52.92 30.78 52.92 33.86V35.67H32.77V31.62H49.78L46.77 32.70Q46.77 30.83 46.20 29.44Q45.63 28.06 44.50 27.30Q43.38 26.53 41.71 26.53Q40.04 26.53 38.87 27.31Q37.71 28.08 37.10 29.40Q36.49 30.73 36.49 32.42V35.27Q36.49 37.36 37.19 38.77Q37.89 40.19 39.15 40.90Q40.42 41.62 42.09 41.62Q43.21 41.62 44.14 41.30Q45.06 40.97 45.72 40.34Q46.39 39.71 46.73 38.79L52.56 39.87Q51.98 41.86 50.54 43.34Q49.11 44.83 46.94 45.65Q44.78 46.47 41.98 46.47Z M65.56 46.47Q62.66 46.47 60.42 45.64Q58.18 44.81 56.77 43.23Q55.35 41.66 54.94 39.44L60.94 38.40Q61.41 40.08 62.59 40.92Q63.77 41.75 65.74 41.75Q67.59 41.75 68.66 41.05Q69.73 40.35 69.73 39.27Q69.73 38.33 68.97 37.72Q68.21 37.12 66.62 36.80L62.48 35.94Q59.01 35.23 57.29 33.53Q55.57 31.82 55.57 29.12Q55.57 26.82 56.83 25.15Q58.09 23.49 60.36 22.58Q62.62 21.68 65.65 21.68Q68.51 21.68 70.59 22.47Q72.67 23.25 73.95 24.69Q75.24 26.12 75.68 28.09L69.96 29.09Q69.59 27.86 68.55 27.08Q67.51 26.30 65.76 26.30Q64.16 26.30 63.09 26.97Q62.01 27.64 62.01 28.74Q62.01 29.64 62.71 30.27Q63.40 30.89 65.10 31.25L69.42 32.11Q72.90 32.81 74.60 34.41Q76.31 36.02 76.31 38.59Q76.31 40.96 74.93 42.73Q73.55 44.50 71.13 45.48Q68.71 46.47 65.56 46.47Z M79.33 46.00V21.98H85.78V46.00ZM82.55 18.85Q81.10 18.85 80.06 17.88Q79.02 16.90 79.02 15.54Q79.02 14.15 80.06 13.19Q81.10 12.23 82.55 12.23Q84.02 12.23 85.06 13.19Q86.10 14.15 86.10 15.54Q86.10 16.90 85.06 17.88Q84.02 18.85 82.55 18.85Z M98.72 46.40Q95.96 46.40 93.74 44.97Q91.52 43.55 90.23 40.79Q88.94 38.03 88.94 34.03Q88.94 29.93 90.27 27.18Q91.60 24.43 93.82 23.06Q96.03 21.68 98.68 21.68Q100.72 21.68 102.08 22.37Q103.44 23.05 104.27 24.06Q105.11 25.07 105.53 26.02H105.74V13.99H112.18V46.00H105.84V42.16H105.53Q105.08 43.12 104.23 44.10Q103.38 45.07 102.04 45.74Q100.69 46.40 98.72 46.40ZM100.70 41.24Q102.35 41.24 103.50 40.33Q104.66 39.42 105.27 37.80Q105.87 36.18 105.87 34.01Q105.87 31.82 105.27 30.22Q104.67 28.61 103.51 27.73Q102.36 26.84 100.70 26.84Q99.02 26.84 97.87 27.76Q96.72 28.67 96.14 30.29Q95.55 31.90 95.55 34.01Q95.55 36.12 96.14 37.75Q96.73 39.39 97.88 40.31Q99.04 41.24 100.70 41.24Z"/>
  <path class="dot" d="M120.96 46.41Q119.38 46.41 118.31 45.34Q117.23 44.28 117.23 42.72Q117.23 41.15 118.31 40.09Q119.38 39.03 120.96 39.03Q122.53 39.03 123.61 40.09Q124.68 41.15 124.68 42.72Q124.68 44.28 123.61 45.34Q122.53 46.41 120.96 46.41Z"/>
</svg>
