<svg width="1821" height="1260" viewBox="0 0 1821 1260" fill="none" xmlns="http://www.w3.org/2000/svg">
<path d="M1818.07 1242.93C1814.16 1239.03 1807.84 1239.02 1803.93 1242.93C1800.02 1246.83 1800.02 1253.16 1803.93 1257.07C1807.84 1260.98 1814.16 1260.98 1818.07 1257.07C1821.98 1253.17 1821.97 1246.83 1818.07 1242.93Z" fill="#E07800"/>
<path d="M1780.07 1205.93C1776.16 1202.02 1769.83 1202.02 1765.93 1205.93C1762.02 1209.83 1762.02 1216.16 1765.93 1220.07C1769.83 1223.98 1776.16 1223.98 1780.07 1220.07C1783.98 1216.16 1783.98 1209.83 1780.07 1205.93Z" fill="#E07800"/>
<path d="M1742.07 1168.93C1738.16 1165.02 1731.84 1165.02 1727.93 1168.93C1724.02 1172.83 1724.02 1179.17 1727.93 1183.07C1731.84 1186.97 1738.16 1186.98 1742.07 1183.07C1745.98 1179.17 1745.98 1172.83 1742.07 1168.93Z" fill="#E07800"/>
<path d="M1566.07 990.931C1562.16 987.022 1555.84 987.025 1551.93 990.928C1548.02 994.834 1548.02 1001.17 1551.93 1005.07C1555.84 1008.97 1562.16 1008.98 1566.07 1005.07C1569.98 1001.17 1569.98 994.834 1566.07 990.931Z" fill="#E07800"/>
<path d="M1048.6 473.002C1044.69 469.094 1038.36 469.097 1034.46 473C1030.55 476.906 1030.55 483.237 1034.46 487.145C1038.36 491.046 1044.69 491.049 1048.6 487.143C1052.51 483.237 1052.51 476.908 1048.6 473.002Z" fill="#E07800"/>
<path d="M1085.6 510.002C1081.69 506.094 1075.36 506.094 1071.46 510C1067.55 513.906 1067.55 520.237 1071.46 524.145C1075.36 528.046 1081.69 528.048 1085.6 524.142C1089.51 520.237 1089.51 513.906 1085.6 510.002Z" fill="#E07800"/>
<path d="M960.068 382.931C956.163 379.022 949.835 379.025 945.93 382.928C942.023 386.834 942.023 393.165 945.93 397.074C949.835 400.975 956.163 400.977 960.068 397.071C963.977 393.165 963.977 386.836 960.068 382.931Z" fill="#E07800"/>
<path d="M826.298 367.315C822.393 363.407 816.065 363.407 812.16 367.312C808.253 371.218 808.253 377.549 812.16 381.457C816.065 385.358 822.393 385.361 826.298 381.455C830.207 377.549 830.207 371.218 826.298 367.315Z" fill="#E07800"/>
<path d="M670.068 366.931C666.163 363.023 659.835 363.023 655.93 366.929C652.023 370.835 652.023 377.166 655.93 381.074C659.835 384.975 666.163 384.977 670.068 381.071C673.977 377.166 673.977 370.835 670.068 366.931Z" fill="#E07800"/>
<path d="M562.068 343.931C558.163 340.023 551.835 340.023 547.93 343.929C544.023 347.835 544.023 354.166 547.93 358.074C551.835 361.975 558.163 361.977 562.068 358.071C565.977 354.166 565.977 347.835 562.068 343.931Z" fill="#E07800"/>
<path d="M529.068 310.931C525.161 307.022 518.835 307.025 514.93 310.928C511.023 314.834 511.023 321.165 514.93 325.074C518.835 328.975 525.161 328.977 529.068 325.071C532.977 321.165 532.977 314.836 529.068 310.931Z" fill="#E07800"/>
<path d="M458.068 237.931C454.163 234.023 447.835 234.023 443.93 237.929C440.023 241.835 440.023 248.166 443.93 252.074C447.835 255.975 454.163 255.977 458.068 252.071C461.977 248.166 461.977 241.835 458.068 237.931Z" fill="#E07800"/>
<path d="M407.068 188.931C403.163 185.023 396.835 185.023 392.93 188.929C389.023 192.835 389.023 199.166 392.93 203.074C396.835 206.975 403.163 206.977 407.068 203.071C410.977 199.166 410.977 192.835 407.068 188.931Z" fill="#E07800"/>
<path d="M343.637 124.772C339.732 120.864 333.405 120.864 329.5 124.769C325.593 128.675 325.593 135.006 329.5 138.914C333.405 142.815 339.732 142.817 343.637 138.912C347.547 135.006 347.547 128.675 343.637 124.772Z" fill="#E07800"/>
<path d="M286.928 81.9282C283.025 85.8374 283.023 92.1621 286.928 96.0712C290.832 99.9763 297.163 99.9763 301.071 96.0712C304.976 92.1601 304.976 85.8374 301.071 81.9262C297.165 78.0232 290.832 78.0253 286.928 81.9282Z" fill="#E07800"/>
<path d="M1500.07 541.928C1496.16 538.024 1489.83 538.024 1485.93 541.928C1482.02 545.835 1482.02 552.165 1485.93 556.072C1489.83 559.976 1496.16 559.976 1500.07 556.072C1503.98 552.165 1503.98 545.835 1500.07 541.928Z" fill="#E07800"/>
<path d="M1368.07 673.926C1364.17 670.025 1357.83 670.025 1353.93 673.926C1350.02 677.833 1350.02 684.168 1353.93 688.072C1357.83 691.976 1364.17 691.976 1368.07 688.072C1371.98 684.168 1371.98 677.833 1368.07 673.926Z" fill="#E07800"/>
<path d="M1405.07 636.928C1401.17 633.024 1394.83 633.024 1390.93 636.928C1387.02 640.834 1387.02 647.169 1390.93 651.072C1394.83 654.976 1401.17 654.976 1405.07 651.072C1408.98 647.169 1408.98 640.834 1405.07 636.928Z" fill="#E07800"/>
<path d="M1275.07 766.928C1271.16 763.024 1264.84 763.024 1260.93 766.928C1257.02 770.833 1257.02 777.166 1260.93 781.074C1264.84 784.975 1271.16 784.975 1275.07 781.074C1278.98 777.166 1278.98 770.833 1275.07 766.928Z" fill="#E07800"/>
<path d="M1238.07 803.93C1234.17 800.023 1227.83 800.023 1223.93 803.93C1220.02 807.831 1220.02 814.166 1223.93 818.072C1227.83 821.976 1234.17 821.976 1238.07 818.072C1241.98 814.166 1241.98 807.831 1238.07 803.93Z" fill="#E07800"/>
<path d="M1201.07 841.928C1197.16 838.024 1190.83 838.024 1186.93 841.928C1183.02 845.83 1183.02 852.166 1186.93 856.074C1190.83 859.975 1197.16 859.975 1201.07 856.074C1204.98 852.166 1204.98 845.83 1201.07 841.928Z" fill="#E07800"/>
<path d="M1285.07 1010.93C1281.16 1007.02 1274.83 1007.02 1270.93 1010.93C1267.02 1014.83 1267.02 1021.17 1270.93 1025.07C1274.83 1028.98 1281.16 1028.98 1285.07 1025.07C1288.98 1021.17 1288.98 1014.83 1285.07 1010.93Z" fill="#E07800"/>
<path d="M1231.07 1074.93C1227.17 1071.02 1220.83 1071.02 1216.93 1074.93C1213.02 1078.83 1213.02 1085.17 1216.93 1089.07C1220.83 1092.98 1227.17 1092.98 1231.07 1089.07C1234.98 1085.17 1234.98 1078.83 1231.07 1074.93Z" fill="#E07800"/>
<path d="M1261.07 1045.93C1257.16 1042.02 1250.83 1042.02 1246.93 1045.93C1243.02 1049.83 1243.02 1056.17 1246.93 1060.07C1250.83 1063.98 1257.16 1063.98 1261.07 1060.07C1264.98 1056.17 1264.98 1049.83 1261.07 1045.93Z" fill="#E07800"/>
<path d="M1071.07 1081.93C1067.17 1078.02 1060.83 1078.02 1056.93 1081.93C1053.02 1085.83 1053.02 1092.17 1056.93 1096.07C1060.83 1099.98 1067.17 1099.98 1071.07 1096.07C1074.98 1092.17 1074.98 1085.83 1071.07 1081.93Z" fill="#E07800"/>
<path d="M1124.07 1081.86C1120.16 1077.96 1113.83 1077.96 1109.93 1081.86C1106.02 1085.76 1106.02 1092.1 1109.93 1096C1113.83 1099.91 1120.16 1099.91 1124.07 1096C1127.98 1092.1 1127.98 1085.76 1124.07 1081.86Z" fill="#E07800"/>
<path d="M1176.07 1081.93C1172.17 1078.02 1165.83 1078.02 1161.93 1081.93C1158.02 1085.83 1158.02 1092.17 1161.93 1096.07C1165.83 1099.98 1172.17 1099.98 1176.07 1096.07C1179.98 1092.17 1179.98 1085.83 1176.07 1081.93Z" fill="#E07800"/>
<path d="M1685.07 130.928C1681.16 127.024 1674.83 127.024 1670.93 130.928C1667.02 134.835 1667.02 141.165 1670.93 145.07C1674.83 148.977 1681.16 148.977 1685.07 145.07C1688.98 141.165 1688.98 134.835 1685.07 130.928Z" fill="#E07800"/>
<path d="M1648.07 168.93C1644.17 165.023 1637.83 165.023 1633.93 168.93C1630.02 172.833 1630.02 179.165 1633.93 183.068C1637.83 186.977 1644.17 186.977 1648.07 183.068C1651.98 179.165 1651.98 172.833 1648.07 168.93Z" fill="#E07800"/>
<path d="M1611.07 205.93C1607.17 202.023 1600.83 202.023 1596.93 205.93C1593.02 209.834 1593.02 216.166 1596.93 220.07C1600.83 223.977 1607.17 223.977 1611.07 220.07C1614.98 216.166 1614.98 209.834 1611.07 205.93Z" fill="#E07800"/>
<path d="M1581.07 242.928C1577.16 239.024 1570.84 239.024 1566.93 242.928C1563.02 246.834 1563.02 253.164 1566.93 257.07C1570.84 260.977 1577.16 260.977 1581.07 257.07C1584.98 253.164 1584.98 246.834 1581.07 242.928Z" fill="#E07800"/>
<path d="M1617.07 297.926C1613.16 294.025 1606.83 294.025 1602.93 297.926C1599.02 301.833 1599.02 308.163 1602.93 312.07C1606.83 315.977 1613.16 315.977 1617.07 312.07C1620.98 308.163 1620.98 301.833 1617.07 297.926Z" fill="#E07800"/>
<path d="M1592.07 335.928C1588.16 332.024 1581.84 332.024 1577.92 335.928C1574.03 339.835 1574.03 346.167 1577.92 350.068C1581.84 353.977 1588.16 353.977 1592.07 350.068C1595.98 346.167 1595.98 339.835 1592.07 335.928Z" fill="#E07800"/>
<path d="M1554.07 372.926C1550.17 369.025 1543.83 369.025 1539.93 372.926C1536.02 376.833 1536.02 383.166 1539.93 387.07C1543.83 390.977 1550.17 390.977 1554.07 387.07C1557.98 383.166 1557.98 376.833 1554.07 372.926Z" fill="#E07800"/>
<path d="M1524.07 410.93C1520.17 407.023 1513.83 407.023 1509.93 410.93C1506.02 414.834 1506.02 421.166 1509.93 425.072C1513.83 428.976 1520.17 428.976 1524.07 425.072C1527.98 421.166 1527.98 414.834 1524.07 410.93Z" fill="#E07800"/>
<path d="M1566.07 467.93C1562.16 464.023 1555.84 464.023 1551.93 467.93C1548.02 471.833 1548.02 478.162 1551.93 482.07C1555.84 485.977 1562.16 485.977 1566.07 482.07C1569.98 478.162 1569.98 471.833 1566.07 467.93Z" fill="#E07800"/>
<path d="M1537.07 504.926C1533.16 501.025 1526.83 501.025 1522.93 504.926C1519.02 508.831 1519.02 515.165 1522.93 519.069C1526.83 522.977 1533.16 522.977 1537.07 519.069C1540.98 515.165 1540.98 508.831 1537.07 504.926Z" fill="#E07800"/>
<path d="M1022 1089C1022 1094.52 1017.52 1099 1012 1099C1006.48 1099 1002 1094.52 1002 1089C1002 1083.48 1006.48 1079 1012 1079C1017.52 1079 1022 1083.48 1022 1089Z" fill="#E07800"/>
<path d="M1715 112C1709.48 112 1705 107.524 1705 102.002C1705 96.4787 1709.48 92 1715 92C1720.52 92 1725 96.4787 1725 102.002C1725 107.524 1720.52 112 1715 112Z" fill="#E07800"/>
<path d="M10 613C15.5228 613 20 608.523 20 603C20 597.477 15.5228 593 10 593C4.47715 593 0 597.477 0 603C0 608.523 4.47715 613 10 613Z" fill="#E07800"/>
<path d="M76 613C81.5228 613 86 608.523 86 603C86 597.477 81.5228 593 76 593C70.4772 593 66 597.477 66 603C66 608.523 70.4772 613 76 613Z" fill="#E07800"/>
<path d="M179 613C184.523 613 189 608.523 189 603C189 597.477 184.523 593 179 593C173.477 593 169 597.477 169 603C169 608.523 173.477 613 179 613Z" fill="#E07800"/>
<path d="M313.5 613.143C319.023 613.143 323.5 608.666 323.5 603.143C323.5 597.62 319.023 593.143 313.5 593.143C307.977 593.143 303.5 597.62 303.5 603.143C303.5 608.666 307.977 613.143 313.5 613.143Z" fill="#E07800"/>
<path d="M444.5 649.143C450.023 649.143 454.5 644.666 454.5 639.143C454.5 633.62 450.023 629.143 444.5 629.143C438.977 629.143 434.5 633.62 434.5 639.143C434.5 644.666 438.977 649.143 444.5 649.143Z" fill="#E07800"/>
<path d="M444.5 744.143C450.023 744.143 454.5 739.666 454.5 734.143C454.5 728.62 450.023 724.143 444.5 724.143C438.977 724.143 434.5 728.62 434.5 734.143C434.5 739.666 438.977 744.143 444.5 744.143Z" fill="#E07800"/>
<path d="M1312.07 729.928C1308.16 726.024 1301.84 726.024 1297.93 729.928C1294.02 733.833 1294.02 740.166 1297.93 744.074C1301.84 747.975 1308.16 747.975 1312.07 744.074C1315.98 740.166 1315.98 733.833 1312.07 729.928Z" fill="#E07800"/>
<path d="M1489.07 721.928C1485.16 718.024 1478.84 718.024 1474.93 721.928C1471.02 725.835 1471.02 732.165 1474.93 736.072C1478.84 739.976 1485.16 739.976 1489.07 736.072C1492.98 732.165 1492.98 725.835 1489.07 721.928Z" fill="#E07800"/>
<path d="M1529 690.999C1529 685.476 1524.53 681 1519 681C1513.48 681.003 1509 685.476 1509 691.001C1509 696.524 1513.48 701 1519 701C1524.52 701 1529 696.524 1529 690.999Z" fill="#E07800"/>
<path d="M1200.07 325.929C1196.17 322.024 1189.84 322.024 1185.93 325.929C1182.02 329.833 1182.02 336.167 1185.93 340.069C1189.84 343.977 1196.17 343.977 1200.07 340.069C1203.98 336.167 1203.98 329.833 1200.07 325.929Z" fill="#E07800"/>
<path d="M1164.07 287.93C1160.17 284.023 1153.83 284.023 1149.93 287.93C1146.02 291.834 1146.02 298.166 1149.93 302.07C1153.83 305.977 1160.17 305.977 1164.07 302.07C1167.98 298.166 1167.98 291.834 1164.07 287.93Z" fill="#E07800"/>
<path d="M1086.07 208.93C1082.16 205.023 1075.83 205.023 1071.93 208.93C1068.02 212.83 1068.02 219.165 1071.93 223.068C1075.83 226.977 1082.16 226.977 1086.07 223.068C1089.98 219.165 1089.98 212.83 1086.07 208.93Z" fill="#E07800"/>
<path d="M1054.07 174.928C1050.17 171.024 1043.83 171.024 1039.93 174.928C1036.02 178.835 1036.02 185.165 1039.93 189.07C1043.83 192.977 1050.17 192.977 1054.07 189.07C1057.98 185.165 1057.98 178.835 1054.07 174.928Z" fill="#E07800"/>
<path d="M1452.07 758.93C1448.16 755.023 1441.83 755.023 1437.93 758.93C1434.02 762.833 1434.02 769.165 1437.93 773.068C1441.83 776.977 1448.16 776.977 1452.07 773.068C1455.98 769.165 1455.98 762.833 1452.07 758.93Z" fill="#E07800"/>
<path d="M1295.07 916.928C1291.16 913.024 1284.83 913.024 1280.93 916.928C1277.02 920.832 1277.02 927.164 1280.93 931.068C1284.83 934.977 1291.16 934.977 1295.07 931.068C1298.98 927.164 1298.98 920.832 1295.07 916.928Z" fill="#E07800"/>
<path d="M1180.07 976.928C1176.16 973.024 1169.84 973.024 1165.93 976.928C1162.02 980.834 1162.02 987.164 1165.93 991.07C1169.84 994.977 1176.16 994.977 1180.07 991.07C1183.98 987.164 1183.98 980.834 1180.07 976.928Z" fill="#E07800"/>
<path d="M1066.07 861.928C1062.17 858.024 1055.83 858.024 1051.93 861.928C1048.02 865.835 1048.02 872.165 1051.93 876.072C1055.83 879.976 1062.17 879.976 1066.07 876.072C1069.98 872.165 1069.98 865.835 1066.07 861.928Z" fill="#E07800"/>
<path d="M974.452 771.5C970.548 767.598 964.216 767.598 960.315 771.5C956.404 775.404 956.404 781.734 960.315 785.641C964.216 789.551 970.548 789.551 974.452 785.641C978.358 781.734 978.358 775.404 974.452 771.5Z" fill="#E07800"/>
<path d="M944.074 739.928C940.17 736.024 933.834 736.024 929.932 739.928C926.023 743.832 926.023 750.167 929.932 754.068C933.834 757.977 940.17 757.977 944.074 754.068C947.975 750.167 947.975 743.832 944.074 739.928Z" fill="#E07800"/>
<path d="M899.07 694.928C895.17 691.024 888.833 691.024 884.93 694.928C881.023 698.832 881.023 705.164 884.93 709.068C888.833 712.977 895.17 712.977 899.07 709.068C902.977 705.164 902.977 698.832 899.07 694.928Z" fill="#E07800"/>
<path d="M862.072 656.93C858.166 653.023 851.834 653.023 847.936 656.93C844.021 660.834 844.021 667.163 847.936 671.072C851.834 674.976 858.166 674.976 862.072 671.072C865.976 667.163 865.976 660.834 862.072 656.93Z" fill="#E07800"/>
<path d="M826.072 621.93C822.168 618.023 815.836 618.023 811.932 621.93C808.023 625.834 808.023 632.163 811.932 636.07C815.836 639.977 822.168 639.977 826.072 636.07C829.976 632.163 829.976 625.834 826.072 621.93Z" fill="#E07800"/>
<path d="M1422.07 546.93C1418.16 543.023 1411.84 543.023 1407.93 546.93C1404.02 550.831 1404.02 557.166 1407.93 561.07C1411.84 564.977 1418.16 564.977 1422.07 561.07C1425.98 557.166 1425.98 550.831 1422.07 546.93Z" fill="#E07800"/>
<path d="M1348.07 472.93C1344.16 469.023 1337.84 469.025 1333.93 472.927C1330.02 476.832 1330.02 483.165 1333.93 487.072C1337.84 490.976 1344.16 490.976 1348.07 487.069C1351.98 483.165 1351.98 476.834 1348.07 472.93Z" fill="#E07800"/>
<path d="M1309.07 430.93C1305.16 427.024 1298.83 427.024 1294.93 430.927C1291.02 434.834 1291.02 441.163 1294.93 445.07C1298.83 448.976 1305.16 448.976 1309.07 445.073C1312.98 441.163 1312.98 434.834 1309.07 430.93Z" fill="#E07800"/>
<path d="M1274.07 394.93C1270.16 391.023 1263.83 391.023 1259.93 394.93C1256.02 398.832 1256.02 405.168 1259.93 409.07C1263.83 412.977 1270.16 412.977 1274.07 409.07C1277.98 405.168 1277.98 398.832 1274.07 394.93Z" fill="#E07800"/>
<path d="M1124.07 920.928C1120.16 917.024 1113.83 917.024 1109.93 920.928C1106.02 924.832 1106.02 931.167 1109.93 935.068C1113.83 938.977 1120.16 938.977 1124.07 935.068C1127.98 931.167 1127.98 924.832 1124.07 920.928Z" fill="#E07800"/>
<path d="M1384.07 507.931C1380.16 504.024 1373.84 504.024 1369.93 507.928C1366.02 511.832 1366.02 518.165 1369.93 522.072C1373.84 525.976 1380.16 525.976 1384.07 522.069C1387.98 518.165 1387.98 511.832 1384.07 507.931Z" fill="#E07800"/>
<path d="M791 591C791 596.524 786.524 601 781.002 601C775.479 601 771 596.524 771 591C771 585.476 775.479 581 781.002 581C786.524 581 791 585.476 791 591Z" fill="#E07800"/>
<path d="M839 172C839 177.524 834.524 182 829.002 182C823.479 182 819 177.524 819 172C819 166.476 823.479 162 829.002 162C834.524 162 839 166.476 839 172Z" fill="#E07800"/>
<path d="M1666.07 577.926C1662.16 574.025 1655.83 574.025 1651.93 577.926C1648.02 581.834 1648.02 588.164 1651.93 592.072C1655.83 595.976 1662.16 595.976 1666.07 592.072C1669.98 588.164 1669.98 581.834 1666.07 577.926Z" fill="#E07800"/>
<path d="M1722 535C1722 540.524 1717.52 545 1712 545C1706.48 545 1702 540.524 1702 535C1702 529.476 1706.48 525 1712 525C1717.52 525 1722 529.476 1722 535Z" fill="#E07800"/>
<path d="M1466.14 576.855C1458.33 569.048 1445.66 569.048 1437.85 576.855C1430.05 584.667 1430.05 597.329 1437.85 605.141C1445.66 612.952 1458.33 612.952 1466.14 605.145C1473.96 597.329 1473.95 584.667 1466.14 576.855Z" fill="#E07800"/>
<path d="M1238.07 356.928C1234.16 353.024 1227.84 353.024 1223.93 356.928C1220.02 360.835 1220.02 367.165 1223.93 371.072C1227.84 374.976 1234.16 374.976 1238.07 371.072C1241.98 367.165 1241.98 360.835 1238.07 356.928Z" fill="#E07800"/>
<path d="M1191.32 406.444C1187.28 400.519 1178.71 400.519 1174.68 406.444C1172.44 409.735 1172.44 414.261 1174.68 417.552C1178.71 423.483 1187.28 423.483 1191.32 417.552C1193.56 414.261 1193.56 409.735 1191.32 406.444Z" fill="#E07800"/>
<path d="M1088.07 729.926C1084.17 726.025 1077.83 726.025 1073.93 729.926C1070.02 733.83 1070.02 740.163 1073.93 744.07C1077.83 747.977 1084.17 747.977 1088.07 744.07C1091.98 740.163 1091.98 733.83 1088.07 729.926Z" fill="#E07800"/>
<path d="M1144.07 674.926C1140.16 671.025 1133.83 671.025 1129.93 674.926C1126.02 678.83 1126.02 685.163 1129.93 689.07C1133.83 692.977 1140.16 692.977 1144.07 689.07C1147.98 685.163 1147.98 678.83 1144.07 674.926Z" fill="#E07800"/>
<path d="M1168.07 500.928C1164.17 497.024 1157.84 497.024 1153.93 500.928C1150.02 504.833 1150.02 511.166 1153.93 515.068C1157.84 518.977 1164.17 518.977 1168.07 515.068C1171.98 511.166 1171.98 504.833 1168.07 500.928Z" fill="#E07800"/>
<path d="M1205.07 538.928C1201.17 535.024 1194.84 535.024 1190.93 538.928C1187.02 542.83 1187.02 549.166 1190.93 553.068C1194.84 556.977 1201.17 556.977 1205.07 553.068C1208.98 549.166 1208.98 542.83 1205.07 538.928Z" fill="#E07800"/>
<path d="M1294.07 300.93C1290.16 297.023 1283.84 297.023 1279.93 300.93C1276.02 304.834 1276.02 311.166 1279.93 315.072C1283.84 318.976 1290.16 318.976 1294.07 315.072C1297.98 311.166 1297.98 304.834 1294.07 300.93Z" fill="#E07800"/>
<path d="M1341.07 253.928C1337.16 250.024 1330.83 250.024 1326.93 253.928C1323.02 257.835 1323.02 264.164 1326.93 268.068C1330.83 271.977 1337.16 271.977 1341.07 268.068C1344.98 264.164 1344.98 257.835 1341.07 253.928Z" fill="#E07800"/>
<path d="M1390 215C1390 220.524 1385.52 225 1380 225C1374.48 225 1370 220.524 1370 215C1370 209.476 1374.48 205 1380 205C1385.52 205 1390 209.476 1390 215Z" fill="#E07800"/>
<path d="M1437 169C1437 174.524 1432.52 179 1427 179C1421.48 179 1417 174.524 1417 169C1417 163.476 1421.48 159 1427 159C1432.52 159 1437 163.476 1437 169Z" fill="#E07800"/>
<path d="M1476 131C1476 136.524 1471.52 141 1466 141C1460.48 141 1456 136.524 1456 131C1456 125.476 1460.48 121 1466 121C1471.52 121 1476 125.476 1476 131Z" fill="#E07800"/>
<path d="M1514 94C1514 99.5236 1509.52 104 1504 104C1498.48 104 1494 99.5236 1494 94C1494 88.4764 1498.48 84 1504 84C1509.52 84 1514 88.4764 1514 94Z" fill="#E07800"/>
<path d="M1555 54C1555 59.5236 1550.52 64 1545 64C1539.48 64 1535 59.5236 1535 54C1535 48.4764 1539.48 44 1545 44C1550.52 44 1555 48.4764 1555 54Z" fill="#E07800"/>
<path d="M1598 10C1598 15.5236 1593.52 20 1588 20C1582.48 20 1578 15.5236 1578 10C1578 4.47639 1582.48 0 1588 0C1593.52 0 1598 4.47639 1598 10Z" fill="#E07800"/>
<path d="M1200.07 617.926C1196.16 614.025 1189.83 614.025 1185.93 617.926C1182.02 621.833 1182.02 628.163 1185.93 632.07C1189.83 635.977 1196.16 635.977 1200.07 632.07C1203.98 628.163 1203.98 621.833 1200.07 617.926Z" fill="#E07800"/>
<path d="M1810.62 1250.33L1111.78 549.286L1067.64 505.008L952.181 389.188C942.544 379.521 929.474 374.09 915.846 374.09H599.532C585.903 374.09 572.833 368.658 563.196 358.991L293.893 88.8415" stroke="#E07800" stroke-width="12.123" stroke-linecap="round" stroke-linejoin="round"/>
<path d="M1301.79 740.484L1291.85 750.459L1165.21 877.499C1158.52 884.21 1158.52 895.088 1165.21 901.799L1273.01 1009.95C1279.7 1016.66 1279.7 1027.54 1273.01 1034.25L1226.45 1080.96C1221.63 1085.79 1215.1 1088.5 1208.28 1088.5H1008.68" stroke="#E07800" stroke-width="12.123" stroke-linecap="round" stroke-linejoin="round"/>
<path d="M1711.94 104.338L1575.3 241.407C1568.61 248.118 1568.61 258.997 1575.3 265.708L1606.3 296.808C1612.99 303.518 1612.99 314.398 1606.3 321.108L1518.55 409.13C1511.86 415.84 1511.86 426.72 1518.55 433.43L1551.11 466.086C1557.8 472.796 1557.8 483.676 1551.11 490.387L1312.01 730.239L1301.54 740.735" stroke="#E07800" stroke-width="12.123" stroke-linecap="round" stroke-linejoin="round"/>
<path d="M453.47 508.812L451.25 514.993C446.75 527.426 444.5 540.31 444.5 553.643V736.643" stroke="#E07800" stroke-width="12.123" stroke-linecap="round" stroke-linejoin="round"/>
<path d="M10 602.143H318C344.667 602.143 367.533 592.643 386.6 573.643L591.35 374" stroke="#E07800" stroke-width="12.123" stroke-linecap="round" stroke-linejoin="round"/>
<path d="M829.242 172.235H1024.53C1031.35 172.235 1037.88 174.95 1042.7 179.784L1086.37 223.596L1524.16 662.752C1530.84 669.463 1530.84 680.342 1524.15 687.052L1212.61 999.561C1205.92 1006.27 1195.07 1006.27 1188.38 999.561L780.859 590.756" stroke="#E07800" stroke-width="12.123" stroke-linecap="round" stroke-linejoin="round"/>
<path d="M1451.71 590.083H1646.16C1652.97 590.083 1659.51 587.368 1664.33 582.534L1709.21 537.513" stroke="#E07800" stroke-width="12.123" stroke-linecap="round" stroke-linejoin="round"/>
<path d="M1004 815L1181.62 637.014L1201.75 616.842L1221.91 596.641C1228.65 589.889 1228.65 578.941 1221.91 572.189L1133.93 484.025C1127.19 477.274 1127.19 466.327 1133.93 459.575L1587.5 10.5" stroke="#E07800" stroke-width="12.123" stroke-linecap="round" stroke-linejoin="round"/>
</svg>
