<svg width="1537" height="1181" viewBox="0 0 1537 1181" fill="none" xmlns="http://www.w3.org/2000/svg">
<path d="M1534.07 1163.93C1530.16 1160.03 1523.84 1160.02 1519.93 1163.93C1516.02 1167.83 1516.02 1174.16 1519.93 1178.07C1523.84 1181.98 1530.16 1181.98 1534.07 1178.07C1537.98 1174.17 1537.97 1167.83 1534.07 1163.93Z" fill="#E07800"/>
<path d="M1496.07 1126.93C1492.16 1123.02 1485.83 1123.02 1481.93 1126.93C1478.02 1130.83 1478.02 1137.16 1481.93 1141.07C1485.83 1144.98 1492.16 1144.98 1496.07 1141.07C1499.98 1137.16 1499.98 1130.83 1496.07 1126.93Z" fill="#E07800"/>
<path d="M1458.07 1089.93C1454.16 1086.02 1447.84 1086.02 1443.93 1089.93C1440.02 1093.83 1440.02 1100.17 1443.93 1104.07C1447.84 1107.97 1454.16 1107.98 1458.07 1104.07C1461.98 1100.17 1461.98 1093.83 1458.07 1089.93Z" fill="#E07800"/>
<path d="M1282.07 911.931C1278.16 908.022 1271.84 908.025 1267.93 911.928C1264.02 915.834 1264.02 922.165 1267.93 926.074C1271.84 929.975 1278.16 929.977 1282.07 926.071C1285.98 922.165 1285.98 915.834 1282.07 911.931Z" fill="#E07800"/>
<path d="M764.596 394.002C760.691 390.094 754.364 390.097 750.459 394C746.551 397.906 746.551 404.237 750.459 408.145C754.364 412.046 760.691 412.049 764.596 408.143C768.506 404.237 768.506 397.908 764.596 394.002Z" fill="#E07800"/>
<path d="M801.597 431.002C797.692 427.094 791.364 427.094 787.459 431C783.553 434.906 783.553 441.237 787.459 445.145C791.364 449.046 797.692 449.048 801.597 445.142C805.507 441.237 805.507 434.906 801.597 431.002Z" fill="#E07800"/>
<path d="M676.068 303.931C672.163 300.022 665.835 300.025 661.93 303.928C658.023 307.834 658.023 314.165 661.93 318.074C665.835 321.975 672.163 321.977 676.068 318.071C679.977 314.165 679.977 307.836 676.068 303.931Z" fill="#E07800"/>
<path d="M542.298 288.315C538.393 284.407 532.065 284.407 528.16 288.312C524.253 292.218 524.253 298.549 528.16 302.457C532.065 306.358 538.393 306.361 542.298 302.455C546.207 298.549 546.207 292.218 542.298 288.315Z" fill="#E07800"/>
<path d="M386.068 287.931C382.163 284.023 375.835 284.023 371.93 287.929C368.023 291.835 368.023 298.166 371.93 302.074C375.835 305.975 382.163 305.977 386.068 302.071C389.977 298.166 389.977 291.835 386.068 287.931Z" fill="#E07800"/>
<path d="M278.068 264.931C274.163 261.023 267.835 261.023 263.93 264.929C260.023 268.835 260.023 275.166 263.93 279.074C267.835 282.975 274.163 282.977 278.068 279.071C281.977 275.166 281.977 268.835 278.068 264.931Z" fill="#E07800"/>
<path d="M245.068 231.931C241.161 228.022 234.835 228.025 230.93 231.928C227.023 235.834 227.023 242.165 230.93 246.074C234.835 249.975 241.161 249.977 245.068 246.071C248.977 242.165 248.977 235.836 245.068 231.931Z" fill="#E07800"/>
<path d="M174.068 158.931C170.163 155.023 163.835 155.023 159.93 158.929C156.023 162.835 156.023 169.166 159.93 173.074C163.835 176.975 170.163 176.977 174.068 173.071C177.977 169.166 177.977 162.835 174.068 158.931Z" fill="#E07800"/>
<path d="M123.068 109.931C119.163 106.023 112.835 106.023 108.93 109.929C105.023 113.835 105.023 120.166 108.93 124.074C112.835 127.975 119.163 127.977 123.068 124.071C126.977 120.166 126.977 113.835 123.068 109.931Z" fill="#E07800"/>
<path d="M59.6373 45.7717C55.7324 41.8636 49.4049 41.8636 45.5 45.7693C41.5927 49.675 41.5927 56.006 45.5 59.9141C49.4049 63.815 55.7324 63.8174 59.6373 59.9117C63.547 56.006 63.547 49.675 59.6373 45.7717Z" fill="#E07800"/>
<path d="M2.92832 2.92824C-0.975075 6.83737 -0.977138 13.1621 2.92832 17.0712C6.83171 20.9763 13.1634 20.9763 17.0709 17.0712C20.9764 13.1601 20.9764 6.83737 17.0709 2.92617C13.1654 -0.976767 6.83171 -0.974707 2.92832 2.92824Z" fill="#E07800"/>
<path d="M1216.07 462.928C1212.16 459.024 1205.83 459.024 1201.93 462.928C1198.02 466.835 1198.02 473.165 1201.93 477.072C1205.83 480.976 1212.16 480.976 1216.07 477.072C1219.98 473.165 1219.98 466.835 1216.07 462.928Z" fill="#E07800"/>
<path d="M1084.07 594.926C1080.17 591.025 1073.83 591.025 1069.93 594.926C1066.02 598.833 1066.02 605.168 1069.93 609.072C1073.83 612.976 1080.17 612.976 1084.07 609.072C1087.98 605.168 1087.98 598.833 1084.07 594.926Z" fill="#E07800"/>
<path d="M1121.07 557.928C1117.17 554.024 1110.83 554.024 1106.93 557.928C1103.02 561.834 1103.02 568.169 1106.93 572.072C1110.83 575.976 1117.17 575.976 1121.07 572.072C1124.98 568.169 1124.98 561.834 1121.07 557.928Z" fill="#E07800"/>
<path d="M991.068 687.928C987.164 684.024 980.838 684.024 976.926 687.928C973.025 691.833 973.025 698.166 976.926 702.074C980.838 705.975 987.164 705.975 991.068 702.074C994.977 698.166 994.977 691.833 991.068 687.928Z" fill="#E07800"/>
<path d="M954.068 724.93C950.167 721.023 943.833 721.023 939.93 724.93C936.023 728.831 936.023 735.166 939.93 739.072C943.833 742.976 950.167 742.976 954.068 739.072C957.977 735.166 957.977 728.831 954.068 724.93Z" fill="#E07800"/>
<path d="M917.07 762.928C913.163 759.024 906.831 759.024 902.93 762.928C899.023 766.83 899.023 773.166 902.93 777.074C906.831 780.975 913.163 780.975 917.07 777.074C920.977 773.166 920.977 766.83 917.07 762.928Z" fill="#E07800"/>
<path d="M1001.07 931.926C997.165 928.025 990.833 928.025 986.927 931.926C983.024 935.83 983.024 942.166 986.927 946.068C990.833 949.977 997.165 949.977 1001.07 946.068C1004.98 942.166 1004.98 935.83 1001.07 931.926Z" fill="#E07800"/>
<path d="M947.074 995.926C943.167 992.025 936.834 992.025 932.93 995.926C929.023 999.83 929.023 1006.17 932.93 1010.07C936.834 1013.98 943.167 1013.98 947.074 1010.07C950.975 1006.17 950.975 999.83 947.074 995.926Z" fill="#E07800"/>
<path d="M977.071 966.926C973.165 963.025 966.833 963.025 962.927 966.926C959.024 970.83 959.024 977.166 962.927 981.068C966.833 984.977 973.165 984.977 977.071 981.068C980.976 977.166 980.976 970.83 977.071 966.926Z" fill="#E07800"/>
<path d="M787.074 1002.93C783.167 999.025 776.834 999.025 772.93 1002.93C769.023 1006.83 769.023 1013.17 772.93 1017.07C776.834 1020.98 783.167 1020.98 787.074 1017.07C790.975 1013.17 790.975 1006.83 787.074 1002.93Z" fill="#E07800"/>
<path d="M840.07 1002.86C836.164 998.957 829.833 998.957 825.93 1002.86C822.023 1006.76 822.023 1013.1 825.93 1017C829.833 1020.91 836.164 1020.91 840.07 1017C843.977 1013.1 843.977 1006.76 840.07 1002.86Z" fill="#E07800"/>
<path d="M892.074 1002.93C888.167 999.025 881.834 999.025 877.93 1002.93C874.023 1006.83 874.023 1013.17 877.93 1017.07C881.834 1020.98 888.167 1020.98 892.074 1017.07C895.975 1013.17 895.975 1006.83 892.074 1002.93Z" fill="#E07800"/>
<path d="M1401.07 51.9282C1397.16 48.0239 1390.83 48.0239 1386.93 51.9282C1383.02 55.8353 1383.02 62.1654 1386.93 66.0697C1390.83 69.9768 1397.16 69.9768 1401.07 66.0697C1404.98 62.1654 1404.98 55.8353 1401.07 51.9282Z" fill="#E07800"/>
<path d="M1364.07 89.9297C1360.17 86.0234 1353.83 86.0234 1349.93 89.9297C1346.02 93.8332 1346.02 100.165 1349.93 104.068C1353.83 107.977 1360.17 107.977 1364.07 104.068C1367.98 100.165 1367.98 93.8332 1364.07 89.9297Z" fill="#E07800"/>
<path d="M1327.07 126.93C1323.17 123.023 1316.83 123.023 1312.93 126.93C1309.02 130.834 1309.02 137.166 1312.93 141.07C1316.83 144.977 1323.17 144.977 1327.07 141.07C1330.98 137.166 1330.98 130.834 1327.07 126.93Z" fill="#E07800"/>
<path d="M1297.07 163.928C1293.16 160.024 1286.84 160.024 1282.93 163.928C1279.02 167.834 1279.02 174.164 1282.93 178.07C1286.84 181.977 1293.16 181.977 1297.07 178.07C1300.98 174.164 1300.98 167.834 1297.07 163.928Z" fill="#E07800"/>
<path d="M1333.07 218.926C1329.16 215.025 1322.83 215.025 1318.93 218.926C1315.02 222.833 1315.02 229.163 1318.93 233.07C1322.83 236.977 1329.16 236.977 1333.07 233.07C1336.98 229.163 1336.98 222.833 1333.07 218.926Z" fill="#E07800"/>
<path d="M1308.07 256.928C1304.16 253.024 1297.84 253.024 1293.92 256.928C1290.03 260.835 1290.03 267.167 1293.92 271.068C1297.84 274.977 1304.16 274.977 1308.07 271.068C1311.98 267.167 1311.98 260.835 1308.07 256.928Z" fill="#E07800"/>
<path d="M1270.07 293.926C1266.17 290.025 1259.83 290.025 1255.93 293.926C1252.02 297.833 1252.02 304.166 1255.93 308.07C1259.83 311.977 1266.17 311.977 1270.07 308.07C1273.98 304.166 1273.98 297.833 1270.07 293.926Z" fill="#E07800"/>
<path d="M1240.07 331.93C1236.17 328.023 1229.83 328.023 1225.93 331.93C1222.02 335.834 1222.02 342.166 1225.93 346.072C1229.83 349.976 1236.17 349.976 1240.07 346.072C1243.98 342.166 1243.98 335.834 1240.07 331.93Z" fill="#E07800"/>
<path d="M1282.07 388.93C1278.16 385.023 1271.84 385.023 1267.93 388.93C1264.02 392.833 1264.02 399.162 1267.93 403.07C1271.84 406.977 1278.16 406.977 1282.07 403.07C1285.98 399.162 1285.98 392.833 1282.07 388.93Z" fill="#E07800"/>
<path d="M1253.07 425.926C1249.16 422.025 1242.83 422.025 1238.93 425.926C1235.02 429.831 1235.02 436.165 1238.93 440.069C1242.83 443.977 1249.16 443.977 1253.07 440.069C1256.98 436.165 1256.98 429.831 1253.07 425.926Z" fill="#E07800"/>
<path d="M738 1010C738 1015.52 733.524 1020 728.002 1020C722.479 1020 718 1015.52 718 1010C718 1004.48 722.479 1000 728.002 1000C733.524 1000 738 1004.48 738 1010Z" fill="#E07800"/>
<path d="M1431 33C1425.48 33 1421 28.5236 1421 23.0023C1421 17.4787 1425.48 13 1431 13C1436.52 13 1441 17.4787 1441 23.0023C1441 28.5236 1436.52 33 1431 33Z" fill="#E07800"/>
<path d="M1028.07 650.928C1024.16 647.024 1017.84 647.024 1013.93 650.928C1010.02 654.833 1010.02 661.166 1013.93 665.074C1017.84 668.975 1024.16 668.975 1028.07 665.074C1031.98 661.166 1031.98 654.833 1028.07 650.928Z" fill="#E07800"/>
<path d="M1205.07 642.928C1201.16 639.024 1194.84 639.024 1190.93 642.928C1187.02 646.835 1187.02 653.165 1190.93 657.072C1194.84 660.976 1201.16 660.976 1205.07 657.072C1208.98 653.165 1208.98 646.835 1205.07 642.928Z" fill="#E07800"/>
<path d="M1245 611.999C1245 606.476 1240.53 602 1235 602C1229.48 602.003 1225 606.476 1225 612.001C1225 617.524 1229.48 622 1235 622C1240.52 622 1245 617.524 1245 611.999Z" fill="#E07800"/>
<path d="M916.07 246.929C912.169 243.024 905.837 243.024 901.928 246.929C898.024 250.833 898.024 257.167 901.928 261.069C905.837 264.977 912.169 264.977 916.07 261.069C919.977 257.167 919.977 250.833 916.07 246.929Z" fill="#E07800"/>
<path d="M880.07 208.93C876.168 205.023 869.832 205.023 865.93 208.93C862.023 212.834 862.023 219.166 865.93 223.07C869.832 226.977 876.168 226.977 880.07 223.07C883.977 219.166 883.977 212.834 880.07 208.93Z" fill="#E07800"/>
<path d="M802.069 129.93C798.164 126.023 791.831 126.023 787.929 129.93C784.024 133.83 784.024 140.165 787.929 144.068C791.831 147.977 798.164 147.977 802.069 144.068C805.977 140.165 805.977 133.83 802.069 129.93Z" fill="#E07800"/>
<path d="M770.07 95.9282C766.171 92.0239 759.833 92.0239 755.932 95.9282C752.023 99.8353 752.023 106.165 755.932 110.07C759.833 113.977 766.171 113.977 770.07 110.07C773.977 106.165 773.977 99.8353 770.07 95.9282Z" fill="#E07800"/>
<path d="M1168.07 679.93C1164.16 676.023 1157.83 676.023 1153.93 679.93C1150.02 683.833 1150.02 690.165 1153.93 694.068C1157.83 697.977 1164.16 697.977 1168.07 694.068C1171.98 690.165 1171.98 683.833 1168.07 679.93Z" fill="#E07800"/>
<path d="M1011.07 837.928C1007.16 834.024 1000.83 834.024 996.928 837.928C993.024 841.832 993.024 848.164 996.928 852.068C1000.83 855.977 1007.16 855.977 1011.07 852.068C1014.98 848.164 1014.98 841.832 1011.07 837.928Z" fill="#E07800"/>
<path d="M896.07 897.928C892.164 894.024 885.835 894.024 881.932 897.928C878.023 901.834 878.023 908.164 881.932 912.07C885.835 915.977 892.164 915.977 896.07 912.07C899.977 908.164 899.977 901.834 896.07 897.928Z" fill="#E07800"/>
<path d="M782.072 782.928C778.168 779.024 771.833 779.024 767.932 782.928C764.023 786.835 764.023 793.165 767.932 797.072C771.833 800.976 778.168 800.976 782.072 797.072C785.976 793.165 785.976 786.835 782.072 782.928Z" fill="#E07800"/>
<path d="M690.452 692.5C686.548 688.598 680.216 688.598 676.315 692.5C672.404 696.404 672.404 702.734 676.315 706.641C680.216 710.551 686.548 710.551 690.452 706.641C694.358 702.734 694.358 696.404 690.452 692.5Z" fill="#E07800"/>
<path d="M660.074 660.928C656.17 657.024 649.834 657.024 645.932 660.928C642.023 664.832 642.023 671.167 645.932 675.068C649.834 678.977 656.17 678.977 660.074 675.068C663.975 671.167 663.975 664.832 660.074 660.928Z" fill="#E07800"/>
<path d="M615.07 615.928C611.17 612.024 604.833 612.024 600.93 615.928C597.023 619.832 597.023 626.164 600.93 630.068C604.833 633.977 611.17 633.977 615.07 630.068C618.977 626.164 618.977 619.832 615.07 615.928Z" fill="#E07800"/>
<path d="M578.072 577.93C574.166 574.023 567.834 574.023 563.936 577.93C560.021 581.834 560.021 588.163 563.936 592.072C567.834 595.976 574.166 595.976 578.072 592.072C581.976 588.163 581.976 581.834 578.072 577.93Z" fill="#E07800"/>
<path d="M542.072 542.93C538.168 539.023 531.836 539.023 527.932 542.93C524.023 546.834 524.023 553.163 527.932 557.07C531.836 560.977 538.168 560.977 542.072 557.07C545.976 553.163 545.976 546.834 542.072 542.93Z" fill="#E07800"/>
<path d="M1138.07 467.93C1134.16 464.023 1127.84 464.023 1123.93 467.93C1120.02 471.831 1120.02 478.166 1123.93 482.07C1127.84 485.977 1134.16 485.977 1138.07 482.07C1141.98 478.166 1141.98 471.831 1138.07 467.93Z" fill="#E07800"/>
<path d="M1064.07 393.93C1060.16 390.023 1053.84 390.025 1049.93 393.927C1046.02 397.832 1046.02 404.165 1049.93 408.072C1053.84 411.976 1060.16 411.976 1064.07 408.069C1067.98 404.165 1067.98 397.834 1064.07 393.93Z" fill="#E07800"/>
<path d="M1025.07 351.93C1021.16 348.024 1014.83 348.024 1010.93 351.927C1007.02 355.834 1007.02 362.163 1010.93 366.07C1014.83 369.976 1021.16 369.976 1025.07 366.073C1028.98 362.163 1028.98 355.834 1025.07 351.93Z" fill="#E07800"/>
<path d="M990.07 315.93C986.164 312.023 979.833 312.023 975.93 315.93C972.023 319.832 972.023 326.168 975.93 330.07C979.833 333.977 986.164 333.977 990.07 330.07C993.977 326.168 993.977 319.832 990.07 315.93Z" fill="#E07800"/>
<path d="M840.07 841.928C836.164 838.024 829.834 838.024 825.928 841.928C822.024 845.832 822.024 852.167 825.928 856.068C829.834 859.977 836.164 859.977 840.07 856.068C843.977 852.167 843.977 845.832 840.07 841.928Z" fill="#E07800"/>
<path d="M1100.07 428.931C1096.16 425.024 1089.84 425.024 1085.93 428.928C1082.02 432.832 1082.02 439.165 1085.93 443.072C1089.84 446.976 1096.16 446.976 1100.07 443.069C1103.98 439.165 1103.98 432.832 1100.07 428.931Z" fill="#E07800"/>
<path d="M507 512C507 517.524 502.524 522 497.002 522C491.479 522 487 517.524 487 512C487 506.476 491.479 502 497.002 502C502.524 502 507 506.476 507 512Z" fill="#E07800"/>
<path d="M555 93C555 98.5236 550.524 103 545.002 103C539.479 103 535 98.5236 535 93C535 87.4764 539.479 83 545.002 83C550.524 83 555 87.4764 555 93Z" fill="#E07800"/>
<path d="M1382.07 498.926C1378.16 495.025 1371.83 495.025 1367.93 498.926C1364.02 502.834 1364.02 509.164 1367.93 513.072C1371.83 516.976 1378.16 516.976 1382.07 513.072C1385.98 509.164 1385.98 502.834 1382.07 498.926Z" fill="#E07800"/>
<path d="M1438 456C1438 461.524 1433.52 466 1428 466C1422.48 466 1418 461.524 1418 456C1418 450.476 1422.48 446 1428 446C1433.52 446 1438 450.476 1438 456Z" fill="#E07800"/>
<path d="M1182.14 497.855C1174.33 490.048 1161.66 490.048 1153.85 497.855C1146.05 505.667 1146.05 518.329 1153.85 526.141C1161.66 533.952 1174.33 533.952 1182.14 526.145C1189.96 518.329 1189.95 505.667 1182.14 497.855Z" fill="#E07800"/>
<path d="M954.07 277.928C950.164 274.024 943.835 274.024 939.932 277.928C936.023 281.835 936.023 288.165 939.932 292.072C943.835 295.976 950.164 295.976 954.07 292.072C957.977 288.165 957.977 281.835 954.07 277.928Z" fill="#E07800"/>
<path d="M907.319 327.444C903.285 321.519 894.711 321.519 890.68 327.444C888.439 330.735 888.442 335.261 890.678 338.552C894.709 344.483 903.285 344.483 907.321 338.552C909.56 335.261 909.56 330.735 907.319 327.444Z" fill="#E07800"/>
<path d="M804.072 650.926C800.166 647.025 793.834 647.025 789.93 650.926C786.023 654.83 786.023 661.163 789.93 665.07C793.834 668.977 800.166 668.977 804.072 665.07C807.976 661.163 807.976 654.83 804.072 650.926Z" fill="#E07800"/>
<path d="M860.07 595.926C856.164 592.025 849.834 592.025 845.928 595.926C842.024 599.83 842.024 606.163 845.928 610.07C849.834 613.977 856.164 613.977 860.07 610.07C863.977 606.163 863.977 599.83 860.07 595.926Z" fill="#E07800"/>
<path d="M884.074 421.928C880.167 418.024 873.836 418.024 869.926 421.928C866.025 425.833 866.025 432.166 869.926 436.068C873.836 439.977 880.167 439.977 884.074 436.068C887.975 432.166 887.975 425.833 884.074 421.928Z" fill="#E07800"/>
<path d="M921.074 459.928C917.166 456.024 910.836 456.024 906.928 459.928C903.024 463.83 903.024 470.166 906.928 474.068C910.836 477.977 917.166 477.977 921.074 474.068C924.975 470.166 924.975 463.83 921.074 459.928Z" fill="#E07800"/>
<path d="M1010.07 221.93C1006.16 218.023 999.836 218.023 995.93 221.93C992.023 225.834 992.023 232.166 995.93 236.072C999.836 239.976 1006.16 239.976 1010.07 236.072C1013.98 232.166 1013.98 225.834 1010.07 221.93Z" fill="#E07800"/>
<path d="M1057.07 174.928C1053.16 171.024 1046.83 171.024 1042.93 174.928C1039.02 178.835 1039.02 185.164 1042.93 189.068C1046.83 192.977 1053.16 192.977 1057.07 189.068C1060.98 185.164 1060.98 178.835 1057.07 174.928Z" fill="#E07800"/>
<path d="M1106 136C1106 141.524 1101.52 146 1096 146C1090.48 146 1086 141.524 1086 136C1086 130.476 1090.48 126 1096 126C1101.52 126 1106 130.476 1106 136Z" fill="#E07800"/>
<path d="M916.07 538.926C912.164 535.025 905.835 535.025 901.926 538.926C898.025 542.833 898.025 549.163 901.926 553.07C905.835 556.977 912.164 556.977 916.07 553.07C919.977 549.163 919.977 542.833 916.07 538.926Z" fill="#E07800"/>
<path d="M1526.62 1171.33L827.777 470.286L783.638 426.008L668.181 310.188C658.544 300.521 645.474 295.09 631.846 295.09H315.532C301.903 295.09 288.833 289.658 279.196 279.991L9.89343 9.84147" stroke="#E07800" stroke-width="12.123" stroke-linecap="round" stroke-linejoin="round"/>
<path d="M1017.79 661.484L1007.85 671.459L881.209 798.499C874.519 805.21 874.519 816.088 881.209 822.799L989.015 930.946C995.704 937.656 995.704 948.536 989.015 955.245L942.453 1001.96C937.634 1006.79 931.098 1009.5 924.284 1009.5H724.679" stroke="#E07800" stroke-width="12.123" stroke-linecap="round" stroke-linejoin="round"/>
<path d="M1427.94 25.3376L1291.3 162.407C1284.61 169.118 1284.61 179.997 1291.3 186.708L1322.3 217.808C1328.99 224.518 1328.99 235.398 1322.3 242.108L1234.55 330.13C1227.86 336.84 1227.86 347.72 1234.55 354.43L1267.11 387.086C1273.8 393.796 1273.8 404.676 1267.11 411.387L1028.01 651.239L1017.54 661.735" stroke="#E07800" stroke-width="12.123" stroke-linecap="round" stroke-linejoin="round"/>
<path d="M545.242 93.235H740.532C747.346 93.235 753.882 95.9501 758.7 100.784L802.373 144.596L1240.16 583.752C1246.84 590.463 1246.84 601.342 1240.15 608.052L928.607 920.561C921.917 927.271 911.072 927.271 904.383 920.561L496.859 511.756" stroke="#E07800" stroke-width="12.123" stroke-linecap="round" stroke-linejoin="round"/>
<path d="M1167.71 511.083H1362.16C1368.97 511.083 1375.51 508.368 1380.33 503.534L1425.21 458.513" stroke="#E07800" stroke-width="12.123" stroke-linecap="round" stroke-linejoin="round"/>
<path d="M720.051 735.651L896.389 558.758L916.375 538.71L936.389 518.633C943.078 511.923 943.078 501.042 936.389 494.332L849.042 406.709C842.352 399.999 842.352 389.12 849.042 382.409L1093.33 137.349" stroke="#E07800" stroke-width="12.123" stroke-linecap="round" stroke-linejoin="round"/>
</svg>
