<svg xmlns="http://www.w3.org/2000/svg" viewBox="0 0 420 75" fill="none">
  <!-- Construction props: cone, helmet, barricade — flush to bottom edge -->

  <!-- Traffic Cone (left) — scaled 0.7x, bottom stays at y=75 -->
  <g data-prop="cone" transform="translate(10, 29.5) scale(0.7)">
    <path d="M22,8 L32,58 L12,58 Z" fill="#E07800"/>
    <rect x="17" y="22" width="10" height="4" rx="1" fill="#ddd" transform="rotate(-2, 22, 24)"/>
    <rect x="15" y="36" width="14" height="4" rx="1" fill="#ddd" transform="rotate(-1, 22, 38)"/>
    <rect x="4" y="58" width="36" height="7" rx="2" fill="#222"/>
    <rect x="6" y="59" width="32" height="2" rx="1" fill="#333"/>
  </g>

  <!-- Construction Helmet (center) — scaled 0.5x for realistic size beside barricade -->
  <g data-prop="helmet" transform="translate(150, 53) scale(0.5)">
    <path d="M5,42 Q5,10 32,6 Q60,10 60,42 Z" fill="#FFB627"/>
    <path d="M15,38 Q15,18 32,14 Q42,16 45,30" fill="none" stroke="#FFD060" stroke-width="1.5" opacity="0.5"/>
    <path d="M0,40 Q0,42 3,44 L62,44 Q65,42 65,40 L60,38 L5,38 Z" fill="#E6A020"/>
    <path d="M8,42 L57,42 L55,44 L10,44 Z" fill="#CC8800" opacity="0.4"/>
    <path d="M32,6 L32,38" stroke="#E6A020" stroke-width="2" opacity="0.6"/>
  </g>

  <!-- Warning Sign (center) — railroad crossing diamond (inline) -->
  <g data-prop="sign" transform="translate(75, 5)">
    <!-- Sign head — nested SVG scales from 631x640 to 48x48 -->
    <svg x="1" y="-2" width="48" height="48" viewBox="0 0 631 640">
      <rect x="38" y="320.893" width="393" height="393" rx="10" transform="rotate(-45 38 320.893)" fill="#FFE01B"/>
      <rect x="54.0711" y="320.701" width="370" height="370" rx="5" transform="rotate(-45 54.0711 320.701)" stroke="black" stroke-width="10"/>
      <rect x="297" y="160" width="38" height="322" fill="black"/>
      <rect x="152" y="283" width="328" height="26" fill="black"/>
      <rect x="152" y="333" width="328" height="26" fill="black"/>
      <rect x="401" y="264" width="33" height="19" fill="black"/>
      <rect x="401" y="359" width="33" height="19" fill="black"/>
      <rect x="352" y="264" width="33" height="19" fill="black"/>
      <rect x="352" y="359" width="33" height="19" fill="black"/>
      <rect x="248" y="264" width="33" height="19" fill="black"/>
      <rect x="248" y="359" width="33" height="19" fill="black"/>
      <rect x="199" y="359" width="33" height="19" fill="black"/>
      <rect x="199" y="264" width="33" height="19" fill="black"/>
      <rect x="409" y="309" width="17" height="24" fill="black"/>
      <rect x="360" y="309" width="17" height="24" fill="black"/>
      <rect x="255" y="309" width="17" height="24" fill="black"/>
      <rect x="207" y="309" width="17" height="24" fill="black"/>
    </svg>
    <!-- Post -->
    <line x1="25" y1="44" x2="25" y2="68" stroke="#555" stroke-width="3.5" stroke-linecap="round"/>
    <!-- Base plate -->
    <rect x="17" y="66" width="16" height="4" rx="1" fill="#444"/>
  </g>

  <!-- Barricade (right) — yellow & black diagonal stripes -->
  <g data-prop="barricade" transform="translate(220, 0)">
    <rect x="0" y="18" width="130" height="14" rx="2" fill="#FFB627"/>
    <g>
      <defs>
        <clipPath id="bar-clip">
          <rect x="0" y="18" width="130" height="14" rx="2"/>
        </clipPath>
      </defs>
      <g clip-path="url(#bar-clip)">
        <line x1="-2" y1="32" x2="12" y2="18" stroke="#111" stroke-width="6"/>
        <line x1="12" y1="32" x2="26" y2="18" stroke="#111" stroke-width="6"/>
        <line x1="26" y1="32" x2="40" y2="18" stroke="#111" stroke-width="6"/>
        <line x1="40" y1="32" x2="54" y2="18" stroke="#111" stroke-width="6"/>
        <line x1="54" y1="32" x2="68" y2="18" stroke="#111" stroke-width="6"/>
        <line x1="68" y1="32" x2="82" y2="18" stroke="#111" stroke-width="6"/>
        <line x1="82" y1="32" x2="96" y2="18" stroke="#111" stroke-width="6"/>
        <line x1="96" y1="32" x2="110" y2="18" stroke="#111" stroke-width="6"/>
        <line x1="110" y1="32" x2="124" y2="18" stroke="#111" stroke-width="6"/>
        <line x1="124" y1="32" x2="138" y2="18" stroke="#111" stroke-width="6"/>
      </g>
    </g>
    <rect x="0" y="16" width="130" height="3" rx="1" fill="#E6A020"/>
    <line x1="18" y1="32" x2="8" y2="73" stroke="#555" stroke-width="4" stroke-linecap="round"/>
    <line x1="18" y1="32" x2="28" y2="73" stroke="#555" stroke-width="4" stroke-linecap="round"/>
    <line x1="112" y1="32" x2="102" y2="73" stroke="#555" stroke-width="4" stroke-linecap="round"/>
    <line x1="112" y1="32" x2="122" y2="73" stroke="#555" stroke-width="4" stroke-linecap="round"/>
    <line x1="12" y1="54" x2="24" y2="54" stroke="#444" stroke-width="2"/>
    <line x1="106" y1="54" x2="118" y2="54" stroke="#444" stroke-width="2"/>
    <rect x="5" y="71" width="8" height="4" rx="1" fill="#444"/>
    <rect x="25" y="71" width="8" height="4" rx="1" fill="#444"/>
    <rect x="99" y="71" width="8" height="4" rx="1" fill="#444"/>
    <rect x="119" y="71" width="8" height="4" rx="1" fill="#444"/>
  </g>
</svg>
