<svg xmlns="http://www.w3.org/2000/svg" viewBox="0 0 1000 1000" fill="none">
  <!-- High-Speed Train — Figma nose design, construction prop style -->
  <!-- Shared 1000x1000 viewBox. Uniform scale 4x, centered vertically. -->
  <g transform="translate(0,356) scale(4)">
<path id="t-body" d="M15 57C15 42.9061 20.5 39.4061 58 29.9061C61.3761 29.9061 84.6058 12 90.0077 12H227.754C230.454 12 232.48 12.6977 233.831 14.093V54.907C232.48 56.3023 230.454 57 227.754 57H90.0077C84.6058 57 80.2169 57 76.8407 57C53.3308 56 28.5 57 15 57Z" fill="#FFB627"/>
<path id="t-bogie-f" d="M55 59H83V66H55V59Z" fill="#333333"/>
<path d="M57 62H81" stroke="#444444" stroke-width="0.6"/>
<path d="M58 66C58 64.9391 58.4214 63.9217 59.1716 63.1716C59.9217 62.4214 60.9391 62 62 62C63.0609 62 64.0783 62.4214 64.8284 63.1716C65.5786 63.9217 66 64.9391 66 66C66 67.0609 65.5786 68.0783 64.8284 68.8284C64.0783 69.5786 63.0609 70 62 70C60.9391 70 59.9217 69.5786 59.1716 68.8284C58.4214 68.0783 58 67.0609 58 66Z" fill="#222222" stroke="#444444" stroke-width="0.8"/>
<path d="M72 66C72 64.9391 72.4214 63.9217 73.1716 63.1716C73.9217 62.4214 74.9391 62 76 62C77.0609 62 78.0783 62.4214 78.8284 63.1716C79.5786 63.9217 80 64.9391 80 66C80 67.0609 79.5786 68.0783 78.8284 68.8284C78.0783 69.5786 77.0609 70 76 70C74.9391 70 73.9217 69.5786 73.1716 68.8284C72.4214 68.0783 72 67.0609 72 66Z" fill="#222222" stroke="#444444" stroke-width="0.8"/>
<path d="M61 66C61 65.7348 61.1054 65.4804 61.2929 65.2929C61.4804 65.1054 61.7348 65 62 65C62.2652 65 62.5196 65.1054 62.7071 65.2929C62.8946 65.4804 63 65.7348 63 66C63 66.2652 62.8946 66.5196 62.7071 66.7071C62.5196 66.8946 62.2652 67 62 67C61.7348 67 61.4804 66.8946 61.2929 66.7071C61.1054 66.5196 61 66.2652 61 66Z" fill="#555555"/>
<path d="M75 66C75 65.7348 75.1054 65.4804 75.2929 65.2929C75.4804 65.1054 75.7348 65 76 65C76.2652 65 76.5196 65.1054 76.7071 65.2929C76.8946 65.4804 77 65.7348 77 66C77 66.2652 76.8946 66.5196 76.7071 66.7071C76.5196 66.8946 76.2652 67 76 67C75.7348 67 75.4804 66.8946 75.2929 66.7071C75.1054 66.5196 75 66.2652 75 66Z" fill="#555555"/>
<path d="M61 59V57" stroke="#555555" stroke-width="1.2" stroke-linecap="round"/>
<path d="M77 59V57" stroke="#555555" stroke-width="1.2" stroke-linecap="round"/>
<path id="t-bogie-r" d="M163 59H191V66H163V59Z" fill="#333333"/>
<path d="M165 62H189" stroke="#444444" stroke-width="0.6"/>
<path d="M166 66C166 64.9391 166.421 63.9217 167.172 63.1716C167.922 62.4214 168.939 62 170 62C171.061 62 172.078 62.4214 172.828 63.1716C173.579 63.9217 174 64.9391 174 66C174 67.0609 173.579 68.0783 172.828 68.8284C172.078 69.5786 171.061 70 170 70C168.939 70 167.922 69.5786 167.172 68.8284C166.421 68.0783 166 67.0609 166 66Z" fill="#222222" stroke="#444444" stroke-width="0.8"/>
<path d="M180 66C180 64.9391 180.421 63.9217 181.172 63.1716C181.922 62.4214 182.939 62 184 62C185.061 62 186.078 62.4214 186.828 63.1716C187.579 63.9217 188 64.9391 188 66C188 67.0609 187.579 68.0783 186.828 68.8284C186.078 69.5786 185.061 70 184 70C182.939 70 181.922 69.5786 181.172 68.8284C180.421 68.0783 180 67.0609 180 66Z" fill="#222222" stroke="#444444" stroke-width="0.8"/>
<path d="M169 66C169 65.7348 169.105 65.4804 169.293 65.2929C169.48 65.1054 169.735 65 170 65C170.265 65 170.52 65.1054 170.707 65.2929C170.895 65.4804 171 65.7348 171 66C171 66.2652 170.895 66.5196 170.707 66.7071C170.52 66.8946 170.265 67 170 67C169.735 67 169.48 66.8946 169.293 66.7071C169.105 66.5196 169 66.2652 169 66Z" fill="#555555"/>
<path d="M183 66C183 65.7348 183.105 65.4804 183.293 65.2929C183.48 65.1054 183.735 65 184 65C184.265 65 184.52 65.1054 184.707 65.2929C184.895 65.4804 185 65.7348 185 66C185 66.2652 184.895 66.5196 184.707 66.7071C184.52 66.8946 184.265 67 184 67C183.735 67 183.48 66.8946 183.293 66.7071C183.105 66.5196 183 66.2652 183 66Z" fill="#555555"/>
<path d="M169 59V57" stroke="#555555" stroke-width="1.2" stroke-linecap="round"/>
<path d="M185 59V57" stroke="#555555" stroke-width="1.2" stroke-linecap="round"/>
<path id="t-skirt" d="M83 55H163V59H83V59Z" fill="#444444"/>
<path d="M83 57H163" stroke="#555555" stroke-width="0.5"/>
<path d="M93 57H113V59H93V57Z" fill="#333333" stroke="#555555" stroke-width="0.3"/>
<path d="M131 57H149V59H131V57Z" fill="#333333" stroke="#555555" stroke-width="0.3"/>
<!-- Windshield -->
<path id="t-window" d="M58 30C62 26 72 18 82 14Q86 13 90 13H95V28H85C75 28 64 29 58 30Z" fill="#87CEEB" opacity="0.5" stroke="#E6A020" stroke-width="0.7"/>
<path d="M72 17L78 28" stroke="#E6A020" stroke-width="0.5"/>
<path d="M64 26Q68 22 74 19" stroke="#fff" stroke-width="0.6" opacity="0.3" fill="none" stroke-linecap="round"/>
<!-- Passenger windows -->
<path opacity="0.4" d="M97 30H105V38H97V30Z" fill="#87CEEB" stroke="#E6A020" stroke-width="0.4"/>
<path opacity="0.4" d="M109 30H117V38H109V30Z" fill="#87CEEB" stroke="#E6A020" stroke-width="0.4"/>
<path opacity="0.4" d="M137 30H145V38H137V30Z" fill="#87CEEB" stroke="#E6A020" stroke-width="0.4"/>
<path opacity="0.4" d="M149 30H157V38H149V30Z" fill="#87CEEB" stroke="#E6A020" stroke-width="0.4"/>
<path opacity="0.4" d="M161 30H169V38H161V30Z" fill="#87CEEB" stroke="#E6A020" stroke-width="0.4"/>
<path opacity="0.4" d="M173 30H181V38H173V30Z" fill="#87CEEB" stroke="#E6A020" stroke-width="0.4"/>
<path opacity="0.4" d="M199 30H207V38H199V30Z" fill="#87CEEB" stroke="#E6A020" stroke-width="0.4"/>
<path opacity="0.4" d="M211 30H219V38H211V30Z" fill="#87CEEB" stroke="#E6A020" stroke-width="0.4"/>
<path id="t-door-1" opacity="0.12" d="M121 16H133V56H121V16Z" fill="#E6A020"/>
<path d="M121 16V56" stroke="#CC8800" stroke-width="0.6"/>
<path d="M133 16V56" stroke="#CC8800" stroke-width="0.6"/>
<path d="M127 16V56" stroke="#CC8800" stroke-width="0.4"/>
<path opacity="0.5" d="M123 30H131V40H123V30Z" fill="#87CEEB" stroke="#E6A020" stroke-width="0.5"/>
<path d="M129 44H131V48H129V44Z" fill="#CC8800"/>
<path d="M123 44H125V48H123V44Z" fill="#CC8800"/>
<path opacity="0.6" d="M120 16H121V56H120V16Z" fill="#FFD060"/>
<path opacity="0.6" d="M133 16H134V56H133V16Z" fill="#FFD060"/>
<path opacity="0.4" d="M122 54H132V56H122V54Z" fill="#FFD060"/>
<path id="t-door-2" opacity="0.12" d="M187 16H199V56H187V16Z" fill="#E6A020"/>
<path d="M187 16V56" stroke="#CC8800" stroke-width="0.6"/>
<path d="M199 16V56" stroke="#CC8800" stroke-width="0.6"/>
<path d="M193 16V56" stroke="#CC8800" stroke-width="0.4"/>
<path opacity="0.5" d="M189 30H197V40H189V30Z" fill="#87CEEB" stroke="#E6A020" stroke-width="0.5"/>
<path d="M195 44H197V48H195V44Z" fill="#CC8800"/>
<path d="M189 44H191V48H189V44Z" fill="#CC8800"/>
<path opacity="0.6" d="M186 16H187V56H186V16Z" fill="#FFD060"/>
<path opacity="0.6" d="M199 16H200V56H199V16Z" fill="#FFD060"/>
<path opacity="0.4" d="M188 54H198V56H188V54Z" fill="#FFD060"/>
<path opacity="0.35" d="M91 42H233" stroke="#E6A020" stroke-width="0.5"/>
<path opacity="0.3" d="M91 50H233" stroke="#E6A020" stroke-width="0.5"/>
<path opacity="0.2" d="M103 15V56" stroke="#E6A020" stroke-width="0.3"/>
<path opacity="0.2" d="M121 15V56" stroke="#E6A020" stroke-width="0.3"/>
<path opacity="0.2" d="M153 15V56" stroke="#E6A020" stroke-width="0.3"/>
<path opacity="0.2" d="M187 15V56" stroke="#E6A020" stroke-width="0.3"/>
<path opacity="0.2" d="M213 15V56" stroke="#E6A020" stroke-width="0.3"/>
<path id="t-hazard" d="M91 53H227V56H91V53Z" fill="#FFB627"/>
<path d="M91 56L94 53" stroke="#111111" stroke-width="1.3"/>
<path d="M98 56L101 53" stroke="#111111" stroke-width="1.3"/>
<path d="M105 56L108 53" stroke="#111111" stroke-width="1.3"/>
<path d="M112 56L115 53" stroke="#111111" stroke-width="1.3"/>
<path d="M119 56L122 53" stroke="#111111" stroke-width="1.3"/>
<path d="M126 56L129 53" stroke="#111111" stroke-width="1.3"/>
<path d="M133 56L136 53" stroke="#111111" stroke-width="1.3"/>
<path d="M140 56L143 53" stroke="#111111" stroke-width="1.3"/>
<path d="M147 56L150 53" stroke="#111111" stroke-width="1.3"/>
<path d="M154 56L157 53" stroke="#111111" stroke-width="1.3"/>
<path d="M161 56L164 53" stroke="#111111" stroke-width="1.3"/>
<path d="M168 56L171 53" stroke="#111111" stroke-width="1.3"/>
<path d="M175 56L178 53" stroke="#111111" stroke-width="1.3"/>
<path d="M182 56L185 53" stroke="#111111" stroke-width="1.3"/>
<path d="M189 56L192 53" stroke="#111111" stroke-width="1.3"/>
<path d="M196 56L199 53" stroke="#111111" stroke-width="1.3"/>
<path d="M203 56L206 53" stroke="#111111" stroke-width="1.3"/>
<path d="M210 56L213 53" stroke="#111111" stroke-width="1.3"/>
<path d="M217 56L220 53" stroke="#111111" stroke-width="1.3"/>
<path d="M224 56L227 53" stroke="#111111" stroke-width="1.3"/>
<path id="t-roof" opacity="0.2" d="M91 15H227V16H91V15Z" fill="#FFD060"/>
<path d="M95 11H118V15H95V11Z" fill="#444444"/>
<path d="M97 11V15" stroke="#555555" stroke-width="0.4"/>
<path d="M101 11V15" stroke="#555555" stroke-width="0.4"/>
<path d="M105 11V15" stroke="#555555" stroke-width="0.4"/>
<path d="M109 11V15" stroke="#555555" stroke-width="0.4"/>
<path d="M113 11V15" stroke="#555555" stroke-width="0.4"/>
<path d="M95 11H118V11.8H95V11Z" fill="#555555"/>
<path d="M173 11H196V15H173V11Z" fill="#444444"/>
<path d="M175 11V15" stroke="#555555" stroke-width="0.4"/>
<path d="M179 11V15" stroke="#555555" stroke-width="0.4"/>
<path d="M183 11V15" stroke="#555555" stroke-width="0.4"/>
<path d="M187 11V15" stroke="#555555" stroke-width="0.4"/>
<path d="M191 11V15" stroke="#555555" stroke-width="0.4"/>
<path d="M173 11H196V11.8H173V11Z" fill="#555555"/>
<path d="M141 11H155V13H141V11Z" fill="#555555"/>
<path d="M143 11C143 10.7348 143.105 10.4804 143.293 10.2929C143.48 10.1054 143.735 10 144 10C144.265 10 144.52 10.1054 144.707 10.2929C144.895 10.4804 145 10.7348 145 11C145 11.2652 144.895 11.5196 144.707 11.7071C144.52 11.8946 144.265 12 144 12C143.735 12 143.48 11.8946 143.293 11.7071C143.105 11.5196 143 11.2652 143 11Z" fill="#E07800"/>
<path d="M151 11C151 10.7348 151.105 10.4804 151.293 10.2929C151.48 10.1054 151.735 10 152 10C152.265 10 152.52 10.1054 152.707 10.2929C152.895 10.4804 153 10.7348 153 11C153 11.2652 152.895 11.5196 152.707 11.7071C152.52 11.8946 152.265 12 152 12C151.735 12 151.48 11.8946 151.293 11.7071C151.105 11.5196 151 11.2652 151 11Z" fill="#E07800"/>
<path d="M144 11L140 4" stroke="#444444" stroke-width="1.5" stroke-linecap="round"/>
<path d="M152 11L156 4" stroke="#444444" stroke-width="1.5" stroke-linecap="round"/>
<path d="M140 4H156" stroke="#444444"/>
<path d="M142 4L138 1" stroke="#444444" stroke-linecap="round"/>
<path d="M154 4L158 1" stroke="#444444" stroke-linecap="round"/>
<path id="t-panto-strip" d="M134 0H162V2H134V0Z" fill="#333333" stroke="#555555" stroke-width="0.5"/>
<path d="M146 8C147.333 6.66667 148.667 6.66667 150 8" stroke="#666666" stroke-width="0.6"/>
<path opacity="0.7" d="M229 20H233V26H229V20Z" fill="#E07800"/>
<path opacity="0.6" d="M230 21H232V25H230V21Z" fill="#FF4444"/>
<path id="t-coupling" d="M233 34H238V44H233V34Z" fill="#444444"/>
<path d="M235 36H238V42H235V36Z" fill="#333333"/>
<path d="M236 38C236 37.7348 236.105 37.4804 236.293 37.2929C236.48 37.1054 236.735 37 237 37C237.265 37 237.52 37.1054 237.707 37.2929C237.895 37.4804 238 37.7348 238 38C238 38.2652 237.895 38.5196 237.707 38.7071C237.52 38.8946 237.265 39 237 39C236.735 39 236.48 38.8946 236.293 38.7071C236.105 38.5196 236 38.2652 236 38Z" fill="#555555"/>
<path d="M233 28H235V32H233V28Z" fill="#555555"/>
<path d="M233 46H235V50H233V46Z" fill="#555555"/>
<path opacity="0.25" d="M215 44H225V51H215V44Z" fill="#E6A020" stroke="#CC8800" stroke-width="0.4"/>
  </g>
</svg>
