<svg width="631" height="640" viewBox="0 0 631 640" fill="none" xmlns="http://www.w3.org/2000/svg">
<rect x="38" y="320.893" width="393" height="393" rx="10" transform="rotate(-45 38 320.893)" fill="#FFE01B"/>
<rect x="54.0711" y="320.701" width="370" height="370" rx="5" transform="rotate(-45 54.0711 320.701)" stroke="black" stroke-width="10"/>
<rect x="297" y="160" width="38" height="322" fill="black"/>
<rect x="152" y="283" width="328" height="26" fill="black"/>
<rect x="152" y="333" width="328" height="26" fill="black"/>
<rect x="401" y="264" width="33" height="19" fill="black"/>
<rect x="401" y="359" width="33" height="19" fill="black"/>
<rect x="352" y="264" width="33" height="19" fill="black"/>
<rect x="352" y="359" width="33" height="19" fill="black"/>
<rect x="248" y="264" width="33" height="19" fill="black"/>
<rect x="248" y="359" width="33" height="19" fill="black"/>
<rect x="199" y="359" width="33" height="19" fill="black"/>
<rect x="199" y="264" width="33" height="19" fill="black"/>
<rect x="409" y="309" width="17" height="24" fill="black"/>
<rect x="360" y="309" width="17" height="24" fill="black"/>
<rect x="255" y="309" width="17" height="24" fill="black"/>
<rect x="207" y="309" width="17" height="24" fill="black"/>
</svg>
