<svg xmlns="http://www.w3.org/2000/svg" viewBox="0 0 130 75" fill="none">
  <!-- Warning Barricade — yellow & black diagonal stripes -->
  <rect x="0" y="18" width="130" height="14" rx="2" fill="#FFB627"/>
  <defs>
    <clipPath id="bar-clip">
      <rect x="0" y="18" width="130" height="14" rx="2"/>
    </clipPath>
  </defs>
  <g clip-path="url(#bar-clip)">
    <line x1="-2" y1="32" x2="12" y2="18" stroke="#111" stroke-width="6"/>
    <line x1="12" y1="32" x2="26" y2="18" stroke="#111" stroke-width="6"/>
    <line x1="26" y1="32" x2="40" y2="18" stroke="#111" stroke-width="6"/>
    <line x1="40" y1="32" x2="54" y2="18" stroke="#111" stroke-width="6"/>
    <line x1="54" y1="32" x2="68" y2="18" stroke="#111" stroke-width="6"/>
    <line x1="68" y1="32" x2="82" y2="18" stroke="#111" stroke-width="6"/>
    <line x1="82" y1="32" x2="96" y2="18" stroke="#111" stroke-width="6"/>
    <line x1="96" y1="32" x2="110" y2="18" stroke="#111" stroke-width="6"/>
    <line x1="110" y1="32" x2="124" y2="18" stroke="#111" stroke-width="6"/>
    <line x1="124" y1="32" x2="138" y2="18" stroke="#111" stroke-width="6"/>
  </g>
  <rect x="0" y="16" width="130" height="3" rx="1" fill="#E6A020"/>
  <line x1="18" y1="32" x2="8" y2="73" stroke="#555" stroke-width="4" stroke-linecap="round"/>
  <line x1="18" y1="32" x2="28" y2="73" stroke="#555" stroke-width="4" stroke-linecap="round"/>
  <line x1="112" y1="32" x2="102" y2="73" stroke="#555" stroke-width="4" stroke-linecap="round"/>
  <line x1="112" y1="32" x2="122" y2="73" stroke="#555" stroke-width="4" stroke-linecap="round"/>
  <line x1="12" y1="54" x2="24" y2="54" stroke="#444" stroke-width="2"/>
  <line x1="106" y1="54" x2="118" y2="54" stroke="#444" stroke-width="2"/>
  <rect x="5" y="71" width="8" height="4" rx="1" fill="#444"/>
  <rect x="25" y="71" width="8" height="4" rx="1" fill="#444"/>
  <rect x="99" y="71" width="8" height="4" rx="1" fill="#444"/>
  <rect x="119" y="71" width="8" height="4" rx="1" fill="#444"/>
</svg>
