<svg xmlns="http://www.w3.org/2000/svg" viewBox="0 0 1000 1000" fill="none">
  <!-- Detailed Rocket — construction prop style -->
  <!-- Shared 1000x1000 viewBox. Uniform scale 5x, centered horizontally. -->
  <g transform="translate(250,0) scale(5)">

  <!-- ═══ EXHAUST FLAMES ═══ -->
  <!-- Outer flame -->
  <path d="M36,170 Q38,178 34,188 Q40,180 42,193 Q46,182 48,200 Q50,184 52,200 Q54,182 58,193 Q60,180 66,188 Q62,178 64,170" fill="#E07800" opacity="0.7"/>
  <!-- Middle flame -->
  <path d="M40,170 Q42,177 40,184 Q44,178 46,193 Q48,180 50,197 Q52,180 54,193 Q56,178 60,184 Q58,177 60,170" fill="#FFB627" opacity="0.85"/>
  <!-- Inner core flame -->
  <path d="M44,170 Q46,177 45,183 Q48,176 50,191 Q52,176 55,183 Q54,177 56,170" fill="#FFD060"/>

  <!-- ═══ ENGINE NOZZLE ═══ -->
  <!-- Nozzle bell exterior -->
  <path d="M36,158 Q35,164 33,170 L67,170 Q65,164 64,158 Z" fill="#333"/>
  <!-- Nozzle bell interior -->
  <path d="M38,160 Q37,164 36,170 L64,170 Q63,164 62,160 Z" fill="#222"/>
  <!-- Nozzle throat ring -->
  <path d="M38,158 L62,158 L62,160 L38,160 Z" fill="#555"/>
  <!-- Nozzle rim glow -->
  <path d="M33,169 L67,169 L67,171 L33,171 Z" fill="#E07800" opacity="0.4"/>
  <!-- Nozzle interior ribbing -->
  <path d="M40,162 L40,170" stroke="#333" stroke-width="0.5"/>
  <path d="M45,161 L44,170" stroke="#333" stroke-width="0.5"/>
  <path d="M50,160 L50,170" stroke="#333" stroke-width="0.5"/>
  <path d="M55,161 L56,170" stroke="#333" stroke-width="0.5"/>
  <path d="M60,162 L60,170" stroke="#333" stroke-width="0.5"/>

  <!-- ═══ ENGINE MOUNT PLATE ═══ -->
  <path id="r-engine" d="M34,150 L66,150 L66,158 L34,158 Z" fill="#444"/>
  <path d="M34,152 L66,152" stroke="#555" stroke-width="0.7"/>
  <path d="M34,155 L66,155" stroke="#555" stroke-width="0.7"/>
  <!-- Turbopump left -->
  <path d="M39.5,154 A2.5,2.5 0 1,1 44.5,154 A2.5,2.5 0 1,1 39.5,154 Z" fill="#333" stroke="#555" stroke-width="0.5"/>
  <!-- Turbopump right -->
  <path d="M55.5,154 A2.5,2.5 0 1,1 60.5,154 A2.5,2.5 0 1,1 55.5,154 Z" fill="#333" stroke="#555" stroke-width="0.5"/>
  <!-- Fuel lines -->
  <path d="M42,150 L42,148" stroke="#666" stroke-width="1" stroke-linecap="round"/>
  <path d="M58,150 L58,148" stroke="#666" stroke-width="1" stroke-linecap="round"/>

  <!-- ═══ FINS ═══ -->
  <!-- Left fin -->
  <path id="r-fin-l" d="M34,118 L6,156 L10,160 L18,160 L34,150 Z" fill="#E07800"/>
  <!-- Left fin leading edge highlight -->
  <path d="M34,118 L6,156 L8,156 L34,120 Z" fill="#FFB627" opacity="0.5"/>
  <!-- Left fin spars -->
  <path d="M28,130 L12,155" stroke="#CC6600" stroke-width="0.8"/>
  <path d="M22,135 L15,148" stroke="#CC6600" stroke-width="0.5" opacity="0.6"/>

  <!-- Right fin -->
  <path id="r-fin-r" d="M66,118 L94,156 L90,160 L82,160 L66,150 Z" fill="#E07800"/>
  <!-- Right fin leading edge highlight -->
  <path d="M66,118 L94,156 L92,156 L66,120 Z" fill="#FFB627" opacity="0.5"/>
  <!-- Right fin spars -->
  <path d="M72,130 L88,155" stroke="#CC6600" stroke-width="0.8"/>
  <path d="M78,135 L85,148" stroke="#CC6600" stroke-width="0.5" opacity="0.6"/>

  <!-- Center fin (behind body) -->
  <path d="M47,124 L47,158 L53,158 L53,124 Z" fill="#CC6600" opacity="0.4"/>

  <!-- Fin root fairings -->
  <path d="M32,116 L34,150 L36,150 L34,116 Z" fill="#E6A020"/>
  <path d="M66,116 L68,116 L66,150 L64,150 Z" fill="#E6A020"/>

  <!-- Fin feet -->
  <path d="M4,155 L12,155 L12,160 L6,160 Z" fill="#444"/>
  <path d="M88,155 L96,155 L94,160 L88,160 Z" fill="#444"/>

  <!-- ═══ LOWER STAGE (main body) ═══ -->
  <path id="r-body" d="M34,82 L34,150 L66,150 L66,82 Z" fill="#FFB627"/>

  <!-- Left edge specular highlight -->
  <path d="M34,82 L35.5,82 L35.5,150 L34,150 Z" fill="#FFD060" opacity="0.4"/>
  <!-- Right edge shadow -->
  <path d="M64.5,82 L66,82 L66,150 L64.5,150 Z" fill="#CC8800" opacity="0.4"/>

  <!-- Horizontal panel lines -->
  <path d="M34,92 L66,92" stroke="#E6A020" stroke-width="0.7"/>
  <path d="M34,102 L66,102" stroke="#E6A020" stroke-width="0.7"/>
  <path d="M34,112 L66,112" stroke="#E6A020" stroke-width="0.7"/>
  <path d="M34,122 L66,122" stroke="#E6A020" stroke-width="0.7"/>
  <path d="M34,132 L66,132" stroke="#E6A020" stroke-width="0.7"/>
  <!-- Vertical seam -->
  <path d="M50,82 L50,150" stroke="#E6A020" stroke-width="0.4" opacity="0.5"/>

  <!-- Alternating darker panels (left) -->
  <path d="M34,92 L40,92 L40,102 L34,102 Z" fill="#E6A020" opacity="0.25"/>
  <path d="M34,112 L40,112 L40,122 L34,122 Z" fill="#E6A020" opacity="0.25"/>
  <path d="M34,132 L40,132 L40,142 L34,142 Z" fill="#E6A020" opacity="0.25"/>
  <!-- Alternating darker panels (right) -->
  <path d="M60,92 L66,92 L66,102 L60,102 Z" fill="#E6A020" opacity="0.25"/>
  <path d="M60,112 L66,112 L66,122 L60,122 Z" fill="#E6A020" opacity="0.25"/>
  <path d="M60,132 L66,132 L66,142 L60,142 Z" fill="#E6A020" opacity="0.25"/>

  <!-- Hazard stripe band (construction style) -->
  <path id="r-hazard" d="M33,142 L67,142 L67,148 L33,148 Z" fill="#FFB627"/>
  <path d="M33,148 L37,142" stroke="#111" stroke-width="2"/>
  <path d="M37,148 L41,142" stroke="#111" stroke-width="2"/>
  <path d="M41,148 L45,142" stroke="#111" stroke-width="2"/>
  <path d="M45,148 L49,142" stroke="#111" stroke-width="2"/>
  <path d="M49,148 L53,142" stroke="#111" stroke-width="2"/>
  <path d="M53,148 L57,142" stroke="#111" stroke-width="2"/>
  <path d="M57,148 L61,142" stroke="#111" stroke-width="2"/>
  <path d="M61,148 L65,142" stroke="#111" stroke-width="2"/>
  <path d="M65,148 L69,142" stroke="#111" stroke-width="2"/>

  <!-- Access hatch -->
  <path d="M43,95 L57,95 L57,101 L43,101 Z" fill="#E6A020" stroke="#CC8800" stroke-width="0.5"/>
  <path d="M54.5,97 A1,1 0 1,1 54.5,99 A1,1 0 1,1 54.5,97 Z" fill="#CC8800"/>
  <path d="M44,98 L53,98" stroke="#CC8800" stroke-width="0.4"/>

  <!-- Equipment panel -->
  <path d="M44,106 L56,106 L56,110 L44,110 Z" fill="#E6A020" stroke="#CC8800" stroke-width="0.4"/>
  <path d="M46,106 L46,110" stroke="#CC8800" stroke-width="0.3"/>
  <path d="M50,106 L50,110" stroke="#CC8800" stroke-width="0.3"/>
  <path d="M54,106 L54,110" stroke="#CC8800" stroke-width="0.3"/>

  <!-- Rivet line (left) -->
  <path d="M36,86 A0.8,0.8 0 1,1 36,87.6 A0.8,0.8 0 1,1 36,86 Z" fill="#E6A020"/>
  <path d="M36,96 A0.8,0.8 0 1,1 36,97.6 A0.8,0.8 0 1,1 36,96 Z" fill="#E6A020"/>
  <path d="M36,106 A0.8,0.8 0 1,1 36,107.6 A0.8,0.8 0 1,1 36,106 Z" fill="#E6A020"/>
  <path d="M36,116 A0.8,0.8 0 1,1 36,117.6 A0.8,0.8 0 1,1 36,116 Z" fill="#E6A020"/>
  <path d="M36,126 A0.8,0.8 0 1,1 36,127.6 A0.8,0.8 0 1,1 36,126 Z" fill="#E6A020"/>
  <path d="M36,136 A0.8,0.8 0 1,1 36,137.6 A0.8,0.8 0 1,1 36,136 Z" fill="#E6A020"/>
  <!-- Rivet line (right) -->
  <path d="M64,86 A0.8,0.8 0 1,1 64,87.6 A0.8,0.8 0 1,1 64,86 Z" fill="#E6A020"/>
  <path d="M64,96 A0.8,0.8 0 1,1 64,97.6 A0.8,0.8 0 1,1 64,96 Z" fill="#E6A020"/>
  <path d="M64,106 A0.8,0.8 0 1,1 64,107.6 A0.8,0.8 0 1,1 64,106 Z" fill="#E6A020"/>
  <path d="M64,116 A0.8,0.8 0 1,1 64,117.6 A0.8,0.8 0 1,1 64,116 Z" fill="#E6A020"/>
  <path d="M64,126 A0.8,0.8 0 1,1 64,127.6 A0.8,0.8 0 1,1 64,126 Z" fill="#E6A020"/>
  <path d="M64,136 A0.8,0.8 0 1,1 64,137.6 A0.8,0.8 0 1,1 64,136 Z" fill="#E6A020"/>

  <!-- ═══ INTERSTAGE BAND ═══ -->
  <path id="r-band" d="M33,79 L67,79 L67,83 L33,83 Z" fill="#333"/>
  <path d="M33,80.5 L67,80.5" stroke="#444" stroke-width="0.7"/>
  <!-- Separation bolts -->
  <path d="M37,81 A0.6,0.6 0 1,1 37,82.2 A0.6,0.6 0 1,1 37,81 Z" fill="#555"/>
  <path d="M43,81 A0.6,0.6 0 1,1 43,82.2 A0.6,0.6 0 1,1 43,81 Z" fill="#555"/>
  <path d="M50,81 A0.6,0.6 0 1,1 50,82.2 A0.6,0.6 0 1,1 50,81 Z" fill="#555"/>
  <path d="M57,81 A0.6,0.6 0 1,1 57,82.2 A0.6,0.6 0 1,1 57,81 Z" fill="#555"/>
  <path d="M63,81 A0.6,0.6 0 1,1 63,82.2 A0.6,0.6 0 1,1 63,81 Z" fill="#555"/>

  <!-- ═══ UPPER STAGE ═══ -->
  <path id="r-upper" d="M36,48 L36,79 L64,79 L64,48 Z" fill="#FFB627"/>
  <!-- Left highlight -->
  <path d="M36,48 L37.5,48 L37.5,79 L36,79 Z" fill="#FFD060" opacity="0.4"/>
  <!-- Right shadow -->
  <path d="M62.5,48 L64,48 L64,79 L62.5,79 Z" fill="#CC8800" opacity="0.4"/>

  <!-- Panel lines -->
  <path d="M36,56 L64,56" stroke="#E6A020" stroke-width="0.7"/>
  <path d="M36,66 L64,66" stroke="#E6A020" stroke-width="0.7"/>
  <!-- Vertical seam -->
  <path d="M50,48 L50,79" stroke="#E6A020" stroke-width="0.4" opacity="0.5"/>

  <!-- Porthole window -->
  <path id="r-window" d="M44,58 A6,6 0 1,1 56,58 A6,6 0 1,1 44,58 Z" fill="#87CEEB" opacity="0.6" stroke="#E6A020" stroke-width="1.5"/>
  <!-- Inner glass -->
  <path d="M45.5,58 A4.5,4.5 0 1,1 54.5,58 A4.5,4.5 0 1,1 45.5,58 Z" fill="#87CEEB" opacity="0.35"/>
  <!-- Window glare -->
  <path d="M47,55.5 Q48.5,53.5 50,55" stroke="#fff" stroke-width="0.8" opacity="0.5" fill="none" stroke-linecap="round"/>
  <!-- Window frame bolts -->
  <path d="M49.2,52 A0.5,0.5 0 1,1 50.2,52 A0.5,0.5 0 1,1 49.2,52 Z" fill="#E6A020"/>
  <path d="M49.2,64 A0.5,0.5 0 1,1 50.2,64 A0.5,0.5 0 1,1 49.2,64 Z" fill="#E6A020"/>
  <path d="M43.5,57.5 A0.5,0.5 0 1,1 44.5,57.5 A0.5,0.5 0 1,1 43.5,57.5 Z" fill="#E6A020"/>
  <path d="M55.5,57.5 A0.5,0.5 0 1,1 56.5,57.5 A0.5,0.5 0 1,1 55.5,57.5 Z" fill="#E6A020"/>

  <!-- Brand stripe -->
  <path id="r-stripe" d="M36,71 L64,71 L64,75 L36,75 Z" fill="#E07800"/>

  <!-- Attitude control thrusters -->
  <path d="M36,52 L33,50 L33,54 Z" fill="#555"/>
  <path d="M64,52 L67,50 L67,54 Z" fill="#555"/>

  <!-- ═══ NOSE CONE ═══ -->
  <!-- Main ogive shape -->
  <path id="r-nose" d="M50,8 Q36,26 36,48 L64,48 Q64,26 50,8 Z" fill="#E07800"/>
  <!-- Center seam -->
  <path d="M50,8 L50,48" stroke="#CC6600" stroke-width="0.5" opacity="0.5"/>
  <!-- Left specular highlight -->
  <path d="M50,10 Q39,26 38,44 L40,44 Q40,27 50,12 Z" fill="#FF9020" opacity="0.35"/>
  <!-- Ring details -->
  <path d="M38.5,36 Q50,36 61.5,36" stroke="#CC6600" stroke-width="0.8"/>
  <path d="M41,28 Q50,28 59,28" stroke="#CC6600" stroke-width="0.6" opacity="0.6"/>
  <!-- Nose panel -->
  <path d="M42,38 L58,38 L58,44 L42,44 Z" fill="#CC6600" opacity="0.2"/>

  <!-- ═══ ANTENNA / ESCAPE TOWER ═══ -->
  <!-- Main mast -->
  <path d="M50,8 L50,1" stroke="#555" stroke-width="1.5" stroke-linecap="round"/>
  <!-- Antenna tip -->
  <path id="r-antenna" d="M49,1 A1,1 0 1,1 51,1 A1,1 0 1,1 49,1 Z" fill="#FFB627"/>
  <!-- Lightning diverter struts -->
  <path d="M48,12 L50,3 L52,12" stroke="#444" stroke-width="0.8" fill="none"/>
  <!-- Side antenna nubs -->
  <path d="M47,14 L44,12" stroke="#444" stroke-width="0.7" stroke-linecap="round"/>
  <path d="M53,14 L56,12" stroke="#444" stroke-width="0.7" stroke-linecap="round"/>
  </g>
</svg>
