<!--
  Generated by scripts/build-graffiti.mjs from Google Fonts Lacquer.
  Source commit: 45b0855d499c093e4d1bd08926fec4e1a582e225
  Source TTF SHA-256: 140c21f71907a16952926ee354c81081092c90d599c89fe8b4557baeaebbbe83
  Copyright 2019 The Lacquer Project Authors. SIL OFL 1.1.
-->
<svg xmlns="http://www.w3.org/2000/svg" viewBox="0 0 600 600" data-phrase="FIN" fill="#000">
  <defs>
    <clipPath id="body-es-0" clipPathUnits="userSpaceOnUse"><rect x="-50" y="-50" width="700" height="430"/></clipPath>
    <clipPath id="drip-es-0" clipPathUnits="userSpaceOnUse"><rect x="-50" y="380" width="700" height="270"/></clipPath>
    <clipPath id="body-es-1" clipPathUnits="userSpaceOnUse"><rect x="-50" y="-50" width="700" height="430"/></clipPath>
    <clipPath id="drip-es-1" clipPathUnits="userSpaceOnUse"><rect x="-50" y="380" width="700" height="270"/></clipPath>
    <clipPath id="body-es-2" clipPathUnits="userSpaceOnUse"><rect x="-50" y="-50" width="700" height="430"/></clipPath>
    <clipPath id="drip-es-2" clipPathUnits="userSpaceOnUse"><rect x="-50" y="380" width="700" height="270"/></clipPath>
  </defs>
  <g data-letter="F" data-index="0">
    <path data-part="body" clip-path="url(#body-es-0)" d="M118.05 394.40L118.05 394.40Q115.35 395.60 112.95 394.10L112.95 394.10Q112.05 393.50 111.15 392.75Q110.25 392 109.65 390.80L109.65 390.80Q107.25 387.20 103.65 384.80L103.65 384.80Q101.85 383.30 100.65 381.65Q99.45 380 98.55 377.90L98.55 377.90L97.65 375.20Q96.45 372.80 96.45 369.80L96.45 369.80Q96.75 365.90 96.75 362Q96.75 358.10 96.15 354.20L96.15 354.20Q95.85 352.70 95.85 351.35Q95.85 350 95.85 348.50L95.85 348.50Q95.55 346.10 95.55 343.40Q95.55 340.70 95.55 338.30L95.55 338.30Q95.55 336.20 95.55 334.40Q95.55 332.60 95.25 330.50L95.25 330.50Q94.95 328.70 94.95 326.90Q94.95 325.10 94.95 323.30L94.95 323.30L94.95 272.90Q94.95 270.80 94.65 269.90L94.65 269.90Q94.05 267.50 94.05 265.40Q94.05 263.30 93.45 261.20L93.45 261.20Q93.45 259.70 93.75 259.10L93.75 259.10Q94.95 255.20 94.95 249.50L94.95 249.50Q94.65 244.10 94.80 238.85Q94.95 233.60 94.65 228.20L94.65 228.20L94.65 225.50L94.05 224.90Q93.75 224.30 92.85 225.20L92.85 225.20L91.65 226.10Q91.35 226.70 91.05 227.15Q90.75 227.60 90.15 228.20L90.15 228.20Q88.35 230.60 85.05 231.20L85.05 231.20Q82.95 231.80 81.75 230.60L81.75 230.60Q80.85 230 79.95 229.25Q79.05 228.50 78.45 227.90L78.45 227.90Q76.95 226.40 75.30 224.75Q73.65 223.10 71.85 221.60L71.85 221.60Q67.95 218.60 66.45 213.20L66.45 213.20L65.55 209.90Q65.25 206.90 66.15 203.90L66.15 203.90Q66.75 202.10 67.35 200.30Q67.95 198.50 68.55 197L68.55 197Q69.15 194.60 70.65 193.40Q72.15 192.20 73.95 191.30L73.95 191.30Q74.55 191.30 75.15 191.15Q75.75 191 76.05 191L76.05 191Q76.95 190.40 76.95 190.10L76.95 190.10Q77.55 188.60 78.75 189.20L78.75 189.20Q79.35 189.20 79.35 188.30L79.35 188.30Q79.65 188 80.25 188L80.25 188Q80.85 188.30 81.30 188.75Q81.75 189.20 82.35 189.50L82.35 189.50Q82.65 189.80 83.85 189.80L83.85 189.80Q85.05 189.20 86.25 189.20Q87.45 189.20 88.65 189.20L88.65 189.20Q90.15 189.20 91.80 188.75Q93.45 188.30 94.95 188L94.95 188Q95.85 187.40 96.45 186.50L96.45 186.50L97.35 182.60L98.25 178.10Q98.55 176.60 99.15 175.40Q99.75 174.20 100.35 173L100.35 173L101.55 171.20Q104.55 165.80 111.15 164.30L111.15 164.30Q111.75 164 112.05 164Q112.35 164 112.65 163.70L112.65 163.70Q113.55 163.40 114.45 163.40Q115.35 163.40 116.25 163.40L116.25 163.40L118.65 163.40Q124.35 163.70 127.35 168.50L127.35 168.50Q127.95 169.40 128.55 170.60Q129.15 171.80 129.45 173L129.45 173Q130.35 174.80 132.45 174.50L132.45 174.50Q132.75 174.20 133.35 174.20L133.35 174.20Q136.65 173.30 139.95 172.40Q143.25 171.50 146.55 170.30L146.55 170.30Q150.45 168.80 154.35 167.75Q158.25 166.70 162.15 165.50L162.15 165.50Q165.45 164.30 168.90 163.40Q172.35 162.50 175.65 161.60L175.65 161.60L182.85 159.80Q187.95 158.30 193.35 157.10Q198.75 155.90 203.85 154.70L203.85 154.70Q206.55 154.10 209.25 152.90L209.25 152.90Q211.35 151.40 213.75 151.25Q216.15 151.10 218.25 151.10L218.25 151.10L224.25 151.10Q228.75 151.40 231.45 154.70L231.45 154.70Q234.75 157.70 235.05 162.80L235.05 162.80L235.05 165.20Q235.05 169.10 232.35 171.80L232.35 171.80Q229.65 174.50 226.95 176.30L226.95 176.30Q226.65 176.60 226.20 176.60Q225.75 176.60 225.15 176.90L225.15 176.90Q222.45 176.90 219.45 178.40L219.45 178.40Q217.35 179.30 214.95 178.70L214.95 178.70Q213.45 178.10 211.95 178.25Q210.45 178.40 208.95 178.70L208.95 178.70Q207.75 179 206.55 179.30Q205.35 179.60 204.15 179.90L204.15 179.90Q202.95 180.20 201.75 180.50Q200.55 180.80 199.05 181.10L199.05 181.10Q191.85 182 185.85 185.90L185.85 185.90Q185.25 186.50 184.05 186.50L184.05 186.50Q182.25 186.50 181.35 187.10L181.35 187.10Q180.15 187.40 179.10 188Q178.05 188.60 176.85 189.20L176.85 189.20Q175.65 189.80 174.15 190.40Q172.65 191 171.15 191.60L171.15 191.60Q169.35 191.90 167.55 192.50Q165.75 193.10 163.95 193.70L163.95 193.70Q163.05 194 162.30 194.30Q161.55 194.60 160.95 194.90L160.95 194.90Q157.95 195.80 155.10 197.30Q152.25 198.80 149.55 200.60L149.55 200.60L148.05 201.50Q146.85 201.80 145.35 202.40Q143.85 203 142.35 203.60L142.35 203.60Q140.85 203.90 139.35 204.50Q137.85 205.10 136.35 206L136.35 206Q136.05 206.30 135.90 206.30Q135.75 206.30 135.75 206.30L135.75 206.30Q133.65 206.60 132.30 207.95Q130.95 209.30 129.45 210.80L129.45 210.80Q128.85 211.40 128.85 212.30L128.85 212.30L128.85 236.60Q128.85 237.80 128.70 239Q128.55 240.20 128.25 241.70L128.25 241.70Q128.25 243.50 127.95 244.10L127.95 244.10Q127.95 247.40 130.95 246.50L130.95 246.50Q135.15 245.30 139.50 244.10Q143.85 242.90 147.75 241.70L147.75 241.70Q151.95 240.20 155.70 239Q159.45 237.80 163.35 236.60L163.35 236.60Q164.85 236.30 166.05 235.85Q167.25 235.40 168.45 235.10L168.45 235.10Q173.25 233.30 178.20 231.50Q183.15 229.70 187.95 228.50L187.95 228.50Q191.25 227.90 194.25 226.85Q197.25 225.80 200.25 224.90L200.25 224.90Q202.95 224 205.65 223.40Q208.35 222.80 210.75 222.20L210.75 222.20Q212.55 221.90 214.35 222.05Q216.15 222.20 217.65 223.10L217.65 223.10Q218.25 223.40 219 223.55Q219.75 223.70 220.35 224L220.35 224Q221.85 224 222.75 225.20L222.75 225.20Q223.35 225.50 223.80 225.80Q224.25 226.10 224.85 226.70L224.85 226.70Q224.85 226.70 225.75 227.60L225.75 227.60Q225.75 227.90 225.90 228.05Q226.05 228.20 226.05 228.80L226.05 228.80Q228.45 232.40 228.60 233.45Q228.75 234.50 229.05 237.50L229.05 237.50Q229.05 239.30 228.15 239.90L228.15 239.90L227.25 241.10Q226.05 244.40 222.45 245.90L222.45 245.90Q221.25 246.50 220.20 247.25Q219.15 248 217.65 248.60L217.65 248.60L216.15 249.50Q214.95 250.70 213.45 250.70L213.45 250.70Q210.15 251.30 207 252.50Q203.85 253.70 200.55 254.60L200.55 254.60Q199.35 254.90 198.15 256.10L198.15 256.10Q196.05 257.90 193.05 258.80L193.05 258.80Q191.85 259.10 190.80 259.55Q189.75 260 188.25 260.30L188.25 260.30Q183.15 261.80 178.20 263.90Q173.25 266 168.15 268.10L168.15 268.10Q166.05 269 163.80 269.90Q161.55 270.80 159.15 271.40L159.15 271.40Q157.65 272 155.85 272.75Q154.05 273.50 152.55 274.70L152.55 274.70Q151.35 275.30 150.15 275.75Q148.95 276.20 147.45 276.80L147.45 276.80Q142.95 278.30 138.45 279.80Q133.95 281.30 129.15 282.80L129.15 282.80Q128.25 282.80 127.95 283.10L127.95 283.10Q126.45 283.70 126.45 284.90L126.45 284.90Q126.15 286.70 126.00 288.35Q125.85 290 125.85 291.50L125.85 291.50L125.85 293.30Q126.45 294.50 126.45 296.15Q126.45 297.80 126.45 299.30L126.45 299.30Q126.45 299.90 125.85 301.10L125.85 301.10Q124.65 302.30 124.65 304.40L124.65 304.40Q124.35 306.20 124.35 308Q124.35 309.80 123.75 311.60L123.75 311.60Q123.45 313.70 123.60 315.50Q123.75 317.30 124.65 319.10L124.65 319.10Q125.55 320.90 125.55 323L125.55 323Q125.25 328.10 127.05 334.40L127.05 334.40Q127.35 335.30 127.35 337.40L127.35 337.40Q126.45 340.10 127.05 344.30L127.05 344.30Q127.05 345.50 127.05 347.15Q127.05 348.80 126.75 350.30L126.75 350.30Q126.15 351.20 126.75 353.60L126.75 353.60Q126.75 354.20 126.90 354.95Q127.05 355.70 127.05 356.30L127.05 356.30Q127.35 360.20 127.80 364.10Q128.25 368 128.55 371.90L128.55 371.90Q128.85 373.70 128.55 375.35Q128.25 377 127.65 378.50L127.65 378.50Q126.75 382.70 124.65 385.40L124.65 385.40Q123.45 386.90 122.55 388.55Q121.65 390.20 120.75 391.70L120.75 391.70Q120.45 392.60 119.55 393.20Q118.65 393.80 118.05 394.40Z"/>
    <path data-part="drip" data-origin-x="150.3" data-origin-y="380" clip-path="url(#drip-es-0)" d="M118.05 394.40L118.05 394.40Q115.35 395.60 112.95 394.10L112.95 394.10Q112.05 393.50 111.15 392.75Q110.25 392 109.65 390.80L109.65 390.80Q107.25 387.20 103.65 384.80L103.65 384.80Q101.85 383.30 100.65 381.65Q99.45 380 98.55 377.90L98.55 377.90L97.65 375.20Q96.45 372.80 96.45 369.80L96.45 369.80Q96.75 365.90 96.75 362Q96.75 358.10 96.15 354.20L96.15 354.20Q95.85 352.70 95.85 351.35Q95.85 350 95.85 348.50L95.85 348.50Q95.55 346.10 95.55 343.40Q95.55 340.70 95.55 338.30L95.55 338.30Q95.55 336.20 95.55 334.40Q95.55 332.60 95.25 330.50L95.25 330.50Q94.95 328.70 94.95 326.90Q94.95 325.10 94.95 323.30L94.95 323.30L94.95 272.90Q94.95 270.80 94.65 269.90L94.65 269.90Q94.05 267.50 94.05 265.40Q94.05 263.30 93.45 261.20L93.45 261.20Q93.45 259.70 93.75 259.10L93.75 259.10Q94.95 255.20 94.95 249.50L94.95 249.50Q94.65 244.10 94.80 238.85Q94.95 233.60 94.65 228.20L94.65 228.20L94.65 225.50L94.05 224.90Q93.75 224.30 92.85 225.20L92.85 225.20L91.65 226.10Q91.35 226.70 91.05 227.15Q90.75 227.60 90.15 228.20L90.15 228.20Q88.35 230.60 85.05 231.20L85.05 231.20Q82.95 231.80 81.75 230.60L81.75 230.60Q80.85 230 79.95 229.25Q79.05 228.50 78.45 227.90L78.45 227.90Q76.95 226.40 75.30 224.75Q73.65 223.10 71.85 221.60L71.85 221.60Q67.95 218.60 66.45 213.20L66.45 213.20L65.55 209.90Q65.25 206.90 66.15 203.90L66.15 203.90Q66.75 202.10 67.35 200.30Q67.95 198.50 68.55 197L68.55 197Q69.15 194.60 70.65 193.40Q72.15 192.20 73.95 191.30L73.95 191.30Q74.55 191.30 75.15 191.15Q75.75 191 76.05 191L76.05 191Q76.95 190.40 76.95 190.10L76.95 190.10Q77.55 188.60 78.75 189.20L78.75 189.20Q79.35 189.20 79.35 188.30L79.35 188.30Q79.65 188 80.25 188L80.25 188Q80.85 188.30 81.30 188.75Q81.75 189.20 82.35 189.50L82.35 189.50Q82.65 189.80 83.85 189.80L83.85 189.80Q85.05 189.20 86.25 189.20Q87.45 189.20 88.65 189.20L88.65 189.20Q90.15 189.20 91.80 188.75Q93.45 188.30 94.95 188L94.95 188Q95.85 187.40 96.45 186.50L96.45 186.50L97.35 182.60L98.25 178.10Q98.55 176.60 99.15 175.40Q99.75 174.20 100.35 173L100.35 173L101.55 171.20Q104.55 165.80 111.15 164.30L111.15 164.30Q111.75 164 112.05 164Q112.35 164 112.65 163.70L112.65 163.70Q113.55 163.40 114.45 163.40Q115.35 163.40 116.25 163.40L116.25 163.40L118.65 163.40Q124.35 163.70 127.35 168.50L127.35 168.50Q127.95 169.40 128.55 170.60Q129.15 171.80 129.45 173L129.45 173Q130.35 174.80 132.45 174.50L132.45 174.50Q132.75 174.20 133.35 174.20L133.35 174.20Q136.65 173.30 139.95 172.40Q143.25 171.50 146.55 170.30L146.55 170.30Q150.45 168.80 154.35 167.75Q158.25 166.70 162.15 165.50L162.15 165.50Q165.45 164.30 168.90 163.40Q172.35 162.50 175.65 161.60L175.65 161.60L182.85 159.80Q187.95 158.30 193.35 157.10Q198.75 155.90 203.85 154.70L203.85 154.70Q206.55 154.10 209.25 152.90L209.25 152.90Q211.35 151.40 213.75 151.25Q216.15 151.10 218.25 151.10L218.25 151.10L224.25 151.10Q228.75 151.40 231.45 154.70L231.45 154.70Q234.75 157.70 235.05 162.80L235.05 162.80L235.05 165.20Q235.05 169.10 232.35 171.80L232.35 171.80Q229.65 174.50 226.95 176.30L226.95 176.30Q226.65 176.60 226.20 176.60Q225.75 176.60 225.15 176.90L225.15 176.90Q222.45 176.90 219.45 178.40L219.45 178.40Q217.35 179.30 214.95 178.70L214.95 178.70Q213.45 178.10 211.95 178.25Q210.45 178.40 208.95 178.70L208.95 178.70Q207.75 179 206.55 179.30Q205.35 179.60 204.15 179.90L204.15 179.90Q202.95 180.20 201.75 180.50Q200.55 180.80 199.05 181.10L199.05 181.10Q191.85 182 185.85 185.90L185.85 185.90Q185.25 186.50 184.05 186.50L184.05 186.50Q182.25 186.50 181.35 187.10L181.35 187.10Q180.15 187.40 179.10 188Q178.05 188.60 176.85 189.20L176.85 189.20Q175.65 189.80 174.15 190.40Q172.65 191 171.15 191.60L171.15 191.60Q169.35 191.90 167.55 192.50Q165.75 193.10 163.95 193.70L163.95 193.70Q163.05 194 162.30 194.30Q161.55 194.60 160.95 194.90L160.95 194.90Q157.95 195.80 155.10 197.30Q152.25 198.80 149.55 200.60L149.55 200.60L148.05 201.50Q146.85 201.80 145.35 202.40Q143.85 203 142.35 203.60L142.35 203.60Q140.85 203.90 139.35 204.50Q137.85 205.10 136.35 206L136.35 206Q136.05 206.30 135.90 206.30Q135.75 206.30 135.75 206.30L135.75 206.30Q133.65 206.60 132.30 207.95Q130.95 209.30 129.45 210.80L129.45 210.80Q128.85 211.40 128.85 212.30L128.85 212.30L128.85 236.60Q128.85 237.80 128.70 239Q128.55 240.20 128.25 241.70L128.25 241.70Q128.25 243.50 127.95 244.10L127.95 244.10Q127.95 247.40 130.95 246.50L130.95 246.50Q135.15 245.30 139.50 244.10Q143.85 242.90 147.75 241.70L147.75 241.70Q151.95 240.20 155.70 239Q159.45 237.80 163.35 236.60L163.35 236.60Q164.85 236.30 166.05 235.85Q167.25 235.40 168.45 235.10L168.45 235.10Q173.25 233.30 178.20 231.50Q183.15 229.70 187.95 228.50L187.95 228.50Q191.25 227.90 194.25 226.85Q197.25 225.80 200.25 224.90L200.25 224.90Q202.95 224 205.65 223.40Q208.35 222.80 210.75 222.20L210.75 222.20Q212.55 221.90 214.35 222.05Q216.15 222.20 217.65 223.10L217.65 223.10Q218.25 223.40 219 223.55Q219.75 223.70 220.35 224L220.35 224Q221.85 224 222.75 225.20L222.75 225.20Q223.35 225.50 223.80 225.80Q224.25 226.10 224.85 226.70L224.85 226.70Q224.85 226.70 225.75 227.60L225.75 227.60Q225.75 227.90 225.90 228.05Q226.05 228.20 226.05 228.80L226.05 228.80Q228.45 232.40 228.60 233.45Q228.75 234.50 229.05 237.50L229.05 237.50Q229.05 239.30 228.15 239.90L228.15 239.90L227.25 241.10Q226.05 244.40 222.45 245.90L222.45 245.90Q221.25 246.50 220.20 247.25Q219.15 248 217.65 248.60L217.65 248.60L216.15 249.50Q214.95 250.70 213.45 250.70L213.45 250.70Q210.15 251.30 207 252.50Q203.85 253.70 200.55 254.60L200.55 254.60Q199.35 254.90 198.15 256.10L198.15 256.10Q196.05 257.90 193.05 258.80L193.05 258.80Q191.85 259.10 190.80 259.55Q189.75 260 188.25 260.30L188.25 260.30Q183.15 261.80 178.20 263.90Q173.25 266 168.15 268.10L168.15 268.10Q166.05 269 163.80 269.90Q161.55 270.80 159.15 271.40L159.15 271.40Q157.65 272 155.85 272.75Q154.05 273.50 152.55 274.70L152.55 274.70Q151.35 275.30 150.15 275.75Q148.95 276.20 147.45 276.80L147.45 276.80Q142.95 278.30 138.45 279.80Q133.95 281.30 129.15 282.80L129.15 282.80Q128.25 282.80 127.95 283.10L127.95 283.10Q126.45 283.70 126.45 284.90L126.45 284.90Q126.15 286.70 126.00 288.35Q125.85 290 125.85 291.50L125.85 291.50L125.85 293.30Q126.45 294.50 126.45 296.15Q126.45 297.80 126.45 299.30L126.45 299.30Q126.45 299.90 125.85 301.10L125.85 301.10Q124.65 302.30 124.65 304.40L124.65 304.40Q124.35 306.20 124.35 308Q124.35 309.80 123.75 311.60L123.75 311.60Q123.45 313.70 123.60 315.50Q123.75 317.30 124.65 319.10L124.65 319.10Q125.55 320.90 125.55 323L125.55 323Q125.25 328.10 127.05 334.40L127.05 334.40Q127.35 335.30 127.35 337.40L127.35 337.40Q126.45 340.10 127.05 344.30L127.05 344.30Q127.05 345.50 127.05 347.15Q127.05 348.80 126.75 350.30L126.75 350.30Q126.15 351.20 126.75 353.60L126.75 353.60Q126.75 354.20 126.90 354.95Q127.05 355.70 127.05 356.30L127.05 356.30Q127.35 360.20 127.80 364.10Q128.25 368 128.55 371.90L128.55 371.90Q128.85 373.70 128.55 375.35Q128.25 377 127.65 378.50L127.65 378.50Q126.75 382.70 124.65 385.40L124.65 385.40Q123.45 386.90 122.55 388.55Q121.65 390.20 120.75 391.70L120.75 391.70Q120.45 392.60 119.55 393.20Q118.65 393.80 118.05 394.40Z"/>
  </g>
  <g data-letter="I" data-index="1">
    <path data-part="body" clip-path="url(#body-es-1)" d="M298.95 383L298.95 383Q298.65 383 298.20 382.85Q297.75 382.70 297.15 382.70L297.15 382.70Q295.05 382.70 294.15 380.90L294.15 380.90Q292.95 378.80 291.75 377.30Q290.55 375.80 289.05 374.30L289.05 374.30Q287.55 372.80 286.50 371Q285.45 369.20 284.55 367.40L284.55 367.40Q283.65 365.90 283.65 364.40L283.65 364.40L283.65 361.40Q283.65 359.90 283.50 358.25Q283.35 356.60 283.05 355.10L283.05 355.10Q282.45 352.70 282 350Q281.55 347.30 280.95 344.90L280.95 344.90Q280.95 344.30 280.80 343.55Q280.65 342.80 280.65 342.20L280.65 342.20Q280.35 338.90 279.75 335.45Q279.15 332 278.55 328.70L278.55 328.70Q277.65 322.70 276.60 316.85Q275.55 311 274.65 305.30L274.65 305.30L272.85 295.40Q272.55 293 271.05 290.30L271.05 290.30Q269.25 287 268.35 283.10L268.35 283.10Q268.05 281.30 267.45 279.65Q266.85 278 266.25 276.20L266.25 276.20Q265.35 273.20 264.45 270.20Q263.55 267.20 262.95 264.20L262.95 264.20Q262.65 261.80 262.05 259.40Q261.45 257 260.85 254.60L260.85 254.60L259.05 246.50Q259.05 245.90 258.75 245.60L258.75 245.60Q258.45 241.40 257.55 237.05Q256.65 232.70 255.75 228.50L255.75 228.50Q255.45 226.10 255.00 222.65Q254.55 219.20 254.85 217.10L254.85 217.10L254.85 214.10Q255.45 209.90 257.55 206.30L257.55 206.30Q259.95 202.10 265.35 199.70L265.35 199.70Q266.85 199.10 268.35 198.80Q269.85 198.50 271.05 198.20L271.05 198.20Q274.35 197.90 277.35 198.95Q280.35 200 283.35 201.80L283.35 201.80Q284.25 202.40 284.85 203.30L284.85 203.30Q285.75 204.80 286.80 206.30Q287.85 207.80 288.15 209.60L288.15 209.60Q288.75 211.40 289.50 213.20Q290.25 215 291.15 216.50L291.15 216.50Q292.65 219.50 293.25 222.80Q293.85 226.10 294.45 229.40L294.45 229.40Q295.35 233.90 295.35 239L295.35 239L295.35 240.50Q295.95 243.50 295.95 246.35Q295.95 249.20 295.95 252.20L295.95 252.20Q296.25 257 296.85 261.65Q297.45 266.30 298.05 271.40L298.05 271.40L299.85 285.50L299.85 286.10Q300.45 289.40 301.20 292.85Q301.95 296.30 302.25 299.60L302.25 299.60Q303.15 304.70 304.20 309.95Q305.25 315.20 305.85 320.30L305.85 320.30L307.65 332.90Q308.25 335.90 308.70 338.90Q309.15 341.90 309.75 344.90L309.75 344.90Q310.35 347.90 310.80 350.75Q311.25 353.60 311.85 356.60L311.85 356.60Q312.15 357.80 312.30 358.85Q312.45 359.90 312.45 361.10L312.45 361.10Q312.75 365.60 310.95 369.80L310.95 369.80Q310.65 371 309.45 372.20L309.45 372.20Q308.25 374 307.35 374.60L307.35 374.60Q304.95 377 303.75 379.70L303.75 379.70Q303.75 380 303.30 380.60Q302.85 381.20 302.25 381.80L302.25 381.80Q301.05 383 298.95 383Z"/>
    <path data-part="drip" data-origin-x="283.65" data-origin-y="380" clip-path="url(#drip-es-1)" d="M298.95 383L298.95 383Q298.65 383 298.20 382.85Q297.75 382.70 297.15 382.70L297.15 382.70Q295.05 382.70 294.15 380.90L294.15 380.90Q292.95 378.80 291.75 377.30Q290.55 375.80 289.05 374.30L289.05 374.30Q287.55 372.80 286.50 371Q285.45 369.20 284.55 367.40L284.55 367.40Q283.65 365.90 283.65 364.40L283.65 364.40L283.65 361.40Q283.65 359.90 283.50 358.25Q283.35 356.60 283.05 355.10L283.05 355.10Q282.45 352.70 282 350Q281.55 347.30 280.95 344.90L280.95 344.90Q280.95 344.30 280.80 343.55Q280.65 342.80 280.65 342.20L280.65 342.20Q280.35 338.90 279.75 335.45Q279.15 332 278.55 328.70L278.55 328.70Q277.65 322.70 276.60 316.85Q275.55 311 274.65 305.30L274.65 305.30L272.85 295.40Q272.55 293 271.05 290.30L271.05 290.30Q269.25 287 268.35 283.10L268.35 283.10Q268.05 281.30 267.45 279.65Q266.85 278 266.25 276.20L266.25 276.20Q265.35 273.20 264.45 270.20Q263.55 267.20 262.95 264.20L262.95 264.20Q262.65 261.80 262.05 259.40Q261.45 257 260.85 254.60L260.85 254.60L259.05 246.50Q259.05 245.90 258.75 245.60L258.75 245.60Q258.45 241.40 257.55 237.05Q256.65 232.70 255.75 228.50L255.75 228.50Q255.45 226.10 255.00 222.65Q254.55 219.20 254.85 217.10L254.85 217.10L254.85 214.10Q255.45 209.90 257.55 206.30L257.55 206.30Q259.95 202.10 265.35 199.70L265.35 199.70Q266.85 199.10 268.35 198.80Q269.85 198.50 271.05 198.20L271.05 198.20Q274.35 197.90 277.35 198.95Q280.35 200 283.35 201.80L283.35 201.80Q284.25 202.40 284.85 203.30L284.85 203.30Q285.75 204.80 286.80 206.30Q287.85 207.80 288.15 209.60L288.15 209.60Q288.75 211.40 289.50 213.20Q290.25 215 291.15 216.50L291.15 216.50Q292.65 219.50 293.25 222.80Q293.85 226.10 294.45 229.40L294.45 229.40Q295.35 233.90 295.35 239L295.35 239L295.35 240.50Q295.95 243.50 295.95 246.35Q295.95 249.20 295.95 252.20L295.95 252.20Q296.25 257 296.85 261.65Q297.45 266.30 298.05 271.40L298.05 271.40L299.85 285.50L299.85 286.10Q300.45 289.40 301.20 292.85Q301.95 296.30 302.25 299.60L302.25 299.60Q303.15 304.70 304.20 309.95Q305.25 315.20 305.85 320.30L305.85 320.30L307.65 332.90Q308.25 335.90 308.70 338.90Q309.15 341.90 309.75 344.90L309.75 344.90Q310.35 347.90 310.80 350.75Q311.25 353.60 311.85 356.60L311.85 356.60Q312.15 357.80 312.30 358.85Q312.45 359.90 312.45 361.10L312.45 361.10Q312.75 365.60 310.95 369.80L310.95 369.80Q310.65 371 309.45 372.20L309.45 372.20Q308.25 374 307.35 374.60L307.35 374.60Q304.95 377 303.75 379.70L303.75 379.70Q303.75 380 303.30 380.60Q302.85 381.20 302.25 381.80L302.25 381.80Q301.05 383 298.95 383Z"/>
  </g>
  <g data-letter="N" data-index="2">
    <path data-part="body" clip-path="url(#body-es-2)" d="M523.05 472.40L523.05 472.40Q519.75 473 518.85 470.60L518.85 470.60Q518.55 470 518.25 469.10Q517.95 468.20 517.35 467.60L517.35 467.60Q517.05 466.10 516.75 464.60Q516.45 463.10 516.15 461.60L516.15 461.60Q515.85 460.40 515.70 459.20Q515.55 458 515.55 456.80L515.55 456.80Q515.25 454.10 514.95 451.55Q514.65 449 514.35 446.30L514.35 446.30Q514.35 445.70 514.20 445.10Q514.05 444.50 514.05 443.90L514.05 443.90Q514.05 440 513.90 436.10Q513.75 432.20 513.45 428.30L513.45 428.30Q513.15 427.40 513.15 426.35Q513.15 425.30 513.15 424.40L513.15 424.40L513.15 422.30Q512.85 418.10 512.70 413.90Q512.55 409.70 512.55 405.50L512.55 405.50Q512.55 402.20 512.10 398.75Q511.65 395.30 511.05 392.30L511.05 392.30Q510.15 388.70 508.35 386L508.35 386Q506.85 383.30 505.65 380.45Q504.45 377.60 503.25 374.60L503.25 374.60Q502.95 373.40 502.20 372.50Q501.45 371.60 500.85 370.70L500.85 370.70Q496.95 365.90 493.05 361.10Q489.15 356.30 485.25 351.20L485.25 351.20L477.15 340.70L469.35 330.80Q466.95 327.50 464.40 324.35Q461.85 321.20 459.45 317.90L459.45 317.90Q455.85 312.80 451.95 307.85Q448.05 302.90 443.85 298.10L443.85 298.10Q434.25 285.50 424.65 274.40L424.65 274.40Q423.45 272.60 422.25 270.95Q421.05 269.30 419.85 267.50L419.85 267.50Q418.65 266 417.45 264.35Q416.25 262.70 414.75 261.20L414.75 261.20Q413.85 260 412.95 259.10Q412.05 258.20 411.45 257L411.45 257L398.85 242.60Q397.95 241.40 397.05 240.50Q396.15 239.60 395.25 238.70L395.25 238.70Q392.25 235.40 389.10 231.95Q385.95 228.50 382.65 225.50L382.65 225.50Q381.45 224 380.25 222.80Q379.05 221.60 377.25 220.70L377.25 220.70Q377.25 220.70 376.95 220.70Q376.65 220.70 376.35 221L376.35 221L376.35 221.90Q376.05 222.50 376.05 223.70L376.05 223.70Q376.05 226.10 376.05 228.35Q376.05 230.60 375.75 233L375.75 233Q375.45 234.20 375.60 235.25Q375.75 236.30 375.45 237.20L375.45 237.20L375.45 251.30Q375.45 252.20 375.45 253.25Q375.45 254.30 375.15 255.50L375.15 255.50Q374.85 257.30 374.85 259.10Q374.85 260.90 374.85 263L374.85 263L374.85 270.80Q374.85 273.50 374.70 276.20Q374.55 278.90 374.25 281.60L374.25 281.60Q373.95 285.20 373.95 288.80Q373.95 292.40 373.95 296L373.95 296Q373.95 298.70 373.95 301.25Q373.95 303.80 373.35 306.20L373.35 306.20L373.35 309.20Q373.35 311.60 373.35 314.30Q373.35 317 373.05 319.40L373.05 319.40Q373.05 320.90 373.05 322.55Q373.05 324.20 372.75 325.70L372.75 325.70Q372.45 327.80 372.75 330.20L372.75 330.20Q372.75 332.90 372.90 335.60Q373.05 338.30 373.35 340.70L373.35 340.70L374.25 346.70Q374.85 350.60 375.75 354.35Q376.65 358.10 377.55 362L377.55 362Q377.85 362.90 378.15 363.95Q378.45 365 378.75 365.90L378.75 365.90Q379.65 368 379.50 369.95Q379.35 371.90 379.05 374L379.05 374Q378.75 374.90 377.55 376.70L377.55 376.70Q376.95 377.90 376.20 378.95Q375.45 380 374.55 380.90L374.55 380.90Q373.35 382.70 373.05 383.60L373.05 383.60Q373.05 384.50 372.45 385.70L372.45 385.70L372.45 386.90Q371.25 391.70 365.85 391.70L365.85 391.70Q364.05 392 362.25 389.60L362.25 389.60Q362.25 389.30 362.10 389Q361.95 388.70 361.95 388.40L361.95 388.40Q361.65 386 360.30 384.35Q358.95 382.70 357.75 381.20L357.75 381.20Q357.15 380.30 356.40 379.55Q355.65 378.80 355.05 378.20L355.05 378.20Q353.85 376.40 353.55 375.20L353.55 375.20L352.35 372.20Q351.15 368.90 350.25 365.90Q349.35 362.90 348.75 359.90L348.75 359.90Q348.75 359.30 348.45 359L348.45 359Q347.55 355.70 347.10 352.10Q346.65 348.50 346.05 344.90L346.05 344.90Q346.05 343.10 345.75 341.90L345.75 341.90Q345.45 337.70 345.60 333.65Q345.75 329.60 345.75 325.70L345.75 325.70L345.75 314.90Q345.75 312.50 345.90 310.25Q346.05 308 346.35 305.90L346.35 305.90Q346.65 304.40 346.65 303.05Q346.65 301.70 346.65 300.50L346.65 300.50Q346.65 299 346.65 297.50Q346.65 296 346.95 294.50L346.95 294.50Q347.25 292.10 347.25 289.70Q347.25 287.30 347.25 285.20L347.25 285.20Q347.55 283.10 347.40 281.15Q347.25 279.20 347.25 277.10L347.25 277.10Q347.55 274.70 347.55 272.15Q347.55 269.60 347.55 266.90L347.55 266.90Q347.85 263.30 347.85 259.70Q347.85 256.10 347.85 252.50L347.85 252.50Q348.15 249.50 348.15 246.65Q348.15 243.80 348.45 240.80L348.45 240.80Q348.75 239.90 348.75 238.10L348.75 238.10L348.75 209.90Q348.15 206 348.00 202.25Q347.85 198.50 347.85 194.60L347.85 194.60Q347.85 192.50 346.95 190.40L346.95 190.40Q346.95 189.80 346.35 188.60L346.35 188.60Q343.95 182.60 346.65 176L346.65 176Q349.05 170.60 355.95 168.20L355.95 168.20Q359.85 167 364.65 168.50L364.65 168.50Q365.85 168.80 366.90 169.40Q367.95 170 368.55 170.90L368.55 170.90Q369.15 171.50 369.15 171.80L369.15 171.80Q372.45 175.70 376.35 179L376.35 179Q378.45 181.10 380.40 183.05Q382.35 185 384.45 187.40L384.45 187.40L392.25 195.50Q394.95 198.20 397.50 200.75Q400.05 203.30 402.45 206.30L402.45 206.30L404.55 208.40Q407.85 212 411.30 215.60Q414.75 219.20 417.75 223.10L417.75 223.10Q419.55 225.20 421.35 227.15Q423.15 229.10 424.95 231.50L424.95 231.50L431.85 239.60Q437.55 246.80 442.95 254.15Q448.35 261.50 454.05 268.70L454.05 268.70Q456.45 271.70 458.70 274.70Q460.95 277.70 463.05 280.70L463.05 280.70L465.15 283.40Q466.65 285.80 468.45 288.05Q470.25 290.30 472.05 292.70L472.05 292.70Q474.45 295.70 476.85 298.55Q479.25 301.40 481.35 304.10L481.35 304.10Q483.45 306.20 485.25 308.90L485.25 308.90Q490.35 314.60 494.85 320.30L494.85 320.30Q495.45 320.60 495.75 320.30L495.75 320.30L495.75 320Q495.75 318.80 495.90 317.45Q496.05 316.10 496.05 314.90L496.05 314.90Q495.75 313.40 495.75 312.35Q495.75 311.30 495.75 310.10L495.75 310.10Q495.75 308 495.75 306.05Q495.75 304.10 495.45 302L495.45 302L495.45 297.80Q495.15 295.40 495.15 293.15Q495.15 290.90 495.15 288.80L495.15 288.80L495.15 288.20Q494.85 284.90 494.70 281.45Q494.55 278 494.25 274.70L494.25 274.70Q494.25 272.60 493.95 270.80Q493.65 269 493.35 267.20L493.35 267.20Q493.35 266.30 493.20 265.25Q493.05 264.20 493.05 263.30L493.05 263.30Q492.75 260 492.75 257Q492.75 254 492.45 251L492.45 251Q492.15 246.20 491.70 241.40Q491.25 236.60 491.25 231.80L491.25 231.80Q491.55 225.20 491.40 218.90Q491.25 212.60 491.25 206L491.25 206L491.25 200.60Q491.25 199.70 490.95 199.40L490.95 199.40Q490.65 197 490.65 194.90Q490.65 192.80 490.65 190.70L490.65 190.70L490.65 187.70Q490.65 185 490.35 182.30Q490.05 179.60 489.15 177.20L489.15 177.20L489.15 176.60Q487.95 173.60 489.45 170L489.45 170Q490.35 167 492.15 164.75Q493.95 162.50 496.05 160.40L496.05 160.40L498.15 159.50Q502.95 157.70 507.45 159.20L507.45 159.20L511.95 161.90Q512.55 162.20 513 162.95Q513.45 163.70 513.75 164.30L513.75 164.30Q516.75 168.80 516.75 173.30L516.75 173.30Q516.75 174.50 516.90 175.85Q517.05 177.20 517.05 178.70L517.05 178.70Q517.05 179.90 516.75 181.10Q516.45 182.30 516.45 183.50L516.45 183.50Q516.75 187.70 516.60 192.05Q516.45 196.40 516.45 200.60L516.45 200.60Q516.45 202.70 516.60 204.80Q516.75 206.90 516.75 209.30L516.75 209.30Q516.75 210.50 516.75 211.85Q516.75 213.20 517.05 214.70L517.05 214.70Q517.35 215.90 517.35 217.70L517.35 217.70L517.35 224.60Q517.35 226.10 517.35 227.60Q517.35 229.10 517.65 230.60L517.65 230.60Q517.95 232.10 517.95 233.75Q517.95 235.40 518.25 236.90L518.25 236.90Q518.25 238.10 518.25 239.15Q518.25 240.20 518.55 241.40L518.55 241.40Q518.55 242 518.70 242.60Q518.85 243.20 518.85 243.80L518.85 243.80Q518.85 245.60 519 247.40Q519.15 249.20 519.45 251L519.45 251Q519.45 254.30 519.90 257.90Q520.35 261.50 520.35 265.10L520.35 265.10Q520.35 266.30 520.50 267.35Q520.65 268.40 520.95 269.60L520.95 269.60L520.95 271.10Q520.95 274.40 521.40 277.70Q521.85 281 521.85 284.30L521.85 284.30L521.85 285.50Q522.45 288.50 522.45 291.50Q522.45 294.50 522.75 297.80L522.75 297.80Q522.75 299 522.75 300.20Q522.75 301.40 523.05 302.60L523.05 302.60Q523.05 302.90 523.20 303.35Q523.35 303.80 523.35 304.10L523.35 304.10Q523.35 307.10 523.65 309.80Q523.95 312.50 524.25 315.20L524.25 315.20L525.15 321.80L525.45 323.90Q525.75 327.20 526.20 330.50Q526.65 333.80 526.95 337.10L526.95 337.10L527.85 345.50Q528.45 349.40 529.35 353.30Q530.25 357.20 532.35 360.80L532.35 360.80Q533.25 362.60 533.70 364.55Q534.15 366.50 534.45 368.30L534.45 368.30L534.45 370.70Q534.15 371.60 534.15 373.40L534.15 373.40Q533.85 377 532.35 380.60L532.35 380.60Q531.75 382.40 531.15 384.20Q530.55 386 529.95 387.80L529.95 387.80Q529.65 389 529.65 390.05Q529.65 391.10 529.35 392.30L529.35 392.30Q528.45 397.70 528.45 403.10L528.45 403.10L528.45 412.10Q528.75 416 528.75 419.90Q528.75 423.80 528.75 427.70L528.75 427.70L528.75 433.70Q528.75 435.20 528.75 436.85Q528.75 438.50 529.05 440L529.05 440Q529.35 440.60 529.20 441.50Q529.05 442.40 529.05 443L529.05 443Q528.75 444.50 528.75 446.15Q528.75 447.80 528.75 449.30L528.75 449.30L528.75 461Q528.75 464.30 527.85 467.90L527.85 467.90Q526.95 471.50 523.05 472.40Z"/>
    <path data-part="drip" data-origin-x="439.8" data-origin-y="380" clip-path="url(#drip-es-2)" d="M523.05 472.40L523.05 472.40Q519.75 473 518.85 470.60L518.85 470.60Q518.55 470 518.25 469.10Q517.95 468.20 517.35 467.60L517.35 467.60Q517.05 466.10 516.75 464.60Q516.45 463.10 516.15 461.60L516.15 461.60Q515.85 460.40 515.70 459.20Q515.55 458 515.55 456.80L515.55 456.80Q515.25 454.10 514.95 451.55Q514.65 449 514.35 446.30L514.35 446.30Q514.35 445.70 514.20 445.10Q514.05 444.50 514.05 443.90L514.05 443.90Q514.05 440 513.90 436.10Q513.75 432.20 513.45 428.30L513.45 428.30Q513.15 427.40 513.15 426.35Q513.15 425.30 513.15 424.40L513.15 424.40L513.15 422.30Q512.85 418.10 512.70 413.90Q512.55 409.70 512.55 405.50L512.55 405.50Q512.55 402.20 512.10 398.75Q511.65 395.30 511.05 392.30L511.05 392.30Q510.15 388.70 508.35 386L508.35 386Q506.85 383.30 505.65 380.45Q504.45 377.60 503.25 374.60L503.25 374.60Q502.95 373.40 502.20 372.50Q501.45 371.60 500.85 370.70L500.85 370.70Q496.95 365.90 493.05 361.10Q489.15 356.30 485.25 351.20L485.25 351.20L477.15 340.70L469.35 330.80Q466.95 327.50 464.40 324.35Q461.85 321.20 459.45 317.90L459.45 317.90Q455.85 312.80 451.95 307.85Q448.05 302.90 443.85 298.10L443.85 298.10Q434.25 285.50 424.65 274.40L424.65 274.40Q423.45 272.60 422.25 270.95Q421.05 269.30 419.85 267.50L419.85 267.50Q418.65 266 417.45 264.35Q416.25 262.70 414.75 261.20L414.75 261.20Q413.85 260 412.95 259.10Q412.05 258.20 411.45 257L411.45 257L398.85 242.60Q397.95 241.40 397.05 240.50Q396.15 239.60 395.25 238.70L395.25 238.70Q392.25 235.40 389.10 231.95Q385.95 228.50 382.65 225.50L382.65 225.50Q381.45 224 380.25 222.80Q379.05 221.60 377.25 220.70L377.25 220.70Q377.25 220.70 376.95 220.70Q376.65 220.70 376.35 221L376.35 221L376.35 221.90Q376.05 222.50 376.05 223.70L376.05 223.70Q376.05 226.10 376.05 228.35Q376.05 230.60 375.75 233L375.75 233Q375.45 234.20 375.60 235.25Q375.75 236.30 375.45 237.20L375.45 237.20L375.45 251.30Q375.45 252.20 375.45 253.25Q375.45 254.30 375.15 255.50L375.15 255.50Q374.85 257.30 374.85 259.10Q374.85 260.90 374.85 263L374.85 263L374.85 270.80Q374.85 273.50 374.70 276.20Q374.55 278.90 374.25 281.60L374.25 281.60Q373.95 285.20 373.95 288.80Q373.95 292.40 373.95 296L373.95 296Q373.95 298.70 373.95 301.25Q373.95 303.80 373.35 306.20L373.35 306.20L373.35 309.20Q373.35 311.60 373.35 314.30Q373.35 317 373.05 319.40L373.05 319.40Q373.05 320.90 373.05 322.55Q373.05 324.20 372.75 325.70L372.75 325.70Q372.45 327.80 372.75 330.20L372.75 330.20Q372.75 332.90 372.90 335.60Q373.05 338.30 373.35 340.70L373.35 340.70L374.25 346.70Q374.85 350.60 375.75 354.35Q376.65 358.10 377.55 362L377.55 362Q377.85 362.90 378.15 363.95Q378.45 365 378.75 365.90L378.75 365.90Q379.65 368 379.50 369.95Q379.35 371.90 379.05 374L379.05 374Q378.75 374.90 377.55 376.70L377.55 376.70Q376.95 377.90 376.20 378.95Q375.45 380 374.55 380.90L374.55 380.90Q373.35 382.70 373.05 383.60L373.05 383.60Q373.05 384.50 372.45 385.70L372.45 385.70L372.45 386.90Q371.25 391.70 365.85 391.70L365.85 391.70Q364.05 392 362.25 389.60L362.25 389.60Q362.25 389.30 362.10 389Q361.95 388.70 361.95 388.40L361.95 388.40Q361.65 386 360.30 384.35Q358.95 382.70 357.75 381.20L357.75 381.20Q357.15 380.30 356.40 379.55Q355.65 378.80 355.05 378.20L355.05 378.20Q353.85 376.40 353.55 375.20L353.55 375.20L352.35 372.20Q351.15 368.90 350.25 365.90Q349.35 362.90 348.75 359.90L348.75 359.90Q348.75 359.30 348.45 359L348.45 359Q347.55 355.70 347.10 352.10Q346.65 348.50 346.05 344.90L346.05 344.90Q346.05 343.10 345.75 341.90L345.75 341.90Q345.45 337.70 345.60 333.65Q345.75 329.60 345.75 325.70L345.75 325.70L345.75 314.90Q345.75 312.50 345.90 310.25Q346.05 308 346.35 305.90L346.35 305.90Q346.65 304.40 346.65 303.05Q346.65 301.70 346.65 300.50L346.65 300.50Q346.65 299 346.65 297.50Q346.65 296 346.95 294.50L346.95 294.50Q347.25 292.10 347.25 289.70Q347.25 287.30 347.25 285.20L347.25 285.20Q347.55 283.10 347.40 281.15Q347.25 279.20 347.25 277.10L347.25 277.10Q347.55 274.70 347.55 272.15Q347.55 269.60 347.55 266.90L347.55 266.90Q347.85 263.30 347.85 259.70Q347.85 256.10 347.85 252.50L347.85 252.50Q348.15 249.50 348.15 246.65Q348.15 243.80 348.45 240.80L348.45 240.80Q348.75 239.90 348.75 238.10L348.75 238.10L348.75 209.90Q348.15 206 348.00 202.25Q347.85 198.50 347.85 194.60L347.85 194.60Q347.85 192.50 346.95 190.40L346.95 190.40Q346.95 189.80 346.35 188.60L346.35 188.60Q343.95 182.60 346.65 176L346.65 176Q349.05 170.60 355.95 168.20L355.95 168.20Q359.85 167 364.65 168.50L364.65 168.50Q365.85 168.80 366.90 169.40Q367.95 170 368.55 170.90L368.55 170.90Q369.15 171.50 369.15 171.80L369.15 171.80Q372.45 175.70 376.35 179L376.35 179Q378.45 181.10 380.40 183.05Q382.35 185 384.45 187.40L384.45 187.40L392.25 195.50Q394.95 198.20 397.50 200.75Q400.05 203.30 402.45 206.30L402.45 206.30L404.55 208.40Q407.85 212 411.30 215.60Q414.75 219.20 417.75 223.10L417.75 223.10Q419.55 225.20 421.35 227.15Q423.15 229.10 424.95 231.50L424.95 231.50L431.85 239.60Q437.55 246.80 442.95 254.15Q448.35 261.50 454.05 268.70L454.05 268.70Q456.45 271.70 458.70 274.70Q460.95 277.70 463.05 280.70L463.05 280.70L465.15 283.40Q466.65 285.80 468.45 288.05Q470.25 290.30 472.05 292.70L472.05 292.70Q474.45 295.70 476.85 298.55Q479.25 301.40 481.35 304.10L481.35 304.10Q483.45 306.20 485.25 308.90L485.25 308.90Q490.35 314.60 494.85 320.30L494.85 320.30Q495.45 320.60 495.75 320.30L495.75 320.30L495.75 320Q495.75 318.80 495.90 317.45Q496.05 316.10 496.05 314.90L496.05 314.90Q495.75 313.40 495.75 312.35Q495.75 311.30 495.75 310.10L495.75 310.10Q495.75 308 495.75 306.05Q495.75 304.10 495.45 302L495.45 302L495.45 297.80Q495.15 295.40 495.15 293.15Q495.15 290.90 495.15 288.80L495.15 288.80L495.15 288.20Q494.85 284.90 494.70 281.45Q494.55 278 494.25 274.70L494.25 274.70Q494.25 272.60 493.95 270.80Q493.65 269 493.35 267.20L493.35 267.20Q493.35 266.30 493.20 265.25Q493.05 264.20 493.05 263.30L493.05 263.30Q492.75 260 492.75 257Q492.75 254 492.45 251L492.45 251Q492.15 246.20 491.70 241.40Q491.25 236.60 491.25 231.80L491.25 231.80Q491.55 225.20 491.40 218.90Q491.25 212.60 491.25 206L491.25 206L491.25 200.60Q491.25 199.70 490.95 199.40L490.95 199.40Q490.65 197 490.65 194.90Q490.65 192.80 490.65 190.70L490.65 190.70L490.65 187.70Q490.65 185 490.35 182.30Q490.05 179.60 489.15 177.20L489.15 177.20L489.15 176.60Q487.95 173.60 489.45 170L489.45 170Q490.35 167 492.15 164.75Q493.95 162.50 496.05 160.40L496.05 160.40L498.15 159.50Q502.95 157.70 507.45 159.20L507.45 159.20L511.95 161.90Q512.55 162.20 513 162.95Q513.45 163.70 513.75 164.30L513.75 164.30Q516.75 168.80 516.75 173.30L516.75 173.30Q516.75 174.50 516.90 175.85Q517.05 177.20 517.05 178.70L517.05 178.70Q517.05 179.90 516.75 181.10Q516.45 182.30 516.45 183.50L516.45 183.50Q516.75 187.70 516.60 192.05Q516.45 196.40 516.45 200.60L516.45 200.60Q516.45 202.70 516.60 204.80Q516.75 206.90 516.75 209.30L516.75 209.30Q516.75 210.50 516.75 211.85Q516.75 213.20 517.05 214.70L517.05 214.70Q517.35 215.90 517.35 217.70L517.35 217.70L517.35 224.60Q517.35 226.10 517.35 227.60Q517.35 229.10 517.65 230.60L517.65 230.60Q517.95 232.10 517.95 233.75Q517.95 235.40 518.25 236.90L518.25 236.90Q518.25 238.10 518.25 239.15Q518.25 240.20 518.55 241.40L518.55 241.40Q518.55 242 518.70 242.60Q518.85 243.20 518.85 243.80L518.85 243.80Q518.85 245.60 519 247.40Q519.15 249.20 519.45 251L519.45 251Q519.45 254.30 519.90 257.90Q520.35 261.50 520.35 265.10L520.35 265.10Q520.35 266.30 520.50 267.35Q520.65 268.40 520.95 269.60L520.95 269.60L520.95 271.10Q520.95 274.40 521.40 277.70Q521.85 281 521.85 284.30L521.85 284.30L521.85 285.50Q522.45 288.50 522.45 291.50Q522.45 294.50 522.75 297.80L522.75 297.80Q522.75 299 522.75 300.20Q522.75 301.40 523.05 302.60L523.05 302.60Q523.05 302.90 523.20 303.35Q523.35 303.80 523.35 304.10L523.35 304.10Q523.35 307.10 523.65 309.80Q523.95 312.50 524.25 315.20L524.25 315.20L525.15 321.80L525.45 323.90Q525.75 327.20 526.20 330.50Q526.65 333.80 526.95 337.10L526.95 337.10L527.85 345.50Q528.45 349.40 529.35 353.30Q530.25 357.20 532.35 360.80L532.35 360.80Q533.25 362.60 533.70 364.55Q534.15 366.50 534.45 368.30L534.45 368.30L534.45 370.70Q534.15 371.60 534.15 373.40L534.15 373.40Q533.85 377 532.35 380.60L532.35 380.60Q531.75 382.40 531.15 384.20Q530.55 386 529.95 387.80L529.95 387.80Q529.65 389 529.65 390.05Q529.65 391.10 529.35 392.30L529.35 392.30Q528.45 397.70 528.45 403.10L528.45 403.10L528.45 412.10Q528.75 416 528.75 419.90Q528.75 423.80 528.75 427.70L528.75 427.70L528.75 433.70Q528.75 435.20 528.75 436.85Q528.75 438.50 529.05 440L529.05 440Q529.35 440.60 529.20 441.50Q529.05 442.40 529.05 443L529.05 443Q528.75 444.50 528.75 446.15Q528.75 447.80 528.75 449.30L528.75 449.30L528.75 461Q528.75 464.30 527.85 467.90L527.85 467.90Q526.95 471.50 523.05 472.40Z"/>
  </g>
</svg>
