<svg xmlns="http://www.w3.org/2000/svg" viewBox="0 0 400 400" role="img">
  <path fill-rule="evenodd" d="M 253 37.500 C 252.315 38.325, 250.305 39, 248.533 39 C 245.323 39, 242 41.482, 242 43.880 C 242 44.552, 240.458 46.542, 238.572 48.301 C 236.687 50.060, 235 52.590, 234.822 53.922 C 234.600 55.595, 233.573 56.640, 231.500 57.302 C 227.543 58.567, 225 60.869, 225 63.186 C 225 64.218, 224.213 65.298, 223.250 65.586 C 218.440 67.025, 216.647 68.691, 215.426 72.857 C 214.723 75.253, 213.276 78.178, 212.210 79.357 C 208.979 82.930, 203 94.527, 203 97.221 C 203 101.606, 201.776 106.092, 200.679 105.726 C 199.027 105.176, 197.106 94.990, 197.700 89.929 C 198.063 86.831, 197.733 84.384, 196.674 82.336 C 195.815 80.675, 194.857 77.107, 194.546 74.408 C 193.442 64.819, 192.310 60.431, 189.542 55 C 184.768 45.635, 181.614 42.379, 175.428 40.434 L 169.884 38.690 165.192 39.778 L 160.500 40.866 157.193 38.933 C 155.374 37.870, 152.640 37, 151.117 37 C 148.068 37, 144 40.609, 144 43.314 C 144 44.257, 143.224 45, 142.240 45 C 140.073 45, 135 49.559, 135 51.506 C 135 52.289, 133.726 54.409, 132.169 56.215 C 130.612 58.022, 129.060 60.263, 128.721 61.195 C 128.377 62.143, 126.529 63.185, 124.528 63.561 C 119.842 64.440, 118 67.257, 118 73.548 L 118 78.651 115.500 81 C 113.714 82.678, 113 84.397, 113 87.019 C 113 89.468, 112.307 91.317, 110.919 92.573 L 108.838 94.457 109.392 99.478 C 109.697 102.240, 110.071 111.082, 110.223 119.127 L 110.500 133.755 107.673 131.377 C 106.119 130.070, 104.071 129, 103.123 129 C 102.175 129, 100.875 128.475, 100.234 127.834 C 99.346 126.946, 96.327 126.973, 87.572 127.949 L 76.076 129.230 70.598 133.365 C 67.585 135.639, 64.666 138.738, 64.112 140.250 C 63.408 142.170, 62.404 143, 60.784 143 C 58.535 143, 51.253 147.245, 49.765 149.424 C 49.361 150.016, 49.024 151.711, 49.015 153.191 C 49.007 154.671, 48.550 156.160, 48 156.500 C 47.450 156.840, 46.968 159.004, 46.930 161.309 C 46.835 166.982, 46.092 168.474, 42 171.218 C 39.741 172.733, 38.390 174.502, 38.191 176.209 C 38.020 177.664, 37.233 179.392, 36.441 180.049 C 35.648 180.707, 35 182.485, 35 184 C 35 185.515, 34.326 187.314, 33.503 187.997 C 30.318 190.641, 27.861 203.461, 30.108 205.708 C 30.718 206.318, 31.338 209.446, 31.487 212.658 C 31.809 219.636, 33.186 226.679, 34.816 229.684 C 35.467 230.886, 36 233.395, 36 235.260 C 36 237.584, 36.786 239.390, 38.500 241 C 39.875 242.292, 41 244.136, 41 245.098 C 41 247.579, 45.823 253, 48.030 253 C 49.049 253, 50.172 253.469, 50.525 254.041 C 51.636 255.838, 63.557 261, 66.597 261.001 C 68.194 261.001, 71.904 261.915, 74.842 263.031 C 81.601 265.600, 92.123 265.477, 95.541 262.789 C 98.624 260.364, 99.437 260.538, 97.557 263.223 C 96.701 264.445, 96 266.245, 96 267.223 C 96 268.486, 95.221 269, 93.305 269 C 91.742 269, 89.431 270.129, 87.805 271.687 L 85 274.374 85 280.858 C 85 285.078, 84.501 287.894, 83.570 288.923 C 82.784 289.792, 81.919 293.085, 81.648 296.240 L 81.156 301.978 85.078 305.335 C 88.033 307.864, 89 309.436, 89 311.711 C 89 313.372, 89.900 315.874, 91 317.273 C 92.100 318.671, 93 321.137, 93 322.753 C 93 326.161, 95.218 328.484, 99.600 329.665 C 101.646 330.216, 104.812 332.954, 108.910 337.716 L 115.119 344.932 118.809 345.523 C 127.040 346.843, 127 346.819, 127 350.397 C 127 352.244, 127.691 354.329, 128.536 355.030 C 130.216 356.424, 143.079 359.085, 149.602 359.387 C 151.859 359.491, 154.880 360.347, 156.317 361.288 C 159.586 363.430, 164.331 363.485, 167.486 361.417 L 169.901 359.835 175.372 361.059 C 179.232 361.923, 181.993 361.991, 184.748 361.292 L 188.653 360.301 190.937 362.150 L 193.222 364 202.706 364 L 212.191 364 215.142 361.899 L 218.093 359.798 232.489 359.750 L 246.884 359.703 250.692 355.765 C 252.787 353.599, 256.575 350.765, 259.110 349.467 C 261.646 348.170, 266.248 344.798, 269.336 341.976 L 274.952 336.844 278.726 337.019 C 280.802 337.115, 283.272 337.150, 284.215 337.097 C 286.963 336.942, 292.694 331.278, 293.332 328.088 C 293.693 326.285, 294.744 324.899, 296.069 324.478 C 298.571 323.684, 306 317.211, 306 315.825 C 306 315.307, 307.425 313.109, 309.167 310.942 L 312.334 307 311.353 301.584 L 310.371 296.167 312.130 291.833 C 314.338 286.393, 314.517 279.674, 312.500 278 C 311.675 277.315, 311 275.722, 311 274.459 C 311 273.196, 310.249 270.663, 309.331 268.831 C 308.414 266.999, 307.357 264.825, 306.983 264 C 306.610 263.175, 305.338 262.010, 304.158 261.411 C 300.346 259.476, 302.688 259.368, 315.954 260.866 L 328.972 262.336 330.815 260.668 C 331.828 259.751, 333.820 259, 335.240 259 C 336.911 259, 338.761 257.884, 340.483 255.838 C 341.946 254.100, 344.523 251.962, 346.210 251.088 C 349.844 249.207, 353.645 242.754, 355.091 236.011 C 355.662 233.348, 357 229.461, 358.065 227.373 C 359.129 225.285, 360 222.383, 360 220.923 C 360 219.464, 360.959 217.050, 362.132 215.560 L 364.263 212.850 364.229 204.675 C 364.203 198.438, 364.676 195.516, 366.225 192.349 C 367.680 189.375, 368.066 187.248, 367.587 184.849 C 366.535 179.581, 366.628 178.833, 369.063 173 C 371.808 166.423, 372.837 153.425, 370.898 149.822 C 370.211 148.545, 369.582 145.025, 369.501 142 C 369.196 130.559, 366.888 125, 362.444 125 C 360.935 125, 359.517 123.846, 358.123 121.485 C 355.734 117.436, 351.805 115.582, 347.500 116.474 C 339.777 118.073, 337.671 118.162, 335.464 116.981 C 332.091 115.176, 325.857 116.304, 320.284 119.729 L 315.523 122.655 314.224 127.256 L 312.924 131.858 309.981 132.504 C 308.281 132.878, 305.392 135.020, 303.143 137.575 C 301 140.009, 299.068 142, 298.848 142 C 298.081 142, 299.211 133.494, 300.102 132.550 C 301.873 130.676, 301.128 122.426, 299.016 120.515 C 297.643 119.272, 297.216 117.989, 297.628 116.347 C 297.955 115.042, 297.680 113.319, 297.015 112.518 L 295.806 111.062 297.986 108.291 L 300.166 105.520 299.467 97.624 C 298.923 91.485, 299.148 88.478, 300.476 84.114 C 303.727 73.431, 304 72.348, 304 70.147 C 304 66.157, 301.196 61.046, 298.302 59.759 C 293.830 57.772, 292.095 55.683, 290.523 50.389 C 289.713 47.662, 288.127 44.440, 286.998 43.229 L 284.946 41.026 275.872 41.234 L 266.798 41.443 264.816 38.721 L 262.833 36 258.539 36 C 255.942 36, 253.753 36.593, 253 37.500 M 205 153.683 C 203.625 155.667, 202.045 158.012, 201.488 158.895 C 197.503 165.214, 196.241 166.939, 193.072 170.397 C 190.569 173.128, 190.099 174.053, 191.500 173.487 C 194.861 172.131, 207.589 171.710, 209.781 172.883 C 211.394 173.746, 212.296 173.581, 214.142 172.086 C 215.834 170.716, 217.411 170.355, 219.925 170.763 L 223.380 171.323 216.233 164.581 C 210.653 159.317, 208.912 156.988, 208.293 153.957 L 207.500 150.075 205 153.683 M 265.397 171.939 C 263.671 173.876, 261.711 175, 260.057 175 C 258.621 175, 256.338 175.776, 254.984 176.724 C 253.193 177.978, 250.954 178.370, 246.762 178.162 L 241 177.876 241 181.044 C 241 183.001, 242 185.399, 243.618 187.322 L 246.235 190.433 245.744 195.466 L 245.253 200.500 251.127 205.330 C 255.727 209.112, 257 210.763, 257 212.942 C 257 214.664, 258.417 217.471, 260.719 220.310 C 264.859 225.415, 265.591 225.661, 263.939 221.389 C 262.620 217.980, 262.262 191.412, 263.451 185.211 C 264.066 182.006, 265.271 180.068, 268.218 177.546 C 271.095 175.083, 272.072 173.541, 271.831 171.845 C 271.343 168.416, 268.499 168.458, 265.397 171.939 M 130.604 181.439 C 130.664 186.954, 131.280 192.256, 132.085 194.190 C 133.629 197.898, 134.017 215.476, 132.671 220.749 L 131.842 223.998 133.541 223.346 C 136.187 222.331, 143.293 214.216, 145.405 209.799 C 146.649 207.196, 149.527 204.199, 153.703 201.157 C 160.306 196.348, 172 185.645, 172 184.412 C 172 184.027, 166.037 183.955, 158.750 184.251 C 143.450 184.873, 142.761 184.659, 135.678 177.087 C 133.061 174.289, 130.825 172, 130.710 172 C 130.594 172, 130.547 176.247, 130.604 181.439" fill="#FFFFFF"/>
  <path fill-rule="evenodd" d="M 256.488 42.655 C 255.577 43.566, 254.384 45.478, 253.836 46.905 L 252.839 49.500 250.485 46.566 L 248.131 43.631 247.604 46.066 C 247.315 47.404, 246.943 49.400, 246.779 50.500 C 246.590 51.761, 245.559 52.630, 243.990 52.851 C 241.183 53.246, 240.045 54.573, 240 57.500 C 239.950 60.787, 238.424 62.246, 234.354 62.902 L 230.500 63.523 230.190 67.258 C 229.874 71.061, 229.534 71.315, 223.536 72.218 C 222.195 72.420, 221.295 73.685, 220.699 76.205 C 220.219 78.235, 218.706 81.104, 217.338 82.581 C 215.969 84.057, 214.402 86.218, 213.855 87.383 C 213.309 88.547, 211.993 91.075, 210.932 93 C 209.871 94.925, 209.002 98.161, 209.002 100.191 C 209.001 102.221, 208.528 104.174, 207.951 104.530 C 206.637 105.343, 208.644 108, 210.573 108 C 213.653 108, 213.767 111.239, 210.880 116.728 C 208.701 120.871, 208.255 122.608, 209.009 124.018 C 209.554 125.036, 210 128.450, 210 131.606 C 210 135.319, 210.533 137.931, 211.510 139.011 C 212.434 140.032, 213.148 143.188, 213.348 147.141 L 213.676 153.602 218.713 158.801 C 221.484 161.660, 224.202 164, 224.753 164 C 225.305 164, 226.377 164.936, 227.137 166.080 C 228.907 168.745, 237.999 172.193, 244.726 172.750 L 249.953 173.182 252.683 171.035 C 254.482 169.619, 256.199 169.084, 257.718 169.465 C 259.508 169.915, 260.278 169.484, 261.163 167.541 C 262.490 164.629, 264.825 163.670, 270.824 163.571 L 275.148 163.500 278.129 160 C 288.721 147.565, 291 144.449, 291 142.403 C 291 141.146, 291.450 139.840, 292 139.500 C 292.550 139.160, 293 137.434, 293 135.663 C 293 133.893, 293.677 131.479, 294.504 130.298 C 296.193 127.886, 295.366 124.379, 292.560 122.050 C 291.443 121.123, 291.099 119.826, 291.493 118.030 C 291.913 116.119, 291.507 114.864, 290.038 113.534 C 287.231 110.994, 287.478 109.442, 291.114 106.780 L 294.228 104.500 293.578 95.751 C 293.128 89.690, 293.299 86.311, 294.136 84.751 C 297.874 77.784, 298.257 65, 294.728 65 C 292.888 65, 286 57.763, 286 55.830 C 286 54.958, 285.319 52.614, 284.487 50.622 L 282.973 47 279.737 47.070 C 277.956 47.109, 275.600 47.505, 274.500 47.950 C 273.317 48.428, 271.274 48.262, 269.500 47.543 C 267.850 46.875, 264.814 46.528, 262.753 46.773 L 259.006 47.218 259.628 44.109 C 260.325 40.626, 259.089 40.054, 256.488 42.655 M 150 46.941 C 150 51.523, 149.111 52.373, 145.683 51.069 C 142.950 50.031, 140.804 51.634, 139.593 55.618 C 139.239 56.783, 138.060 58.540, 136.974 59.523 C 135.889 60.506, 135 62.070, 135 63 C 135 65.522, 131.727 68.008, 127.504 68.693 L 123.760 69.301 124.407 74.805 L 125.054 80.309 121.527 83.539 L 118 86.770 118 90.835 C 118 93.280, 117.440 95.219, 116.595 95.700 C 114.669 96.797, 114.350 99.084, 115.766 101.639 C 116.931 103.742, 116.665 127.114, 115.454 129.075 C 114.918 129.941, 115.598 130.646, 122.250 136.121 C 126.694 139.779, 126.708 139.868, 123.500 144.595 C 121.894 146.961, 121 149.669, 121 152.165 L 121 156.050 124.020 156.654 C 126.914 157.233, 128.520 158.765, 133.971 166.152 C 135.330 167.993, 138.501 171.525, 141.019 174 L 145.596 178.500 158.048 178.420 C 165.490 178.372, 171.379 177.870, 172.684 177.170 C 173.886 176.527, 175.911 175.993, 177.184 175.985 C 180.519 175.964, 184.280 173.791, 184.578 171.714 C 184.718 170.731, 186.576 168.237, 188.705 166.171 C 190.834 164.105, 193.338 160.808, 194.269 158.845 C 195.201 156.882, 196.676 154.684, 197.547 153.961 C 200.208 151.753, 202.008 147.295, 201.439 144.321 C 201.101 142.550, 201.635 140.081, 202.874 137.687 L 204.849 133.874 202.869 128.187 C 201.780 125.059, 201.061 121.262, 201.272 119.748 C 201.518 117.976, 201.004 116.409, 199.827 115.343 C 198.822 114.434, 198 113.226, 198 112.659 C 198 112.093, 197.073 110.642, 195.940 109.436 C 193.193 106.512, 190.756 95.811, 191.582 90.301 C 191.975 87.682, 191.799 85.463, 191.136 84.664 C 190.534 83.939, 189.569 80.005, 188.991 75.923 C 187.557 65.798, 186.531 62.335, 183.077 55.962 C 179.229 48.860, 176.486 46, 173.520 46 C 172.199 46, 170.826 45.528, 170.470 44.951 C 170.028 44.237, 169.365 44.282, 168.387 45.094 C 167.597 45.749, 166.661 45.994, 166.306 45.639 C 165.950 45.284, 164.650 45.655, 163.416 46.463 L 161.172 47.933 156.533 45.467 C 150.421 42.217, 150 42.311, 150 46.941 M 328.145 122.074 C 323.537 123.912, 320 127.108, 320 129.433 C 320 132.715, 316.541 136.666, 312.502 137.999 C 310.254 138.741, 308.053 140.611, 306.237 143.322 C 304.345 146.147, 302.595 147.599, 300.834 147.805 L 298.229 148.111 296.948 152.685 L 295.667 157.260 290.840 159.390 C 287.803 160.731, 284.504 163.347, 281.944 166.446 L 277.874 171.370 278.133 174.963 C 278.459 179.477, 277.534 181, 274.464 181 C 272.939 181, 271.391 182, 270.273 183.707 L 268.500 186.413 268.656 202.741 C 268.741 211.720, 269.242 219.615, 269.768 220.284 C 270.294 220.953, 271.017 222.725, 271.374 224.223 C 271.837 226.161, 274.004 228.239, 278.883 231.423 C 282.655 233.886, 285.980 236.817, 286.274 237.938 C 286.567 239.059, 287.888 240.387, 289.209 240.890 C 290.531 241.392, 292.838 243.409, 294.335 245.373 C 295.833 247.336, 298.628 250.140, 300.546 251.603 L 304.035 254.264 311.767 254.703 C 316.020 254.945, 321.057 255.550, 322.960 256.048 L 326.419 256.955 328.487 255.013 C 329.686 253.886, 331.382 253.279, 332.527 253.566 C 333.965 253.928, 335.145 253.104, 336.879 250.531 C 338.187 248.589, 340.021 247, 340.955 247 C 342.796 247, 347 243.036, 347 241.300 C 347 240.711, 347.672 238.940, 348.494 237.364 C 349.315 235.789, 349.990 233.470, 349.994 232.210 C 349.997 230.951, 350.846 228.251, 351.880 226.210 C 352.914 224.170, 354.077 220.601, 354.463 218.279 C 354.850 215.958, 356.050 212.934, 357.131 211.560 L 359.097 209.062 358.878 201.281 C 358.717 195.557, 359.110 192.636, 360.365 190.232 L 362.070 186.965 360.937 183.184 L 359.804 179.404 361.478 175.452 C 364.662 167.933, 365.818 163.479, 365.877 158.512 L 365.937 153.525 363.373 151.481 L 360.810 149.437 363.034 145.667 L 365.258 141.898 363.501 138.003 C 362.535 135.860, 362.032 133.358, 362.384 132.443 L 363.023 130.778 360.652 131.373 C 358.011 132.035, 356.264 130.520, 353.595 125.250 C 351.667 121.444, 349.540 121.144, 346.272 124.214 L 343.915 126.428 341.971 125.214 C 339.293 123.541, 339 123.656, 339 126.378 C 339 132.275, 334.090 131.491, 333.106 125.436 C 332.425 121.249, 331.605 120.693, 328.145 122.074 M 89 133.543 C 85.975 134.298, 82.232 134.934, 80.683 134.958 C 77.809 135.001, 70.052 140.542, 70.018 142.576 C 69.990 144.233, 65.578 148, 63.664 148 C 62.725 148, 60.163 149.187, 57.971 150.638 C 54.793 152.741, 54.217 153.556, 55.130 154.657 C 56.014 155.722, 55.847 156.512, 54.395 158.116 C 53.360 159.260, 52.649 161.226, 52.814 162.486 C 52.979 163.745, 52.388 166.995, 51.501 169.707 L 49.888 174.639 46.444 175.884 L 42.999 177.130 43.967 178.939 C 44.699 180.305, 44.450 181.188, 42.954 182.542 C 41.821 183.567, 41.202 185.060, 41.508 186.027 C 41.804 186.957, 41.289 188.344, 40.364 189.109 C 38.392 190.740, 35.054 197.719, 35.022 200.275 C 35.010 201.260, 36.112 202.472, 37.500 203 C 40.459 204.125, 40.471 204.206, 38.359 208.657 L 36.717 212.116 38.407 219.808 C 39.337 224.038, 40.704 228.426, 41.446 229.559 C 42.189 230.691, 42.565 232.823, 42.284 234.296 C 41.929 236.149, 42.254 237.160, 43.337 237.576 C 44.199 237.906, 45.434 239.825, 46.082 241.838 C 47.687 246.824, 48.922 248.153, 51.621 247.800 C 52.941 247.627, 54.464 248.252, 55.211 249.273 C 57.356 252.208, 66.205 255.838, 68.838 254.864 C 70.508 254.247, 71.834 254.557, 73.829 256.032 C 75.323 257.137, 78.836 258.312, 81.635 258.643 L 86.724 259.246 91.362 256.528 C 93.913 255.033, 96 253.475, 96 253.065 C 96 252.656, 97.083 251.828, 98.406 251.225 C 99.890 250.549, 101.079 248.917, 101.506 246.971 C 101.969 244.864, 103.309 243.160, 105.538 241.845 C 107.374 240.762, 109.789 238.329, 110.904 236.438 C 112.020 234.547, 113.553 233, 114.311 233 C 115.070 233, 116.505 232.100, 117.500 231 C 118.495 229.900, 119.906 229, 120.635 229 C 122.132 229, 125.200 223.426, 127.612 216.321 L 129.235 211.543 128.029 204.521 C 127.366 200.660, 126.156 196.250, 125.339 194.722 C 124.345 192.863, 124.092 190.877, 124.575 188.722 C 126.032 182.214, 125.084 174.669, 122.537 172.500 C 119.346 169.783, 118.349 167.464, 117.593 161 C 117.151 157.227, 116.015 154.193, 113.974 151.337 C 112.338 149.047, 111 146.249, 111 145.120 C 111 141.595, 98.699 131.535, 95.062 132.085 C 94.753 132.132, 92.025 132.788, 89 133.543 M 217.089 177.392 C 216.454 178.158, 214.581 179.345, 212.928 180.030 L 209.922 181.275 207.711 179.317 C 205.970 177.775, 204.430 177.444, 200.471 177.761 L 195.443 178.163 193.900 180.851 L 192.358 183.539 188.429 183.618 C 184.286 183.702, 175.756 188.588, 174.630 191.522 C 174.308 192.361, 173.165 193.375, 172.090 193.774 C 171.015 194.173, 169.087 196.056, 167.806 197.958 C 166.525 199.859, 164.583 201.659, 163.489 201.958 C 158.990 203.185, 152.973 208.603, 150.548 213.611 C 149.187 216.422, 146.890 219.497, 145.445 220.444 C 143.999 221.392, 141.781 224.492, 140.516 227.333 C 137.604 233.875, 134.870 236.377, 128.086 238.710 C 122.522 240.624, 121.510 241.619, 120.580 246.093 C 119.956 249.093, 106.892 264.126, 103.969 265.207 C 102.645 265.697, 102 266.864, 102 268.768 C 102 272.476, 100.346 274, 96.323 274 C 91.573 274, 89.590 277.384, 90.493 283.950 L 91.181 288.954 89.091 291.612 C 85.671 295.959, 86.317 299.520, 91.099 302.684 L 95.197 305.396 94.669 308.653 C 94.284 311.027, 94.714 312.638, 96.257 314.600 C 97.421 316.080, 98.402 318.688, 98.437 320.395 L 98.500 323.500 102.608 323.801 C 105.854 324.038, 107.008 324.650, 108.108 326.717 C 108.874 328.156, 110.625 330.545, 112 332.027 C 113.375 333.508, 115.309 335.908, 116.297 337.360 L 118.093 340 122.161 340 C 129.329 340, 136.974 346.044, 132.951 348.530 C 130.366 350.128, 134.388 352.127, 139.693 351.881 C 142.797 351.738, 145.529 352.129, 146.217 352.817 C 147.817 354.417, 149.502 354.305, 151 352.500 C 152.723 350.424, 153.108 350.541, 157.348 354.424 L 161.086 357.849 166.268 355.562 L 171.450 353.275 175.767 354.746 C 179.201 355.916, 180.983 355.990, 184.485 355.108 C 190.313 353.641, 190.618 353.673, 192.786 356.001 C 194.178 357.495, 196.315 358.111, 201.221 358.431 L 207.790 358.860 211.645 356.734 C 215.367 354.681, 219.575 354.100, 233 353.787 C 236.025 353.716, 239.471 354.002, 240.658 354.422 L 242.816 355.185 248.899 349.593 C 252.245 346.517, 255.578 344, 256.306 344 C 259.059 344, 271.853 332.128, 272.183 329.267 C 272.642 325.290, 275.599 325.125, 277.754 328.955 L 279.500 332.059 282 331.452 C 285.190 330.677, 288 328.155, 288 326.068 C 288 323.419, 291.030 319.885, 294.569 318.407 C 296.689 317.521, 299.242 314.968, 301.679 311.296 L 305.482 305.566 305.146 299.731 C 304.899 295.435, 305.389 292.469, 307.006 288.484 L 309.203 283.073 307.101 280.402 C 305.946 278.932, 305 276.693, 305 275.424 C 305 274.156, 304.608 272.876, 304.129 272.580 C 303.650 272.284, 302.990 270.699, 302.662 269.058 C 302.232 266.910, 301.004 265.526, 298.282 264.120 C 296.202 263.045, 293.934 261.229, 293.242 260.083 C 292.549 258.937, 291.024 258, 289.852 258 C 288.680 258, 285.622 256.708, 283.056 255.129 C 280.490 253.550, 277.444 251.958, 276.287 251.591 C 273.738 250.782, 269.961 243.135, 269.634 238.123 C 269.453 235.338, 268.948 234.467, 267.449 234.356 C 266.377 234.277, 264.959 234.165, 264.298 234.106 C 263.637 234.048, 261.655 231.906, 259.894 229.346 C 258.133 226.786, 255.859 223.859, 254.841 222.841 C 253.823 221.823, 252.474 219.079, 251.845 216.745 C 250.996 213.596, 249.445 211.467, 245.838 208.500 C 238.728 202.652, 237.957 201.202, 239.294 196.192 L 240.405 192.032 237.648 189.155 C 235.595 187.012, 235.047 185.659, 235.501 183.851 L 236.111 181.423 232.463 179.684 C 230.092 178.553, 227.687 178.156, 225.593 178.548 C 223.311 178.977, 221.990 178.693, 221.063 177.576 C 219.453 175.636, 218.580 175.596, 217.089 177.392" fill="#013579"/>
</svg>