<svg xmlns="http://www.w3.org/2000/svg" viewBox="0 0 200 223" role="img">
  <path d="M 1 17.448 L 1 34.895 6.250 35.198 L 11.500 35.500 11.758 91.750 L 12.017 148 6.008 148 L 0 148 0 167 L 0 186 29.923 186 L 59.846 186 59.287 193.382 L 58.729 200.765 68.937 211.882 L 79.144 223 122.975 223 L 166.805 223 176.903 212.009 L 187 201.018 187 138.009 L 187 75 193.524 75 L 200.048 75 199.774 58.250 L 199.500 41.500 170.750 41.235 L 142 40.969 142 32.009 L 142 23.049 131.936 11.524 L 121.872 0 61.436 0 L 1 0 1 17.448 M 48 38.500 L 48 41 77.500 41 L 107 41 107 38.500 L 107 36 77.500 36 L 48 36 48 38.500 M 142 80.138 L 142 85.276 137.889 89.737 L 133.777 94.197 137.889 98.386 L 142 102.576 142 132.689 L 142 162.803 132.546 174.151 L 123.091 185.500 134.195 185.784 L 145.298 186.068 147.649 183.860 L 150 181.651 150 128.326 L 150 75 146 75 L 142 75 142 80.138 M 48 132 L 48 152 54 152 L 60 152 60 132 L 60 112 54 112 L 48 112 48 132 M 96 132 L 96 152 101.500 152 L 107 152 107 132 L 107 112 101.500 112 L 96 112 96 132" fill="#FFFFFF"/>
  <path d="M 6 17.448 L 6 29.895 11.250 30.198 L 16.500 30.500 16.758 91.750 L 17.015 153 11.008 153 L 5 153 5 167 L 5 181 34.500 181 L 64 181 64 169 L 64 157 53.500 157 L 43 157 43 132.035 L 43 107.070 53.250 106.785 L 63.500 106.500 63.779 93.250 L 64.058 80 53.529 80 L 43 80 43 55.500 L 43 31 77.500 31 L 112 31 112 55.500 L 112 80 102 80 L 92 80 92 93.500 L 92 107 102 107 L 112 107 112 132 L 112 157 102 157 L 92 157 92 169 L 92 181 104.855 181 L 117.710 181 127.355 169.393 L 137 157.786 137 132.614 L 137 107.442 130.540 101.040 L 124.080 94.637 130.540 87.419 L 137 80.201 137 54.125 L 137 28.049 126.936 16.524 L 116.872 5 61.436 5 L 6 5 6 17.448 M 51.667 46.667 C 51.300 47.033, 51 52.413, 51 58.621 L 51 69.909 57.750 70.204 L 64.500 70.500 64.728 133.860 L 64.957 197.220 74.578 207.610 L 84.200 218 123.002 218 L 161.805 218 171.903 207.009 L 182 196.018 182 133.009 L 182 70 188.532 70 L 195.063 70 194.782 58.250 L 194.500 46.500 168.250 46.233 L 142 45.967 142 57.983 L 142 70 148.500 70 L 155 70 155 128.326 L 155 186.651 152.686 188.826 L 150.371 191 122.860 191 L 95.349 191 93.174 188.686 L 91 186.371 91 128.186 L 91 70 97.500 70 L 104 70 104 58 L 104 46 78.167 46 C 63.958 46, 52.033 46.300, 51.667 46.667" fill="#35056D"/>
</svg>